<svg xmlns="http://www.w3.org/2000/svg" width="232.25271606445312" height="229.602783203125" viewBox="102.36294555664062 -2.415975570678711 232.25271606445312 229.602783203125"><title>Neo4j Graph Visualization</title><desc>Created using Neo4j (http://www.neo4j.com/)</desc><g class="layer relationships"><g class="relationship" transform="translate(280.0859041150389 26.58402418976138) rotate(528.446034370234)"><path class="outline" fill="#A5ABB6" stroke="none" d="M 21.40063509461097,12.933012701892217 L 21.90063509461097,12.06698729810778 A 91.41816989607763 91.41816989607763 0 0 0 35.40011837400729,18.452495971869354 L 35.04778577201736,19.388370823318525 A 92.41816989607763 92.41816989607763 0 0 1 21.40063509461097,12.933012701892217 Z M 95.9362811585329,20.866547774296052 L 95.62977691648034,19.914678482006508 A 91.41816989607763 91.41816989607763 0 0 0 109.42321402761964,14.191754186296224 L 108.0510526498814,11.523951128826742 L 115.87678139133813,11.434678147818598 L 111.2527625312706,17.748824929588867 L 109.88060115353237,15.081021872119384 A 92.41816989607763 92.41816989607763 0 0 1 95.9362811585329,20.866547774296052"/><text text-anchor="middle" pointer-events="none" font-size="8px" fill="#000000" x="65.37889961877254" y="27.787625110672238" transform="rotate(180 65.37889961877254 24.787625110672238)" font-family="sans-serif">PublicTransport</text></g><g class="relationship" transform="translate(144.7759930499411 54.24588295327672) rotate(456.9427774653917)"><path class="outline" fill="#A5ABB6" stroke="none" d="M 25 0.5 L 42.31376108124077 0.5 L 42.31376108124077 -0.5 L 25 -0.5 Z M 61.64969858124077 0.5 L 78.96345966248154 0.5 L 78.96345966248154 3.5 L 85.96345966248154 0 L 78.96345966248154 -3.5 L 78.96345966248154 -0.5 L 61.64969858124077 -0.5 Z"/><text text-anchor="middle" pointer-events="none" font-size="8px" fill="#000000" x="51.98172983124077" y="3" transform="rotate(180 51.98172983124077 0)" font-family="sans-serif">trek</text></g><g class="relationship" transform="translate(131.36295136529736 164.39568864095452) rotate(370.97459691046953)"><path class="outline" fill="#A5ABB6" stroke="none" d="M 25 0.5 L 75.58146928551989 0.5 L 75.58146928551989 -0.5 L 25 -0.5 Z M 94.91740678551989 0.5 L 145.49887607103977 0.5 L 145.49887607103977 3.5 L 152.49887607103977 0 L 145.49887607103977 -3.5 L 145.49887607103977 -0.5 L 94.91740678551989 -0.5 Z"/><text text-anchor="middle" pointer-events="none" font-size="8px" fill="#000000" x="85.24943803551989" y="3" font-family="sans-serif">trek</text></g><g class="relationship" transform="translate(280.0859041150389 26.58402418976138) rotate(528.446034370234)"><path class="outline" fill="#A5ABB6" stroke="none" d="M 25 0.5 L 55.88626801845858 0.5 L 55.88626801845858 -0.5 L 25 -0.5 Z M 75.22220551845858 0.5 L 106.10847353691716 0.5 L 106.10847353691716 3.5 L 113.10847353691716 0 L 106.10847353691716 -3.5 L 106.10847353691716 -0.5 L 75.22220551845858 -0.5 Z"/><text text-anchor="middle" pointer-events="none" font-size="8px" fill="#000000" x="65.55423676845858" y="3" transform="rotate(180 65.55423676845858 0)" font-family="sans-serif">trek</text></g><g class="relationship" transform="translate(280.0859041150389 26.58402418976138) rotate(528.446034370234)"><path class="outline" fill="#A5ABB6" stroke="none" d="M 21.40063509461097,-12.933012701892217 L 21.90063509461097,-12.06698729810778 A 91.41816989607763 91.41816989607763 0 0 1 54.490280310158255,-23.368415424023084 L 54.34677011139355,-24.35806426217252 A 92.41816989607763 92.41816989607763 0 0 0 21.40063509461097,-12.933012701892217 Z M 76.41887737106224,-24.893904078933232 L 76.32355891433107,-23.89845724870753 A 91.41816989607763 91.41816989607763 0 0 1 109.42321402761964,-14.191754186296224 L 108.0510526498814,-11.523951128826742 L 115.87678139133813,-11.434678147818598 L 111.2527625312706,-17.748824929588867 L 109.88060115353237,-15.081021872119384 A 92.41816989607763 92.41816989607763 0 0 0 76.41887737106224,-24.893904078933232"/><text text-anchor="middle" pointer-events="none" font-size="8px" fill="#000000" x="65.37889961877255" y="-21.787625110672238" transform="rotate(180 65.37889961877255 -24.787625110672238)" font-family="sans-serif">road</text></g></g><g class="layer nodes"><g class="node" transform="translate(280.0859041150389,26.58402418976138)"><circle class="outline" cx="0" cy="0" r="25" fill="#F16667" stroke="#eb2728" stroke-width="2px"/><text text-anchor="middle" pointer-events="none" font-family="sans-serif" dy="1.5625" font-size="25" fill="#FFFFFF"/><text text-anchor="middle" pointer-events="none" x="0" y="5" font-size="10px" fill="#FFFFFF" font-family="sans-serif"> Darjeeling</text></g><g class="node" transform="translate(305.615672163908,198.186816185974)"><circle class="outline" cx="0" cy="0" r="25" fill="#D9C8AE" stroke="#c0a378" stroke-width="2px"/><text text-anchor="middle" pointer-events="none" font-family="sans-serif" dy="1.5625" font-size="25" fill="#2A2C34"/><text text-anchor="middle" pointer-events="none" x="0" y="5" font-size="10px" fill="#2A2C34" font-family="sans-serif"> Sandak…</text></g><g class="node" transform="translate(144.7759930499411,54.24588295327672)"><circle class="outline" cx="0" cy="0" r="25" fill="#F16667" stroke="#eb2728" stroke-width="2px"/><text text-anchor="middle" pointer-events="none" font-family="sans-serif" dy="1.5625" font-size="25" fill="#FFFFFF"/><text text-anchor="middle" pointer-events="none" x="0" y="5" font-size="10px" fill="#FFFFFF" font-family="sans-serif"> Rimbik</text></g><g class="node" transform="translate(131.36295136529736,164.39568864095452)"><circle class="outline" cx="0" cy="0" r="25" fill="#8DCC93" stroke="#5db665" stroke-width="2px"/><text text-anchor="middle" pointer-events="none" font-family="sans-serif" dy="1.5625" font-size="25" fill="#2A2C34"/><text text-anchor="middle" pointer-events="none" x="0" y="5" font-size="10px" fill="#2A2C34" font-family="sans-serif"> BhikeBh…</text></g></g></svg>