<svg xmlns="http://www.w3.org/2000/svg" width="222.69874572753906" height="225.0758819580078" viewBox="-12.629415512084961 -12.53321361541748 222.69874572753906 225.0758819580078"><title>Neo4j Graph Visualization</title><desc>Created using Neo4j (http://www.neo4j.com/)</desc><g class="layer relationships"><g class="relationship" transform="translate(107.34931754665539 164.26632118287904) rotate(308.523488665209)"><path class="outline" fill="#A5ABB6" stroke="none" d="M 5.987513214418485,24.277555179777966 L 6.953439040707552,24.018736134675446 A 37.84452312852657 37.84452312852657 0 0 0 9.003521925528048,29.767934268268164 L 8.091767290083638,30.178669565930335 A 38.84452312852657 38.84452312852657 0 0 1 5.987513214418485,24.277555179777966 Z M 76.25122671432518,35.123780578849974 L 75.40830774498058,34.585740049596794 A 37.84452312852657 37.84452312852657 0 0 0 78.26678556543851,29.192668238106624 L 75.51143223730318,28.00606466608538 L 81.49475278817731,22.96127773446107 L 81.94059000295229,30.77480633413495 L 79.18523667481696,29.588202762113706 A 38.84452312852657 38.84452312852657 0 0 1 76.25122671432518,35.123780578849974"/><text text-anchor="middle" pointer-events="none" font-size="8px" fill="#000000" x="40.73375925404778" y="55.467853546889145" font-family="sans-serif">CITY_CONNECTION</text></g><g class="relationship" transform="translate(107.34931754665539 164.26632118287904) rotate(263.52966881519205)"><path class="outline" fill="#A5ABB6" stroke="none" d="M 5.987513214418485,-24.277555179777966 L 6.953439040707552,-24.018736134675446 A 58.22866254396614 58.22866254396614 0 0 1 23.362230359738504,-51.41789695065357 L 22.67810374713808,-52.14726021949282 A 59.22866254396614 59.22866254396614 0 0 0 5.987513214418485,-24.277555179777966 Z M 99.06573803330727,-56.08126911741272 L 98.46015741624561,-55.28548515411663 A 58.22866254396614 58.22866254396614 0 0 1 117.59681749092397,-29.716936365467067 L 114.79413542205519,-28.646902150667646 L 120.56067767026741,-23.35568390723982 L 121.33372691608234,-31.143648651866297 L 118.53104484721356,-30.073614437066876 A 59.22866254396614 59.22866254396614 0 0 0 99.06573803330727,-56.08126911741272"/><text text-anchor="middle" pointer-events="none" font-size="8px" fill="#000000" x="60.17744981945515" y="-64.59898306961443" transform="rotate(180 60.17744981945515 -67.59898306961443)" font-family="sans-serif">CITY_CONNECTION</text></g><g class="relationship" transform="translate(92.75865067519288 35.61342004615741) rotate(398.6369406944234)"><path class="outline" fill="#A5ABB6" stroke="none" d="M 5.987513214418485,24.277555179777966 L 6.953439040707552,24.018736134675446 A 37.932215980201754 37.932215980201754 0 0 0 9.048554993542396,29.870369155931904 L 8.137862321939792,30.28345372099009 A 38.932215980201754 38.932215980201754 0 0 1 5.987513214418485,24.277555179777966 Z M 76.36099295106838,35.22461107389847 L 75.51932889415026,34.68460957825968 A 37.932215980201754 37.932215980201754 0 0 0 78.43578192971131,29.195946575064053 L 75.68013202171191,28.010031913487197 L 81.66219112472386,22.96374923332828 L 82.10998180704384,30.77716612383319 L 79.35433189904444,29.591251462256334 A 38.932215980201754 38.932215980201754 0 0 1 76.36099295106838,35.22461107389847"/><text text-anchor="middle" pointer-events="none" font-size="8px" fill="#000000" x="40.81691012238756" y="55.5329672732101" font-family="sans-serif">CITY_CONNECTION</text></g><g class="relationship" transform="translate(92.75865067519288 35.61342004615741) rotate(398.6369406944234)"><path class="outline" fill="#A5ABB6" stroke="none" d="M 14.44320574945421,20.411854586953456 L 15.247803529220876,19.818034401379958 A 35.22920804399751 35.22920804399751 0 0 0 15.9620808952638,20.752769065278475 L 15.17775826233412,21.373122196546674 A 36.22920804399751 36.22920804399751 0 0 1 14.44320574945421,20.411854586953456 Z M 69.176144750656,24.55101073154793 L 68.47000183372475,23.8429413981717 A 35.22920804399751 35.22920804399751 0 0 0 69.28898988854527,22.998441774965166 L 67.10081888974553,20.946148501572754 L 74.4423693595942,18.234758323331178 L 72.20655122027826,25.73483280615505 L 70.01838022147851,23.68253953276264 A 36.22920804399751 36.22920804399751 0 0 1 69.176144750656,24.55101073154793"/><text text-anchor="middle" pointer-events="none" font-size="8px" fill="#000000" x="41.49405892471035" y="37.56571371443871" font-family="sans-serif">CITY_CONN…</text></g><g class="relationship" transform="translate(92.75865067519288 35.61342004615741) rotate(398.6369406944234)"><path class="outline" fill="#A5ABB6" stroke="none" d="M 20.90208894244944,13.724164012497553 L 21.434121018964774,12.87743981326927 A 41.64979155115995 41.64979155115995 0 0 0 22.11730736767512,13.297593917498268 L 21.601678406836154,14.154405900808563 A 42.64979155115995 42.64979155115995 0 0 1 20.90208894244944,13.724164012497553 Z M 62.732096158801696,15.725924852837792 L 62.283349532889474,14.83226582069387 A 41.64979155115995 41.64979155115995 0 0 0 62.9966039236553,14.465467194172552 L 61.59898892271619,11.810910299105132 L 69.4235058456358,11.646791674492544 L 64.8600905915741,18.00487638759578 L 63.462475590634995,15.350319492528358 A 42.64979155115995 42.64979155115995 0 0 1 62.732096158801696,15.725924852837792"/><text text-anchor="middle" pointer-events="none" font-size="8px" fill="#000000" x="41.983852968954054" y="22.73061208603135" font-family="sans-serif">CITY_C…</text></g><g class="relationship" transform="translate(107.34931754665539 164.26632118287904) rotate(218.43469301499658)"><path class="outline" fill="#A5ABB6" stroke="none" d="M 5.987513214418485,-24.277555179777966 L 6.953439040707552,-24.018736134675446 A 37.93194819536201 37.93194819536201 0 0 1 9.048417121162615,-29.870056495124228 L 8.137721204754925,-30.28313390655986 A 38.93194819536201 38.93194819536201 0 0 0 5.987513214418485,-24.277555179777966 Z M 76.36065802184123,-35.2243033586885 L 75.51899013475415,-34.68430783292338 A 37.93194819536201 37.93194819536201 0 0 1 78.43526586662182,-29.195936583280236 L 75.67961686253386,-28.010019821332314 L 81.6616798118483,-22.96374170073299 L 82.1094645387391,-30.777158932544133 L 79.35381553465115,-29.59124217059621 A 38.93194819536201 38.93194819536201 0 0 0 76.36065802184123,-35.2243033586885"/><text text-anchor="middle" pointer-events="none" font-size="8px" fill="#000000" x="40.81665619786823" y="-49.53276843775352" transform="rotate(180 40.81665619786823 -52.53276843775352)" font-family="sans-serif">CITY_CONNECTION</text></g><g class="relationship" transform="translate(35.64107714487123 107.36034003646205) rotate(353.5295041681575)"><path class="outline" fill="#A5ABB6" stroke="none" d="M 5.987513214418485,24.277555179777966 L 6.953439040707552,24.018736134675446 A 58.213740452629715 58.213740452629715 0 0 0 23.34998351267454,51.40333097177881 L 22.665718757199315,52.13256464106077 A 59.213740452629715 59.213740452629715 0 0 1 5.987513214418485,24.277555179777966 Z M 99.05017465275657,56.0672537031075 L 98.44446084393786,55.271571114504276 A 58.213740452629715 58.213740452629715 0 0 0 117.56800566349713,29.716674547548724 L 114.76534717504488,28.646578571896757 L 120.5320060214271,23.355487403768795 L 121.30488364810013,31.143469181751346 L 118.50222515964788,30.07337320609938 A 59.213740452629715 59.213740452629715 0 0 1 99.05017465275657,56.0672537031075"/><text text-anchor="middle" pointer-events="none" font-size="8px" fill="#000000" x="60.16315760129364" y="70.58790957318345" font-family="sans-serif">CITY_CONNECTION</text></g><g class="relationship" transform="translate(35.64107714487123 107.36034003646205) rotate(353.5295041681575)"><path class="outline" fill="#A5ABB6" stroke="none" d="M 12.066987298107785,21.900635094610966 L 12.933012701892222,21.400635094610966 A 58.02437372773282 58.02437372773282 0 0 0 23.63334443028495,34.84555216772176 L 22.95173000831656,35.57726370908537 A 59.02437372773282 59.02437372773282 0 0 1 12.066987298107785,21.900635094610966 Z M 99.31806903393154,39.05938604080775 L 98.70587321781291,38.26867984839059 A 58.02437372773282 58.02437372773282 0 0 0 110.5853703760985,25.85334894395006 L 108.13458428697686,24.123132903864935 L 115.03100548448406,20.423217409347085 L 113.85308516159401,28.160303664063562 L 111.40229907247237,26.430087623978437 A 59.02437372773282 59.02437372773282 0 0 1 99.31806903393154,39.05938604080775"/><text text-anchor="middle" pointer-events="none" font-size="8px" fill="#000000" x="60.517792833475724" y="53.85207643060075" font-family="sans-serif">CITY_CONNECTION</text></g><g class="relationship" transform="translate(35.64107714487123 107.36034003646205) rotate(353.5295041681575)"><path class="outline" fill="#A5ABB6" stroke="none" d="M 17.324116139070416,18.03122292025696 L 18.031222920256962,17.324116139070412 A 63.85509610410891 63.85509610410891 0 0 0 23.16156452072365,21.928256040451544 L 22.534801234629526,22.70746575753963 A 64.85509610410891 64.85509610410891 0 0 1 17.324116139070416,18.03122292025696 Z M 100.00498165869504,25.560591166718964 L 99.43723310103665,24.737389140921636 A 63.85509610410891 63.85509610410891 0 0 0 104.89234599344094,20.523097682076752 L 102.93281163442995,18.251484797834493 L 110.51936511650803,16.32945299175817 L 107.50505847212224,23.55191486106643 L 105.54552411311126,21.28030197682417 A 64.85509610410891 64.85509610410891 0 0 1 100.00498165869504,25.560591166718964"/><text text-anchor="middle" pointer-events="none" font-size="8px" fill="#000000" x="60.815086101596144" y="39.48324102276389" font-family="sans-serif">CITY_CONNECTION</text></g><g class="relationship" transform="translate(35.64107714487123 107.36034003646205) rotate(353.5295041681575)"><path class="outline" fill="#A5ABB6" stroke="none" d="M 21.40063509461097,12.933012701892217 L 21.90063509461097,12.06698729810778 A 82.56591858836019 82.56591858836019 0 0 0 22.00712120601574,12.128361452457725 L 21.508410916264538,12.995130191451167 A 83.56591858836019 83.56591858836019 0 0 1 21.40063509461097,12.933012701892217 Z M 101.06413755542354,15.049898490683105 L 100.61083621192694,14.158541159426917 A 82.56591858836019 82.56591858836019 0 0 0 100.72034858137228,14.102745821962742 L 99.35646546224692,11.430701129715837 L 107.18243338313596,11.365692659378041 L 102.53885940687277,17.665472078291952 L 101.17497628774741,14.993427386045045 A 83.56591858836019 83.56591858836019 0 0 1 101.06413755542354,15.049898490683105"/><text text-anchor="middle" pointer-events="none" font-size="8px" fill="#000000" x="61.03887995675987" y="26.601030637171505" font-family="sans-serif">CITY_CONNECTION</text></g><g class="relationship" transform="translate(35.64107714487123 107.36034003646205) rotate(353.5295041681575)"><path class="outline" fill="#A5ABB6" stroke="none" d="M 24.018736134675446,6.953439040707552 L 24.277555179777966,5.987513214418485 A 150.32139228240342 150.32139228240342 0 0 0 26.02195501794636,6.443728568156814 L 25.774740441187845,7.412689327443843 A 151.32139228240342 151.32139228240342 0 0 1 24.018736134675446,6.953439040707552 Z M 96.6794179850539,8.355787980402681 L 96.4580624774747,7.380594799917731 A 150.32139228240342 150.32139228240342 0 0 0 98.2139792407963,6.97093693697052 L 97.51486946699521,4.0535330355239285 L 105.13777330647186,5.8259147816757455 L 99.14612560586443,10.860808805565975 L 98.44701583206333,7.943404904119384 A 151.32139228240342 151.32139228240342 0 0 1 96.6794179850539,8.355787980402681"/><text text-anchor="middle" pointer-events="none" font-size="8px" fill="#000000" x="61.17770597135824" y="14.596250939691203" font-family="sans-serif">CITY_CONNEC…</text></g><g class="relationship" transform="translate(35.64107714487123 107.36034003646205) rotate(353.5295041681575)"><path class="outline" fill="#A5ABB6" stroke="none" d="M 25 0.5 L 25.554814367596748 0.5 L 25.554814367596748 -0.5 L 25 -0.5 Z M 96.89465811759675 0.5 L 97.4494724851935 0.5 L 97.4494724851935 3.5 L 104.4494724851935 0 L 97.4494724851935 -3.5 L 97.4494724851935 -0.5 L 96.89465811759675 -0.5 Z"/><text text-anchor="middle" pointer-events="none" font-size="8px" fill="#000000" x="61.22473624259675" y="3" font-family="sans-serif">CITY_CONNEC…</text></g><g class="relationship" transform="translate(107.34931754665539 164.26632118287904) rotate(218.43469301499658)"><path class="outline" fill="#A5ABB6" stroke="none" d="M 14.44320574945421,-20.411854586953456 L 15.247803529220876,-19.818034401379958 A 35.22888656623671 35.22888656623671 0 0 1 15.961902033416546,-20.752542636620607 L 15.177574508369766,-21.372889582654835 A 36.22888656623671 36.22888656623671 0 0 0 14.44320574945421,-20.411854586953456 Z M 69.17584585206053,-24.55078773883106 L 68.46969777982483,-23.8427235467709 A 35.22888656623671 35.22888656623671 0 0 1 69.28848215913786,-22.998428304796807 L 67.10031240247308,-20.946133707031276 L 74.44186451336823,-18.234747972206563 L 72.20604183469091,-25.734821101817513 L 70.01787207802613,-23.68252650405198 A 36.22888656623671 36.22888656623671 0 0 0 69.17584585206053,-24.55078773883106"/><text text-anchor="middle" pointer-events="none" font-size="8px" fill="#000000" x="41.493808357562465" y="-31.56558305671531" transform="rotate(180 41.493808357562465 -34.56558305671531)" font-family="sans-serif">CITY_CONN…</text></g><g class="relationship" transform="translate(107.34931754665539 164.26632118287904) rotate(218.43469301499658)"><path class="outline" fill="#A5ABB6" stroke="none" d="M 20.90208894244944,-13.724164012497553 L 21.434121018964774,-12.87743981326927 A 41.64930537691594 41.64930537691594 0 0 1 22.117085224413547,-13.297460125727902 L 21.60145112138824,-14.154269014452389 A 42.64930537691594 42.64930537691594 0 0 0 20.90208894244944,-13.724164012497553 Z M 62.73183333770809,-15.725794570354985 L 62.283081693935706,-14.832138057923288 A 41.64930537691594 41.64930537691594 0 0 1 62.996104521864034,-14.46545615810382 L 61.598490547114416,-11.810898722751443 L 69.42300753347784,-11.646783122913451 L 64.85958982153018,-18.00486607190699 L 63.46197584678057,-15.350308636554612 A 42.64930537691594 42.64930537691594 0 0 0 62.73183333770809,-15.725794570354985"/><text text-anchor="middle" pointer-events="none" font-size="8px" fill="#000000" x="41.98360472993087" y="-16.73053761071666" transform="rotate(180 41.98360472993087 -19.73053761071666)" font-family="sans-serif">CITY_C…</text></g><g class="relationship" transform="translate(107.34931754665539 164.26632118287904) rotate(263.52966881519205)"><path class="outline" fill="#A5ABB6" stroke="none" d="M 11.10020991428674,-22.406145136073057 L 11.987220747464963,-21.944396522838026 A 57.734117058343834 57.734117058343834 0 0 1 23.647585136877815,-37.345138450008974 L 22.96254092211396,-38.073639941989995 A 58.734117058343834 58.734117058343834 0 0 0 11.10020991428674,-22.406145136073057 Z M 99.26263280299024,-41.64348035685816 L 98.64860084699829,-40.85419919211349 A 57.734117058343834 57.734117058343834 0 0 1 111.69598395018824,-26.609454766192666 L 109.17591548465774,-24.98180156939711 L 115.91385282029961,-21.000570546087445 L 115.05607523756223,-28.77965902858674 L 112.53600677203173,-27.152005831791183 A 58.734117058343834 58.734117058343834 0 0 0 99.26263280299024,-41.64348035685816"/><text text-anchor="middle" pointer-events="none" font-size="8px" fill="#000000" x="60.47639472301748" y="-50.45623205044552" transform="rotate(180 60.47639472301748 -53.45623205044552)" font-family="sans-serif">CITY_CONNECTION</text></g><g class="relationship" transform="translate(107.34931754665539 164.26632118287904) rotate(263.52966881519205)"><path class="outline" fill="#A5ABB6" stroke="none" d="M 15.686668020603996,-19.47250488281772 L 16.452712463722975,-18.829717273131184 A 61.021649564021814 61.021649564021814 0 0 1 23.41807086842011,-25.878841147809673 L 22.766172117108255,-26.637147166536977 A 62.021649564021814 62.021649564021814 0 0 0 15.686668020603996,-19.47250488281772 Z M 99.7417589948276,-29.718023767423162 L 99.15254940060503,-28.91004353618228 A 61.021649564021814 61.021649564021814 0 0 1 106.65899435380277,-22.440140192927483 L 104.52232712296973,-20.33427857717864 L 111.92878266235556,-17.805560256941895 L 109.50788399491347,-25.247955680592607 L 107.37121676408043,-23.142094064843764 A 62.021649564021814 62.021649564021814 0 0 0 99.7417589948276,-29.718023767423162"/><text text-anchor="middle" pointer-events="none" font-size="8px" fill="#000000" x="60.737630838194214" y="-38.078189118077646" transform="rotate(180 60.737630838194214 -41.078189118077646)" font-family="sans-serif">CITY_CONNECTION</text></g><g class="relationship" transform="translate(107.34931754665539 164.26632118287904) rotate(263.52966881519205)"><path class="outline" fill="#A5ABB6" stroke="none" d="M 19.529452792776517,-15.615712395363635 L 20.13821422178524,-14.822359055072399 A 70.73344622133315 70.73344622133315 0 0 1 22.661284563186157,-16.671202470673478 L 22.088193251727006,-17.490693989073776 A 71.73344622133315 71.73344622133315 0 0 0 19.529452792776517,-15.615712395363635 Z M 100.51942484988169,-19.965837517869346 L 99.99914569429043,-19.11184126479955 A 70.73344622133315 70.73344622133315 0 0 1 102.63377151011973,-17.425765129616384 L 100.9611923162038,-14.93528749669543 L 108.72364918592127,-13.938159949299388 L 104.86387710200762,-20.74640197351099 L 103.1912979080917,-18.255924340590038 A 71.73344622133315 71.73344622133315 0 0 0 100.51942484988169,-19.965837517869346"/><text text-anchor="middle" pointer-events="none" font-size="8px" fill="#000000" x="60.951131759871934" y="-26.90374465508898" transform="rotate(180 60.951131759871934 -29.90374465508898)" font-family="sans-serif">CITY_CONNECTION</text></g><g class="relationship" transform="translate(107.34931754665539 164.26632118287904) rotate(263.52966881519205)"><path class="outline" fill="#A5ABB6" stroke="none" d="M 22.446385545045896,-11.018610437035811 L 22.869003806786598,-10.112302649999162 A 95.42655362146431 95.42655362146431 0 0 1 23.35848799761157,-10.33887093665524 L 22.94099916968409,-11.247552992467803 A 96.42655362146431 96.42655362146431 0 0 0 22.446385545045896,-11.018610437035811 Z M 99.60170714871037,-12.9172962355712 L 99.22417940599519,-11.991297961555318 A 95.42655362146431 95.42655362146431 0 0 1 99.7230644508787,-11.786257298326172 L 98.5747973792132,-9.014708501691205 L 106.38138948830454,-9.568892263879166 L 101.25408721309937,-15.481655693839462 L 100.10582014143387,-12.710106897204495 A 96.42655362146431 96.42655362146431 0 0 0 99.60170714871037,-12.9172962355712"/><text text-anchor="middle" pointer-events="none" font-size="8px" fill="#000000" x="61.10913174231234" y="-16.53028147412121" transform="rotate(180 61.10913174231234 -19.53028147412121)" font-family="sans-serif">CITY_CONNECTI…</text></g><g class="relationship" transform="translate(107.34931754665539 164.26632118287904) rotate(263.52966881519205)"><path class="outline" fill="#A5ABB6" stroke="none" d="M 24.299180371029284,-5.899138352012538 L 24.515619984967383,-4.922842344892605 A 178.72138714999952 178.72138714999952 0 0 1 25.91703380252197,-5.227634222798088 L 25.708435521061766,-6.205635632291887 A 179.72138714999952 179.72138714999952 0 0 0 24.299180371029284,-5.899138352012538 Z M 96.77155425970935,-6.995487983208648 L 96.584745406462,-6.013091702500901 A 178.72138714999952 178.72138714999952 0 0 1 97.99258757348179,-5.739524142963723 L 97.40852911065075,-2.796927379559765 L 104.95598976522953,-4.867153856925302 L 98.77133219058983,-9.662986494169001 L 98.1872737277588,-6.720389730765043 A 179.72138714999952 179.72138714999952 0 0 0 96.77155425970935,-6.995487983208648"/><text text-anchor="middle" pointer-events="none" font-size="8px" fill="#000000" x="61.20612118526067" y="-6.64818346338518" transform="rotate(180 61.20612118526067 -9.64818346338518)" font-family="sans-serif">CITY_CONNEC…</text></g><g class="relationship" transform="translate(107.34931754665539 164.26632118287904) rotate(308.523488665209)"><path class="outline" fill="#A5ABB6" stroke="none" d="M 14.44320574945421,20.411854586953456 L 15.247803529220876,19.818034401379958 A 35.12393210073227 35.12393210073227 0 0 0 15.903605546676175,20.67855320902043 L 15.117678854633244,21.296872895537405 A 36.12393210073227 36.12393210073227 0 0 1 14.44320574945421,20.411854586953456 Z M 69.07819603858704,24.477907441704495 L 68.37036183457127,23.771528832440772 A 35.12393210073227 35.12393210073227 0 0 0 69.12272728153943,22.99402311631405 L 66.93496374521884,20.941295489680158 L 74.27705233307194,18.23136280267164 L 72.03974532996689,25.730993285159236 L 69.8519817936463,23.678265658525344 A 36.12393210073227 36.12393210073227 0 0 1 69.07819603858704,24.477907441704495"/><text text-anchor="middle" pointer-events="none" font-size="8px" fill="#000000" x="41.41200918790412" y="37.522926675278434" font-family="sans-serif">CITY_CONN…</text></g><g class="relationship" transform="translate(107.34931754665539 164.26632118287904) rotate(308.523488665209)"><path class="outline" fill="#A5ABB6" stroke="none" d="M 20.90208894244944,13.724164012497553 L 21.434121018964774,12.87743981326927 A 41.49058162011811 41.49058162011811 0 0 0 22.044610684400975,13.253716424768704 L 21.52729254154475,14.109509588489814 A 42.49058162011811 42.49058162011811 0 0 1 20.90208894244944,13.724164012497553 Z M 62.64600479410507,15.68319189726651 L 62.19560937116036,14.790362707000838 A 41.49058162011811 41.49058162011811 0 0 0 62.833072611071735,14.461847353131969 L 61.435794201682825,11.807113271033426 L 69.2603318708665,11.643986744907599 L 64.69611049025696,18.001492795930027 L 63.298832080868046,15.346758713831484 A 42.49058162011811 42.49058162011811 0 0 1 62.64600479410507,15.68319189726651"/><text text-anchor="middle" pointer-events="none" font-size="8px" fill="#000000" x="41.90256674688756" y="22.706223419025427" font-family="sans-serif">CITY_C…</text></g><g class="relationship" transform="translate(107.34931754665539 164.26632118287904) rotate(263.52966881519205)"><path class="outline" fill="#A5ABB6" stroke="none" d="M 25 0.5 L 27.564986605131296 0.5 L 27.564986605131296 -0.5 L 25 -0.5 Z M 94.9126428551313 0.5 L 97.47762946026259 0.5 L 97.47762946026259 3.5 L 104.47762946026259 0 L 97.47762946026259 -3.5 L 97.47762946026259 -0.5 L 94.9126428551313 -0.5 Z"/><text text-anchor="middle" pointer-events="none" font-size="8px" fill="#000000" x="61.238814730131296" y="3" transform="rotate(180 61.238814730131296 0)" font-family="sans-serif">CHEAPEST_C…</text></g><g class="relationship" transform="translate(107.34931754665539 164.26632118287904) rotate(263.52966881519205)"><path class="outline" fill="#A5ABB6" stroke="none" d="M 24.299180371029284,5.899138352012538 L 24.515619984967383,4.922842344892605 A 178.72138714999952 178.72138714999952 0 0 0 24.830104703997904,4.992264710722594 L 24.61542472679968,5.968949156892478 A 179.72138714999952 179.72138714999952 0 0 1 24.299180371029284,5.899138352012538 Z M 97.86955582464586,6.783154171941021 L 97.67663750617376,5.801939352241533 A 178.72138714999952 178.72138714999952 0 0 0 97.99258757348179,5.739524142963723 L 97.40852911065075,2.796927379559765 L 104.95598976522953,4.867153856925302 L 98.77133219058983,9.662986494169001 L 98.1872737277588,6.720389730765043 A 179.72138714999952 179.72138714999952 0 0 1 97.86955582464586,6.783154171941021"/><text text-anchor="middle" pointer-events="none" font-size="8px" fill="#000000" x="61.20612118526067" y="12.64818346338518" transform="rotate(180 61.20612118526067 9.64818346338518)" font-family="sans-serif">CHEAPEST_CO…</text></g><g class="relationship" transform="translate(107.34931754665539 164.26632118287904) rotate(308.523488665209)"><path class="outline" fill="#A5ABB6" stroke="none" d="M 24.471206027250748,5.139073415689509 L 24.657117634413662,4.15650694245622 A 101.39939064273787 101.39939064273787 0 0 0 26.87161111072504,4.550123618206825 L 26.70753882096112,5.536571936027698 A 102.39939064273787 102.39939064273787 0 0 1 24.471206027250748,5.139073415689509 Z M 57.628298390614376,5.946090091661844 L 57.49040834080215,4.95564254930396 A 101.39939064273787 101.39939064273787 0 0 0 59.71454946172814,4.620811669215974 L 59.235075925106536,1.6593753407294778 L 66.70447981763355,3.9956128051799915 L 60.35384751055694,8.569393440531302 L 59.874373973935334,5.607957112044805 A 102.39939064273787 102.39939064273787 0 0 1 57.628298390614376,5.946090091661844"/><text text-anchor="middle" pointer-events="none" font-size="8px" fill="#000000" x="42.15899221426451" y="9.415320194342314" font-family="sans-serif">CHE…</text></g><g class="relationship" transform="translate(107.34931754665539 164.26632118287904) rotate(218.43469301499658)"><path class="outline" fill="#A5ABB6" stroke="none" d="M 24.471206027250748,-5.139073415689509 L 24.657117634413662,-4.15650694245622 A 101.8536179565142 101.8536179565142 0 0 1 26.951298578887847,-4.563466129762688 L 26.78791126679174,-5.550028133007302 A 102.8536179565142 102.8536179565142 0 0 0 24.471206027250748,-5.139073415689509 Z M 57.70905981936375,-5.958880691529757 L 57.5718145512268,-4.968343596629197 A 101.8536179565142 101.8536179565142 0 0 1 59.87595353428711,-4.622185348333159 L 59.39635154026156,-1.6607698206966344 L 66.86585676444327,-3.996683283546287 L 60.51542285965452,-8.570739385181858 L 60.03582086562897,-5.609323857545333 A 102.8536179565142 102.8536179565142 0 0 0 57.70905981936375,-5.958880691529757"/><text text-anchor="middle" pointer-events="none" font-size="8px" fill="#000000" x="42.239642727790994" y="-3.4232285202079282" transform="rotate(180 42.239642727790994 -6.423228520207928)" font-family="sans-serif">CHE…</text></g><g class="relationship" transform="translate(164.26595873721533 92.77247651741531) rotate(218.6369406944234)"><path class="outline" fill="#A5ABB6" stroke="none" d="M 24.471206027250748,-5.139073415689509 L 24.657117634413662,-4.15650694245622 A 101.85500926444035 101.85500926444035 0 0 1 26.29804341530215,-4.4530948611028265 L 26.128242216382667,-5.438573198178531 A 102.85500926444035 102.85500926444035 0 0 0 24.471206027250748,-5.139073415689509 Z M 58.37193972845233,-5.864910921690935 L 58.22825403215244,-4.875287548543952 A 101.85500926444035 101.85500926444035 0 0 1 59.87644795723467,-4.622189549354575 L 59.396845570357456,-1.660774085340503 L 66.86635110441371,-3.9966865573100936 L 60.51591780640429,-8.570743501373338 L 60.03631541952708,-5.6093280373592656 A 102.85500926444035 102.85500926444035 0 0 0 58.37193972845233,-5.864910921690935"/><text text-anchor="middle" pointer-events="none" font-size="8px" fill="#000000" x="42.2398897816736" y="-3.4232527437644222" transform="rotate(180 42.2398897816736 -6.423252743764422)" font-family="sans-serif">CITY…</text></g><g class="relationship" transform="translate(164.26595873721533 92.77247651741531) rotate(533.5295041681575)"><path class="outline" fill="#A5ABB6" stroke="none" d="M 24.018736134675446,6.953439040707552 L 24.277555179777966,5.987513214418485 A 150.32139228240342 150.32139228240342 0 0 0 26.02195501794636,6.443728568156814 L 25.774740441187845,7.412689327443843 A 151.32139228240342 151.32139228240342 0 0 1 24.018736134675446,6.953439040707552 Z M 96.6794179850539,8.355787980402681 L 96.4580624774747,7.380594799917731 A 150.32139228240342 150.32139228240342 0 0 0 98.2139792407963,6.97093693697052 L 97.51486946699521,4.0535330355239285 L 105.13777330647186,5.8259147816757455 L 99.14612560586443,10.860808805565975 L 98.44701583206333,7.943404904119384 A 151.32139228240342 151.32139228240342 0 0 1 96.6794179850539,8.355787980402681"/><text text-anchor="middle" pointer-events="none" font-size="8px" fill="#000000" x="61.17770597135824" y="14.596250939691203" transform="rotate(180 61.17770597135824 11.596250939691203)" font-family="sans-serif">CITY_CONNEC…</text></g><g class="relationship" transform="translate(164.26595873721533 92.77247651741531) rotate(488.523488665209)"><path class="outline" fill="#A5ABB6" stroke="none" d="M 24.471206027250748,5.139073415689509 L 24.657117634413662,4.15650694245622 A 101.39939064273787 101.39939064273787 0 0 0 26.218204848356805,4.439249368564617 L 26.04768867112742,5.424604245399905 A 102.39939064273787 102.39939064273787 0 0 1 24.471206027250748,5.139073415689509 Z M 58.290882403100085,5.851636873726122 L 58.146521767786055,4.8621117315636155 A 101.39939064273787 101.39939064273787 0 0 0 59.71454946172814,4.620811669215974 L 59.235075925106536,1.6593753407294778 L 66.70447981763355,3.9956128051799915 L 60.35384751055694,8.569393440531302 L 59.874373973935334,5.607957112044805 A 102.39939064273787 102.39939064273787 0 0 1 58.290882403100085,5.851636873726122"/><text text-anchor="middle" pointer-events="none" font-size="8px" fill="#000000" x="42.15899221426451" y="9.415320194342314" transform="rotate(180 42.15899221426451 6.415320194342314)" font-family="sans-serif">CITY…</text></g><g class="relationship" transform="translate(164.26595873721533 92.77247651741531) rotate(488.523488665209)"><path class="outline" fill="#A5ABB6" stroke="none" d="M 20.90208894244944,13.724164012497553 L 21.434121018964774,12.87743981326927 A 41.49058162011811 41.49058162011811 0 0 0 22.044610684400975,13.253716424768704 L 21.52729254154475,14.109509588489814 A 42.49058162011811 42.49058162011811 0 0 1 20.90208894244944,13.724164012497553 Z M 62.64600479410507,15.68319189726651 L 62.19560937116036,14.790362707000838 A 41.49058162011811 41.49058162011811 0 0 0 62.833072611071735,14.461847353131969 L 61.435794201682825,11.807113271033426 L 69.2603318708665,11.643986744907599 L 64.69611049025696,18.001492795930027 L 63.298832080868046,15.346758713831484 A 42.49058162011811 42.49058162011811 0 0 1 62.64600479410507,15.68319189726651"/><text text-anchor="middle" pointer-events="none" font-size="8px" fill="#000000" x="41.90256674688756" y="22.706223419025427" transform="rotate(180 41.90256674688756 19.706223419025427)" font-family="sans-serif">CITY_C…</text></g><g class="relationship" transform="translate(164.26595873721533 92.77247651741531) rotate(533.5295041681575)"><path class="outline" fill="#A5ABB6" stroke="none" d="M 21.40063509461097,12.933012701892217 L 21.90063509461097,12.06698729810778 A 82.56591858836019 82.56591858836019 0 0 0 22.00712120601574,12.128361452457725 L 21.508410916264538,12.995130191451167 A 83.56591858836019 83.56591858836019 0 0 1 21.40063509461097,12.933012701892217 Z M 101.06413755542354,15.049898490683105 L 100.61083621192694,14.158541159426917 A 82.56591858836019 82.56591858836019 0 0 0 100.72034858137228,14.102745821962742 L 99.35646546224692,11.430701129715837 L 107.18243338313596,11.365692659378041 L 102.53885940687277,17.665472078291952 L 101.17497628774741,14.993427386045045 A 83.56591858836019 83.56591858836019 0 0 1 101.06413755542354,15.049898490683105"/><text text-anchor="middle" pointer-events="none" font-size="8px" fill="#000000" x="61.03887995675987" y="26.601030637171505" transform="rotate(180 61.03887995675987 23.601030637171505)" font-family="sans-serif">CITY_CONNECTION</text></g><g class="relationship" transform="translate(164.26595873721533 92.77247651741531) rotate(218.6369406944234)"><path class="outline" fill="#A5ABB6" stroke="none" d="M 24.471206027250748,5.139073415689509 L 24.657117634413662,4.15650694245622 A 101.85500926444035 101.85500926444035 0 0 0 26.29804341530216,4.453094861102841 L 26.128242216382677,5.4385731981785455 A 102.85500926444035 102.85500926444035 0 0 1 24.471206027250748,5.139073415689509 Z M 58.37193972845237,5.864910921690935 L 58.22825403215248,4.875287548543952 A 101.85500926444035 101.85500926444035 0 0 0 59.87644795723467,4.622189549354575 L 59.396845570357456,1.660774085340503 L 66.86635110441371,3.9966865573100936 L 60.51591780640429,8.570743501373338 L 60.03631541952708,5.6093280373592656 A 102.85500926444035 102.85500926444035 0 0 1 58.37193972845237,5.864910921690935"/><text text-anchor="middle" pointer-events="none" font-size="8px" fill="#000000" x="42.23988978167362" y="9.423252743764422" transform="rotate(180 42.23988978167362 6.423252743764422)" font-family="sans-serif">CITY…</text></g><g class="relationship" transform="translate(164.26595873721533 92.77247651741531) rotate(533.5295041681575)"><path class="outline" fill="#A5ABB6" stroke="none" d="M 17.324116139070416,18.03122292025696 L 18.031222920256962,17.324116139070412 A 63.85509610410891 63.85509610410891 0 0 0 23.16156452072365,21.928256040451544 L 22.534801234629526,22.70746575753963 A 64.85509610410891 64.85509610410891 0 0 1 17.324116139070416,18.03122292025696 Z M 100.00498165869504,25.560591166718964 L 99.43723310103665,24.737389140921636 A 63.85509610410891 63.85509610410891 0 0 0 104.89234599344094,20.523097682076752 L 102.93281163442995,18.251484797834493 L 110.51936511650803,16.32945299175817 L 107.50505847212224,23.55191486106643 L 105.54552411311126,21.28030197682417 A 64.85509610410891 64.85509610410891 0 0 1 100.00498165869504,25.560591166718964"/><text text-anchor="middle" pointer-events="none" font-size="8px" fill="#000000" x="60.815086101596144" y="39.48324102276389" transform="rotate(180 60.815086101596144 36.48324102276389)" font-family="sans-serif">CITY_CONNECTION</text></g><g class="relationship" transform="translate(164.26595873721533 92.77247651741531) rotate(218.6369406944234)"><path class="outline" fill="#A5ABB6" stroke="none" d="M 20.90208894244944,13.724164012497553 L 21.434121018964774,12.87743981326927 A 41.64979155115995 41.64979155115995 0 0 0 22.11730736767512,13.297593917498268 L 21.601678406836154,14.154405900808563 A 42.64979155115995 42.64979155115995 0 0 1 20.90208894244944,13.724164012497553 Z M 62.732096158801696,15.725924852837792 L 62.283349532889474,14.83226582069387 A 41.64979155115995 41.64979155115995 0 0 0 62.9966039236553,14.465467194172552 L 61.59898892271619,11.810910299105132 L 69.4235058456358,11.646791674492544 L 64.8600905915741,18.00487638759578 L 63.462475590634995,15.350319492528358 A 42.64979155115995 42.64979155115995 0 0 1 62.732096158801696,15.725924852837792"/><text text-anchor="middle" pointer-events="none" font-size="8px" fill="#000000" x="41.983852968954054" y="22.73061208603135" transform="rotate(180 41.983852968954054 19.73061208603135)" font-family="sans-serif">CITY_C…</text></g><g class="relationship" transform="translate(164.26595873721533 92.77247651741531) rotate(488.523488665209)"><path class="outline" fill="#A5ABB6" stroke="none" d="M 14.44320574945421,20.411854586953456 L 15.247803529220876,19.818034401379958 A 35.12393210073227 35.12393210073227 0 0 0 15.903605546676175,20.67855320902043 L 15.117678854633244,21.296872895537405 A 36.12393210073227 36.12393210073227 0 0 1 14.44320574945421,20.411854586953456 Z M 69.07819603858704,24.477907441704495 L 68.37036183457127,23.771528832440772 A 35.12393210073227 35.12393210073227 0 0 0 69.12272728153943,22.99402311631405 L 66.93496374521884,20.941295489680158 L 74.27705233307194,18.23136280267164 L 72.03974532996689,25.730993285159236 L 69.8519817936463,23.678265658525344 A 36.12393210073227 36.12393210073227 0 0 1 69.07819603858704,24.477907441704495"/><text text-anchor="middle" pointer-events="none" font-size="8px" fill="#000000" x="41.41200918790412" y="37.522926675278434" transform="rotate(180 41.41200918790412 34.522926675278434)" font-family="sans-serif">CITY_CONN…</text></g><g class="relationship" transform="translate(164.26595873721533 92.77247651741531) rotate(488.523488665209)"><path class="outline" fill="#A5ABB6" stroke="none" d="M 5.987513214418485,24.277555179777966 L 6.953439040707552,24.018736134675446 A 37.84452312852657 37.84452312852657 0 0 0 7.570703620551569,26.08500536632546 L 6.621088333511409,26.39842330872767 A 38.84452312852657 38.84452312852657 0 0 1 5.987513214418485,24.277555179777966 Z M 78.25216128202885,31.595407127219943 L 77.35773094360185,31.148199826629533 A 37.84452312852657 37.84452312852657 0 0 0 78.26678556543851,29.192668238106624 L 75.51143223730318,28.00606466608538 L 81.49475278817731,22.96127773446107 L 81.94059000295229,30.77480633413495 L 79.18523667481696,29.588202762113706 A 38.84452312852657 38.84452312852657 0 0 1 78.25216128202885,31.595407127219943"/><text text-anchor="middle" pointer-events="none" font-size="8px" fill="#000000" x="40.73375925404778" y="55.467853546889145" transform="rotate(180 40.73375925404778 52.467853546889145)" font-family="sans-serif">CHEAPEST_CONNE…</text></g><g class="relationship" transform="translate(164.26595873721533 92.77247651741531) rotate(533.5295041681575)"><path class="outline" fill="#A5ABB6" stroke="none" d="M 12.066987298107785,21.900635094610966 L 12.933012701892222,21.400635094610966 A 58.02437372773282 58.02437372773282 0 0 0 15.561327445969468,25.53882737974129 L 14.740598778284415,26.110145552076037 A 59.02437372773282 59.02437372773282 0 0 1 12.066987298107785,21.900635094610966 Z M 108.35669145084731,30.378815375234407 L 107.59136190630305,29.735176743510305 A 58.02437372773282 58.02437372773282 0 0 0 110.5853703760985,25.85334894395006 L 108.13458428697686,24.123132903864935 L 115.03100548448406,20.423217409347085 L 113.85308516159401,28.160303664063562 L 111.40229907247237,26.430087623978437 A 59.02437372773282 59.02437372773282 0 0 1 108.35669145084731,30.378815375234407"/><text text-anchor="middle" pointer-events="none" font-size="8px" fill="#000000" x="60.517792833475724" y="53.85207643060075" transform="rotate(180 60.517792833475724 50.85207643060075)" font-family="sans-serif">CHEAPEST_CONNECTION</text></g><g class="relationship" transform="translate(164.26595873721533 92.77247651741531) rotate(218.6369406944234)"><path class="outline" fill="#A5ABB6" stroke="none" d="M 14.44320574945421,20.411854586953456 L 15.247803529220876,19.818034401379958 A 35.22920804399751 35.22920804399751 0 0 0 15.556023345011504,20.229343441852166 L 14.760174550331463,20.8348388555477 A 36.22920804399751 36.22920804399751 0 0 1 14.44320574945421,20.411854586953456 Z M 69.65398477232097,24.065424461743973 L 68.93465249665232,23.370758299345542 A 35.22920804399751 35.22920804399751 0 0 0 69.28898988854527,22.998441774965166 L 67.10081888974553,20.946148501572754 L 74.4423693595942,18.234758323331178 L 72.20655122027826,25.73483280615505 L 70.01838022147851,23.68253953276264 A 36.22920804399751 36.22920804399751 0 0 1 69.65398477232097,24.065424461743973"/><text text-anchor="middle" pointer-events="none" font-size="8px" fill="#000000" x="41.49405892471035" y="37.56571371443871" transform="rotate(180 41.49405892471035 34.56571371443871)" font-family="sans-serif">CHEAPEST_…</text></g><g class="relationship" transform="translate(92.75865067519288 35.61342004615741) rotate(488.52322358605437)"><path class="outline" fill="#A5ABB6" stroke="none" d="M 5.987513214418485,-24.277555179777966 L 6.953439040707552,-24.018736134675446 A 38.01975766392716 38.01975766392716 0 0 1 9.09374333383606,-29.972534874959912 L 8.184112035041025,-30.387951413210935 A 39.01975766392716 39.01975766392716 0 0 0 5.987513214418485,-24.277555179777966 Z M 76.47039983577938,-35.32514496153951 L 75.62998726221414,-34.78319781818192 A 38.01975766392716 38.01975766392716 0 0 1 78.60448980174756,-29.199206723157957 L 75.8485449664648,-28.013977604009142 L 81.82934855230859,-22.96620696068965 L 82.2790829154579,-30.779512215356377 L 79.52313808017514,-29.594283096207562 A 39.01975766392716 39.01975766392716 0 0 0 76.47039983577938,-35.32514496153951"/><text text-anchor="middle" pointer-events="none" font-size="8px" fill="#000000" x="40.89992379250356" y="-49.597968600347365" transform="rotate(180 40.89992379250356 -52.597968600347365)" font-family="sans-serif">CITY_CONNECTION</text></g><g class="relationship" transform="translate(92.75865067519288 35.61342004615741) rotate(443.52966881519205)"><path class="outline" fill="#A5ABB6" stroke="none" d="M 22.446385545045896,-11.018610437035811 L 22.869003806786598,-10.112302649999162 A 95.42655362146431 95.42655362146431 0 0 1 23.35848799761157,-10.33887093665524 L 22.94099916968409,-11.247552992467803 A 96.42655362146431 96.42655362146431 0 0 0 22.446385545045896,-11.018610437035811 Z M 99.60170714871037,-12.9172962355712 L 99.22417940599519,-11.991297961555318 A 95.42655362146431 95.42655362146431 0 0 1 99.7230644508787,-11.786257298326172 L 98.5747973792132,-9.014708501691205 L 106.38138948830454,-9.568892263879166 L 101.25408721309937,-15.481655693839462 L 100.10582014143387,-12.710106897204495 A 96.42655362146431 96.42655362146431 0 0 0 99.60170714871037,-12.9172962355712"/><text text-anchor="middle" pointer-events="none" font-size="8px" fill="#000000" x="61.10913174231234" y="-16.53028147412121" font-family="sans-serif">CITY_CONNECTI…</text></g><g class="relationship" transform="translate(92.75865067519288 35.61342004615741) rotate(488.52322358605437)"><path class="outline" fill="#A5ABB6" stroke="none" d="M 14.44320574945421,-20.411854586953456 L 15.247803529220876,-19.818034401379958 A 35.33430250897584 35.33430250897584 0 0 1 16.02064975403172,-20.826724899055606 L 15.237924380678468,-21.44909214587135 A 36.33430250897584 36.33430250897584 0 0 0 14.44320574945421,-20.411854586953456 Z M 69.27379132783233,-24.623830810686265 L 68.56933067542369,-23.914087766191987 A 35.33430250897584 35.33430250897584 0 0 1 69.45497807388537,-23.002837804379325 L 67.26640170197675,-20.95097682850321 L 74.60741641291442,-18.238136432571885 L 72.37307990309688,-25.73865243888081 L 70.18450353118826,-23.686791463004695 A 36.33430250897584 36.33430250897584 0 0 0 69.27379132783233,-24.623830810686265"/><text text-anchor="middle" pointer-events="none" font-size="8px" fill="#000000" x="41.57597671063769" y="-31.608427203699165" transform="rotate(180 41.57597671063769 -34.608427203699165)" font-family="sans-serif">CITY_CONN…</text></g><g class="relationship" transform="translate(92.75865067519288 35.61342004615741) rotate(488.52322358605437)"><path class="outline" fill="#A5ABB6" stroke="none" d="M 20.90208894244944,-13.724164012497553 L 21.434121018964774,-12.87743981326927 A 41.8087270306543 41.8087270306543 0 0 1 22.189977734591896,-13.34126807423656 L 21.676024580093795,-14.199086327120845 A 42.8087270306543 42.8087270306543 0 0 0 20.90208894244944,-13.724164012497553 Z M 62.81799135603591,-15.768447183598063 L 62.37087956818052,-14.873969096018072 A 41.8087270306543 41.8087270306543 0 0 1 63.15987393064768,-14.46906919946883 L 61.7619239974567,-11.814688672059217 L 69.58642015013527,-11.649582776591483 L 65.02380717490232,-18.008243236014984 L 63.62585724171133,-15.35386270860537 A 42.8087270306543 42.8087270306543 0 0 0 62.81799135603591,-15.768447183598063"/><text text-anchor="middle" pointer-events="none" font-size="8px" fill="#000000" x="42.06501077837201" y="-16.754958989926386" transform="rotate(180 42.06501077837201 -19.754958989926386)" font-family="sans-serif">CITY_C…</text></g><g class="relationship" transform="translate(92.75865067519288 35.61342004615741) rotate(443.52966881519205)"><path class="outline" fill="#A5ABB6" stroke="none" d="M 19.529452792776517,-15.615712395363635 L 20.13821422178524,-14.822359055072399 A 70.73344622133315 70.73344622133315 0 0 1 22.661284563186157,-16.671202470673478 L 22.088193251727006,-17.490693989073776 A 71.73344622133315 71.73344622133315 0 0 0 19.529452792776517,-15.615712395363635 Z M 100.51942484988169,-19.965837517869346 L 99.99914569429043,-19.11184126479955 A 70.73344622133315 70.73344622133315 0 0 1 102.63377151011973,-17.425765129616384 L 100.9611923162038,-14.93528749669543 L 108.72364918592127,-13.938159949299388 L 104.86387710200762,-20.74640197351099 L 103.1912979080917,-18.255924340590038 A 71.73344622133315 71.73344622133315 0 0 0 100.51942484988169,-19.965837517869346"/><text text-anchor="middle" pointer-events="none" font-size="8px" fill="#000000" x="60.951131759871934" y="-26.90374465508898" font-family="sans-serif">CITY_CONNECTION</text></g><g class="relationship" transform="translate(92.75865067519288 35.61342004615741) rotate(443.52966881519205)"><path class="outline" fill="#A5ABB6" stroke="none" d="M 15.686668020603996,-19.47250488281772 L 16.452712463722975,-18.829717273131184 A 61.021649564021814 61.021649564021814 0 0 1 23.41807086842011,-25.878841147809673 L 22.766172117108255,-26.637147166536977 A 62.021649564021814 62.021649564021814 0 0 0 15.686668020603996,-19.47250488281772 Z M 99.7417589948276,-29.718023767423162 L 99.15254940060503,-28.91004353618228 A 61.021649564021814 61.021649564021814 0 0 1 106.65899435380277,-22.440140192927483 L 104.52232712296973,-20.33427857717864 L 111.92878266235556,-17.805560256941895 L 109.50788399491347,-25.247955680592607 L 107.37121676408043,-23.142094064843764 A 62.021649564021814 62.021649564021814 0 0 0 99.7417589948276,-29.718023767423162"/><text text-anchor="middle" pointer-events="none" font-size="8px" fill="#000000" x="60.737630838194214" y="-38.078189118077646" font-family="sans-serif">CITY_CONNECTION</text></g><g class="relationship" transform="translate(92.75865067519288 35.61342004615741) rotate(488.52322358605437)"><path class="outline" fill="#A5ABB6" stroke="none" d="M 24.471206027250748,-5.139073415689509 L 24.657117634413662,-4.15650694245622 A 102.30984247511356 102.30984247511356 0 0 1 27.031360096960025,-4.576821558979873 L 26.868654883288762,-5.563496284228364 A 103.30984247511356 103.30984247511356 0 0 0 24.471206027250748,-5.139073415689509 Z M 57.79018604281429,-5.971682295884619 L 57.65358259025683,-4.981056485222808 A 102.30984247511356 102.30984247511356 0 0 1 60.03809269771848,-4.623560757647095 L 59.55836208458168,-1.6621660627745265 L 67.02796875461061,-3.9977551094733257 L 60.677733515234216,-8.572087017477186 L 60.198002902097414,-5.610692322604617 A 103.30984247511356 103.30984247511356 0 0 0 57.79018604281429,-5.971682295884619"/><text text-anchor="middle" pointer-events="none" font-size="8px" fill="#000000" x="42.320660706872005" y="-3.431171740018229" transform="rotate(180 42.320660706872005 -6.431171740018229)" font-family="sans-serif">CHE…</text></g><g class="relationship" transform="translate(92.75865067519288 35.61342004615741) rotate(443.52966881519205)"><path class="outline" fill="#A5ABB6" stroke="none" d="M 11.10020991428674,-22.406145136073057 L 11.987220747464963,-21.944396522838026 A 57.734117058343834 57.734117058343834 0 0 1 15.624827613506639,-27.996920106567806 L 14.800822972358091,-28.56350315552502 A 58.734117058343834 58.734117058343834 0 0 0 11.10020991428674,-22.406145136073057 Z M 108.27665146861293,-32.936942061734925 L 107.50914791694402,-32.295897368928266 A 57.734117058343834 57.734117058343834 0 0 1 111.69598395018824,-26.609454766192666 L 109.17591548465774,-24.98180156939711 L 115.91385282029961,-21.000570546087445 L 115.05607523756223,-28.77965902858674 L 112.53600677203173,-27.152005831791183 A 58.734117058343834 58.734117058343834 0 0 0 108.27665146861293,-32.936942061734925"/><text text-anchor="middle" pointer-events="none" font-size="8px" fill="#000000" x="60.47639472301748" y="-50.45623205044552" font-family="sans-serif">CHEAPEST_CONNECTION</text></g><g class="relationship" transform="translate(92.75865067519288 35.61342004615741) rotate(398.6369406944234)"><path class="outline" fill="#A5ABB6" stroke="none" d="M 5.987513214418485,-24.277555179777966 L 6.953439040707552,-24.018736134675446 A 37.932215980201754 37.932215980201754 0 0 1 7.605761346185794,-26.19119989553765 L 6.657032572286674,-26.507291201295764 A 38.932215980201754 38.932215980201754 0 0 0 5.987513214418485,-24.277555179777966 Z M 78.37050171885755,-31.701241289901866 L 77.47722208555376,-31.2517399031135 A 37.932215980201754 37.932215980201754 0 0 1 78.43578192971131,-29.195946575064053 L 75.68013202171191,-28.010031913487197 L 81.66219112472386,-22.96374923332828 L 82.10998180704384,-30.77716612383319 L 79.35433189904444,-29.591251462256334 A 38.932215980201754 38.932215980201754 0 0 0 78.37050171885755,-31.701241289901866"/><text text-anchor="middle" pointer-events="none" font-size="8px" fill="#000000" x="40.816910122387554" y="-49.5329672732101" font-family="sans-serif">CHEAPEST_CONNE…</text></g><g class="relationship" transform="translate(92.75865067519288 35.61342004615741) rotate(443.52966881519205)"><path class="outline" fill="#A5ABB6" stroke="none" d="M 5.987513214418485,-24.277555179777966 L 6.953439040707552,-24.018736134675446 A 58.22866254396614 58.22866254396614 0 0 1 15.318465775453568,-42.08604223458336 L 14.496198181541551,-42.65514328360905 A 59.22866254396614 59.22866254396614 0 0 0 5.987513214418485,-24.277555179777966 Z M 108.17946958879907,-47.47988784791512 L 107.42001530375231,-46.82932717516883 A 58.22866254396614 58.22866254396614 0 0 1 117.59681749092397,-29.716936365467067 L 114.79413542205519,-28.646902150667646 L 120.56067767026741,-23.35568390723982 L 121.33372691608234,-31.143648651866297 L 118.53104484721356,-30.073614437066876 A 59.22866254396614 59.22866254396614 0 0 0 108.17946958879907,-47.47988784791512"/><text text-anchor="middle" pointer-events="none" font-size="8px" fill="#000000" x="60.17744981945515" y="-64.59898306961443" font-family="sans-serif">CHEAPEST_CONNECTION</text></g><g class="relationship" transform="translate(35.64107714487123 107.36034003646205) rotate(398.4346930149966)"><path class="outline" fill="#A5ABB6" stroke="none" d="M 24.471206027250748,-5.139073415689509 L 24.657117634413662,-4.15650694245622 A 101.8536179565142 101.8536179565142 0 0 1 26.29779957697163,-4.453052657495476 L 26.127996204110797,-5.438530619991383 A 102.8536179565142 102.8536179565142 0 0 0 24.471206027250748,-5.139073415689509 Z M 58.3716921926914,-5.86487046240498 L 58.22800444458639,-4.875247387166482 A 101.8536179565142 101.8536179565142 0 0 1 59.87595353428711,-4.622185348333159 L 59.39635154026156,-1.6607698206966344 L 66.86585676444327,-3.996683283546287 L 60.51542285965452,-8.570739385181858 L 60.03582086562897,-5.609323857545333 A 102.8536179565142 102.8536179565142 0 0 0 58.3716921926914,-5.86487046240498"/><text text-anchor="middle" pointer-events="none" font-size="8px" fill="#000000" x="42.239642727790994" y="-3.4232285202079282" font-family="sans-serif">CITY…</text></g><g class="relationship" transform="translate(35.64107714487123 107.36034003646205) rotate(308.52322358605437)"><path class="outline" fill="#A5ABB6" stroke="none" d="M 24.471206027250748,-5.139073415689509 L 24.657117634413662,-4.15650694245622 A 102.30984247511356 102.30984247511356 0 0 1 26.377769081656957,-4.466866948616129 L 26.208675518639325,-5.452466952139872 A 103.30984247511356 103.30984247511356 0 0 0 24.471206027250748,-5.139073415689509 Z M 58.452866253563876,-5.878113002695102 L 58.309848308496576,-4.888392907219242 A 102.30984247511356 102.30984247511356 0 0 1 60.03809269771848,-4.623560757647095 L 59.55836208458168,-1.6621660627745265 L 67.02796875461061,-3.9977551094733257 L 60.677733515234216,-8.572087017477186 L 60.198002902097414,-5.610692322604617 A 103.30984247511356 103.30984247511356 0 0 0 58.452866253563876,-5.878113002695102"/><text text-anchor="middle" pointer-events="none" font-size="8px" fill="#000000" x="42.320660706872005" y="-3.431171740018229" font-family="sans-serif">CITY…</text></g><g class="relationship" transform="translate(35.64107714487123 107.36034003646205) rotate(308.52322358605437)"><path class="outline" fill="#A5ABB6" stroke="none" d="M 20.90208894244944,-13.724164012497553 L 21.434121018964774,-12.87743981326927 A 41.8087270306543 41.8087270306543 0 0 1 22.189977734591896,-13.34126807423656 L 21.676024580093795,-14.199086327120845 A 42.8087270306543 42.8087270306543 0 0 0 20.90208894244944,-13.724164012497553 Z M 62.81799135603591,-15.768447183598063 L 62.37087956818052,-14.873969096018072 A 41.8087270306543 41.8087270306543 0 0 1 63.15987393064768,-14.46906919946883 L 61.7619239974567,-11.814688672059217 L 69.58642015013527,-11.649582776591483 L 65.02380717490232,-18.008243236014984 L 63.62585724171133,-15.35386270860537 A 42.8087270306543 42.8087270306543 0 0 0 62.81799135603591,-15.768447183598063"/><text text-anchor="middle" pointer-events="none" font-size="8px" fill="#000000" x="42.06501077837201" y="-16.754958989926386" font-family="sans-serif">CITY_C…</text></g><g class="relationship" transform="translate(35.64107714487123 107.36034003646205) rotate(398.4346930149966)"><path class="outline" fill="#A5ABB6" stroke="none" d="M 20.90208894244944,-13.724164012497553 L 21.434121018964774,-12.87743981326927 A 41.64930537691594 41.64930537691594 0 0 1 22.117085224413547,-13.297460125727902 L 21.60145112138824,-14.154269014452389 A 42.64930537691594 42.64930537691594 0 0 0 20.90208894244944,-13.724164012497553 Z M 62.73183333770809,-15.725794570354985 L 62.283081693935706,-14.832138057923288 A 41.64930537691594 41.64930537691594 0 0 1 62.996104521864034,-14.46545615810382 L 61.598490547114416,-11.810898722751443 L 69.42300753347784,-11.646783122913451 L 64.85958982153018,-18.00486607190699 L 63.46197584678057,-15.350308636554612 A 42.64930537691594 42.64930537691594 0 0 0 62.73183333770809,-15.725794570354985"/><text text-anchor="middle" pointer-events="none" font-size="8px" fill="#000000" x="41.98360472993087" y="-16.73053761071666" font-family="sans-serif">CITY_C…</text></g><g class="relationship" transform="translate(35.64107714487123 107.36034003646205) rotate(308.52322358605437)"><path class="outline" fill="#A5ABB6" stroke="none" d="M 14.44320574945421,-20.411854586953456 L 15.247803529220876,-19.818034401379958 A 35.33430250897584 35.33430250897584 0 0 1 16.02064975403172,-20.826724899055606 L 15.237924380678468,-21.44909214587135 A 36.33430250897584 36.33430250897584 0 0 0 14.44320574945421,-20.411854586953456 Z M 69.27379132783233,-24.623830810686265 L 68.56933067542369,-23.914087766191987 A 35.33430250897584 35.33430250897584 0 0 1 69.45497807388537,-23.002837804379325 L 67.26640170197675,-20.95097682850321 L 74.60741641291442,-18.238136432571885 L 72.37307990309688,-25.73865243888081 L 70.18450353118826,-23.686791463004695 A 36.33430250897584 36.33430250897584 0 0 0 69.27379132783233,-24.623830810686265"/><text text-anchor="middle" pointer-events="none" font-size="8px" fill="#000000" x="41.57597671063769" y="-31.608427203699165" font-family="sans-serif">CITY_CONN…</text></g><g class="relationship" transform="translate(35.64107714487123 107.36034003646205) rotate(398.4346930149966)"><path class="outline" fill="#A5ABB6" stroke="none" d="M 14.44320574945421,-20.411854586953456 L 15.247803529220876,-19.818034401379958 A 35.22888656623671 35.22888656623671 0 0 1 15.961902033416546,-20.752542636620607 L 15.177574508369766,-21.372889582654835 A 36.22888656623671 36.22888656623671 0 0 0 14.44320574945421,-20.411854586953456 Z M 69.17584585206053,-24.55078773883106 L 68.46969777982483,-23.8427235467709 A 35.22888656623671 35.22888656623671 0 0 1 69.28848215913786,-22.998428304796807 L 67.10031240247308,-20.946133707031276 L 74.44186451336823,-18.234747972206563 L 72.20604183469091,-25.734821101817513 L 70.01787207802613,-23.68252650405198 A 36.22888656623671 36.22888656623671 0 0 0 69.17584585206053,-24.55078773883106"/><text text-anchor="middle" pointer-events="none" font-size="8px" fill="#000000" x="41.493808357562465" y="-31.56558305671531" font-family="sans-serif">CITY_CONN…</text></g><g class="relationship" transform="translate(35.64107714487123 107.36034003646205) rotate(353.5295041681575)"><path class="outline" fill="#A5ABB6" stroke="none" d="M 5.987513214418485,-24.277555179777966 L 6.953439040707552,-24.018736134675446 A 58.213740452629715 58.213740452629715 0 0 1 15.308263329271256,-42.069765416799086 L 14.485857301291013,-42.63866639688416 A 59.213740452629715 59.213740452629715 0 0 0 5.987513214418485,-24.277555179777966 Z M 108.162245489858,-47.46409135614001 L 107.40264728246137,-46.813698733703504 A 58.213740452629715 58.213740452629715 0 0 1 117.56800566349713,-29.716674547548724 L 114.76534717504488,-28.646578571896757 L 120.5320060214271,-23.355487403768795 L 121.30488364810013,-31.143469181751346 L 118.50222515964788,-30.07337320609938 A 59.213740452629715 59.213740452629715 0 0 0 108.162245489858,-47.46409135614001"/><text text-anchor="middle" pointer-events="none" font-size="8px" fill="#000000" x="60.163157601293626" y="-64.58790957318345" font-family="sans-serif">CHEAPEST_CONNECTION</text></g><g class="relationship" transform="translate(35.64107714487123 107.36034003646205) rotate(398.4346930149966)"><path class="outline" fill="#A5ABB6" stroke="none" d="M 5.987513214418485,-24.277555179777966 L 6.953439040707552,-24.018736134675446 A 37.93194819536201 37.93194819536201 0 0 1 7.605653851845233,-26.190875738726028 L 6.656922365477186,-26.50695890305763 A 38.93194819536201 38.93194819536201 0 0 0 5.987513214418485,-24.277555179777966 Z M 78.37014068627182,-31.700918298716417 L 77.47685753825951,-31.25142389666315 A 37.93194819536201 37.93194819536201 0 0 1 78.43526586662182,-29.195936583280236 L 75.67961686253386,-28.010019821332314 L 81.6616798118483,-22.96374170073299 L 82.1094645387391,-30.777158932544133 L 79.35381553465115,-29.59124217059621 A 38.93194819536201 38.93194819536201 0 0 0 78.37014068627182,-31.700918298716417"/><text text-anchor="middle" pointer-events="none" font-size="8px" fill="#000000" x="40.81665619786823" y="-49.53276843775352" font-family="sans-serif">CHEAPEST_CONNE…</text></g><g class="relationship" transform="translate(35.64107714487123 107.36034003646205) rotate(308.52322358605437)"><path class="outline" fill="#A5ABB6" stroke="none" d="M 5.987513214418485,-24.277555179777966 L 6.953439040707552,-24.018736134675446 A 38.01975766392716 38.01975766392716 0 0 1 7.641046030124912,-26.297128714091222 L 6.693205721252745,-26.61587430053457 A 39.01975766392716 39.01975766392716 0 0 0 5.987513214418485,-24.277555179777966 Z M 78.48841612741751,-31.806767831788687 L 77.59628574696535,-31.354989806344488 A 38.01975766392716 38.01975766392716 0 0 1 78.60448980174756,-29.199206723157957 L 75.8485449664648,-28.013977604009142 L 81.82934855230859,-22.96620696068965 L 82.2790829154579,-30.779512215356377 L 79.52313808017514,-29.594283096207562 A 39.01975766392716 39.01975766392716 0 0 0 78.48841612741751,-31.806767831788687"/><text text-anchor="middle" pointer-events="none" font-size="8px" fill="#000000" x="40.89992379250356" y="-49.597968600347365" font-family="sans-serif">CHEAPEST_CONNE…</text></g></g><g class="layer nodes"><g class="node" transform="translate(107.34931754665539,164.26632118287904)"><circle class="outline" cx="0" cy="0" r="25" fill="#ECB5C9" stroke="#da7298" stroke-width="2px"/><text text-anchor="middle" pointer-events="none" font-family="sans-serif" dy="1.5625" font-size="25" fill="#2A2C34"/><text text-anchor="middle" pointer-events="none" x="0" y="5" font-size="10px" fill="#2A2C34" font-family="sans-serif"> PDX</text></g><g class="node" transform="translate(164.26595873721533,92.77247651741531)"><circle class="outline" cx="0" cy="0" r="25" fill="#ECB5C9" stroke="#da7298" stroke-width="2px"/><text text-anchor="middle" pointer-events="none" font-family="sans-serif" dy="1.5625" font-size="25" fill="#2A2C34"/><text text-anchor="middle" pointer-events="none" x="0" y="5" font-size="10px" fill="#2A2C34" font-family="sans-serif"> ORD</text></g><g class="node" transform="translate(92.75865067519288,35.61342004615741)"><circle class="outline" cx="0" cy="0" r="25" fill="#ECB5C9" stroke="#da7298" stroke-width="2px"/><text text-anchor="middle" pointer-events="none" font-family="sans-serif" dy="1.5625" font-size="25" fill="#2A2C34"/><text text-anchor="middle" pointer-events="none" x="0" y="5" font-size="10px" fill="#2A2C34" font-family="sans-serif"> SFO</text></g><g class="node" transform="translate(35.64107714487123,107.36034003646205)"><circle class="outline" cx="0" cy="0" r="25" fill="#ECB5C9" stroke="#da7298" stroke-width="2px"/><text text-anchor="middle" pointer-events="none" font-family="sans-serif" dy="1.5625" font-size="25" fill="#2A2C34"/><text text-anchor="middle" pointer-events="none" x="0" y="5" font-size="10px" fill="#2A2C34" font-family="sans-serif"> IAD</text></g></g></svg>