<svg xmlns="http://www.w3.org/2000/svg" width="223.5801239013672" height="225.89236450195312" viewBox="-12.99738883972168 -12.945598602294922 223.5801239013672 225.89236450195312"><title>Neo4j Graph Visualization</title><desc>Created using Neo4j (http://www.neo4j.com/)</desc><g class="layer relationships"><g class="relationship" transform="translate(108.18408725356804 164.21031575772952) rotate(262.76352278859156)"><path class="outline" fill="#A5ABB6" stroke="none" d="M 5.987513214418485,-24.277555179777966 L 6.953439040707552,-24.018736134675446 A 58.24718323028832 58.24718323028832 0 0 1 15.331132666477096,-42.106241762113044 L 14.509036861850149,-42.67559094145272 A 59.24718323028832 59.24718323028832 0 0 0 5.987513214418485,-24.277555179777966 Z M 108.20084447575348,-47.49949106034288 L 107.44156877028297,-46.84872197450503 A 58.24718323028832 58.24718323028832 0 0 1 117.63257757031052,-29.717261150990627 L 114.82986624998459,-28.647303556075332 L 120.59626384516719,-23.355927669382687 L 121.36952599741174,-31.143871277544353 L 118.56681467708582,-30.07391368262906 A 59.24718323028832 59.24718323028832 0 0 0 108.20084447575348,-47.49949106034288"/><text text-anchor="middle" pointer-events="none" font-size="8px" fill="#000000" x="60.195188814900426" y="-64.61272703244374" transform="rotate(180 60.195188814900426 -67.61272703244374)" font-family="sans-serif">CHEAPEST_CONNECTION</text></g><g class="relationship" transform="translate(91.87005679142761 35.729344222946025) rotate(397.8049219462075)"><path class="outline" fill="#A5ABB6" stroke="none" d="M 5.987513214418485,24.277555179777966 L 6.953439040707552,24.018736134675446 A 37.92862799563048 37.92862799563048 0 0 0 7.604321278608886,26.186856532311857 L 6.655556163695302,26.50283874181585 A 38.92862799563048 38.92862799563048 0 0 1 5.987513214418485,24.277555179777966 Z M 78.36566415775654,31.696913511586395 L 77.47233743213286,31.247505722060588 A 37.92862799563048 37.92862799563048 0 0 0 78.42886732686722,29.195812687822293 L 75.6732295310458,28.009869882185974 L 81.65534017265553,22.963648298511732 L 82.10305105462909,30.777069762004054 L 79.34741325880768,29.591126956367734 A 38.92862799563048 38.92862799563048 0 0 1 78.36566415775654,31.696913511586395"/><text text-anchor="middle" pointer-events="none" font-size="8px" fill="#000000" x="40.81350785367984" y="55.530303124697795" font-family="sans-serif">CHEAPEST_CONNE…</text></g><g class="relationship" transform="translate(108.18408725356804 164.21031575772952) rotate(262.76352278859156)"><path class="outline" fill="#A5ABB6" stroke="none" d="M 11.10020991428674,-22.406145136073057 L 11.987220747464963,-21.944396522838026 A 57.75428548083629 57.75428548083629 0 0 1 15.636944981442774,-28.01480355069451 L 14.81312814683266,-28.58165963738051 A 58.75428548083629 58.75428548083629 0 0 0 11.10020991428674,-22.406145136073057 Z M 108.2984625224137,-32.954391783043555 L 107.53115568646072,-32.31311164184175 A 57.75428548083629 57.75428548083629 0 0 1 111.7315857267604,-26.609891854346024 L 109.21147725213869,-24.982300604633775 L 115.94931672185926,-21.000903955180764 L 115.09173035958933,-28.780013520629023 L 112.57162188496763,-27.152422270916773 A 58.75428548083629 58.75428548083629 0 0 0 108.2984625224137,-32.954391783043555"/><text text-anchor="middle" pointer-events="none" font-size="8px" fill="#000000" x="60.4940569477946" y="-50.46709915117387" transform="rotate(180 60.4940569477946 -53.46709915117387)" font-family="sans-serif">CHEAPEST_CONNECTION</text></g><g class="relationship" transform="translate(108.18408725356804 164.21031575772952) rotate(307.7378225439409)"><path class="outline" fill="#A5ABB6" stroke="none" d="M 5.987513214418485,24.277555179777966 L 6.953439040707552,24.018736134675446 A 37.91501252035074 37.91501252035074 0 0 0 7.598860984663034,26.17037332833356 L 6.649958018213695,26.485941324593707 A 38.91501252035074 38.91501252035074 0 0 1 5.987513214418485,24.277555179777966 Z M 78.34730346968601,31.680488798255766 L 77.45379804903853,31.231436392323502 A 37.91501252035074 37.91501252035074 0 0 0 78.40262823717424,29.195304428782215 L 75.64703642137619,28.009254790399922 L 81.62934269603261,22.963265131650466 L 82.07675065823832,30.776703946625275 L 79.32115884244027,29.590654308242982 A 38.91501252035074 38.91501252035074 0 0 1 78.34730346968601,31.680488798255766"/><text text-anchor="middle" pointer-events="none" font-size="8px" fill="#000000" x="40.80059721595817" y="55.52019336644243" font-family="sans-serif">CHEAPEST_CONNE…</text></g><g class="relationship" transform="translate(108.18408725356804 164.21031575772952) rotate(217.70352187849426)"><path class="outline" fill="#A5ABB6" stroke="none" d="M 5.987513214418485,-24.277555179777966 L 6.953439040707552,-24.018736134675446 A 37.92448605279842 37.92448605279842 0 0 1 7.602659475262904,-26.181842413475234 L 6.653852415821497,-26.49769865285346 A 38.92448605279842 38.92448605279842 0 0 0 5.987513214418485,-24.277555179777966 Z M 78.36007924946594,-31.691917295039907 L 77.46669816193015,-31.24261758167102 A 37.92448605279842 37.92448605279842 0 0 1 78.42088516643129,-29.19565810320827 L 75.66526135520111,-28.009682803726342 L 81.64743150042749,-22.963531760251502 L 82.09505024807153,-30.77695850251751 L 79.33942643684135,-29.59098320303558 A 38.92448605279842 38.92448605279842 0 0 0 78.36007924946594,-31.691917295039907"/><text text-anchor="middle" pointer-events="none" font-size="8px" fill="#000000" x="40.809580312684176" y="-49.52722765105315" transform="rotate(180 40.809580312684176 -52.52722765105315)" font-family="sans-serif">CHEAPEST_CONNE…</text></g><g class="relationship" transform="translate(35.76639572169171 108.23245242467242) rotate(352.7261371312642)"><path class="outline" fill="#A5ABB6" stroke="none" d="M 5.987513214418485,24.277555179777966 L 6.953439040707552,24.018736134675446 A 58.22469486809711 58.22469486809711 0 0 0 15.315752735781992,42.08171452852655 L 14.493448335316081,42.65076239380186 A 59.22469486809711 59.22469486809711 0 0 1 5.987513214418485,24.277555179777966 Z M 108.17489003337408,47.4756878678994 L 107.4153974839916,46.82517186699513 A 58.22469486809711 58.22469486809711 0 0 0 117.5891566332986,29.71686676206306 L 114.78648083319746,28.646816127967917 L 120.55305407953746,23.355631667509577 L 121.32605770010014,31.14360094085658 L 118.523381899999,30.073550306761437 A 59.22469486809711 59.22469486809711 0 0 1 108.17489003337408,47.4756878678994"/><text text-anchor="middle" pointer-events="none" font-size="8px" fill="#000000" x="60.173649616552126" y="70.59603870762098" font-family="sans-serif">CHEAPEST_CONNECTION</text></g><g class="relationship" transform="translate(108.18408725356804 164.21031575772952) rotate(307.7378225439409)"><path class="outline" fill="#A5ABB6" stroke="none" d="M 14.44320574945421,20.411854586953456 L 15.247803529220876,19.818034401379958 A 35.20855515805941 35.20855515805941 0 0 0 15.950593860751741,20.738219965596574 L 15.165956864049754,21.358175434486466 A 36.20855515805941 36.20855515805941 0 0 1 14.44320574945421,20.411854586953456 Z M 69.15693989793618,24.536681891699573 L 68.45046566973008,23.828943122886827 A 35.20855515805941 35.20855515805941 0 0 0 69.25637175946648,22.997576117761124 L 67.06828058622781,20.94519773705374 L 74.40993650999015,18.234093110322153 L 72.17382665711801,25.73408062537097 L 69.98573548387935,23.681702244663587 A 36.20855515805941 36.20855515805941 0 0 1 69.15693989793618,24.536681891699573"/><text text-anchor="middle" pointer-events="none" font-size="8px" fill="#000000" x="41.47796177150766" y="37.55731979698274" font-family="sans-serif">CITY_CONN…</text></g><g class="relationship" transform="translate(108.18408725356804 164.21031575772952) rotate(262.76352278859156)"><path class="outline" fill="#A5ABB6" stroke="none" d="M 15.686668020603996,-19.47250488281772 L 16.452712463722975,-18.829717273131184 A 61.04500279032579 61.04500279032579 0 0 1 23.432990341488463,-25.892070376208565 L 22.78129232409971,-26.65054891521384 A 62.04500279032579 62.04500279032579 0 0 0 15.686668020603996,-19.47250488281772 Z M 99.76118339001617,-29.73079431125545 L 99.17217083275862,-28.922670430038636 A 61.04500279032579 61.04500279032579 0 0 1 106.6944097225993,-22.440615764460937 L 104.55769860274717,-20.33479868069031 L 111.96410143803945,-17.805925998767727 L 109.54335788240215,-25.248371876155108 L 107.40664676255001,-23.14255479238448 A 62.04500279032579 62.04500279032579 0 0 0 99.76118339001617,-29.73079431125545"/><text text-anchor="middle" pointer-events="none" font-size="8px" fill="#000000" x="60.75522733852728" y="-38.08653814270144" transform="rotate(180 60.75522733852728 -41.08653814270144)" font-family="sans-serif">CITY_CONNECTION</text></g><g class="relationship" transform="translate(108.18408725356804 164.21031575772952) rotate(217.70352187849426)"><path class="outline" fill="#A5ABB6" stroke="none" d="M 14.44320574945421,-20.411854586953456 L 15.247803529220876,-19.818034401379958 A 35.219928206665216 35.219928206665216 0 0 1 15.956918566494672,-20.746232436439165 L 15.172454701627341,-21.366406964066197 A 36.219928206665216 36.219928206665216 0 0 0 14.44320574945421,-20.411854586953456 Z M 69.1675161863914,-24.544573190776415 L 68.46122443250994,-23.8366523206228 A 35.219928206665216 35.219928206665216 0 0 1 69.27433372208837,-22.998052886103054 L 67.08619858420512,-20.945721378192932 L 74.42779643019253,-18.234459482360478 L 72.19184723926604,-25.73449489664988 L 70.00371210138279,-23.68216338873976 A 36.219928206665216 36.219928206665216 0 0 0 69.1675161863914,-24.544573190776415"/><text text-anchor="middle" pointer-events="none" font-size="8px" fill="#000000" x="41.486826042115666" y="-31.561942124873788" transform="rotate(180 41.486826042115666 -34.56194212487379)" font-family="sans-serif">CITY_CONN…</text></g><g class="relationship" transform="translate(108.18408725356804 164.21031575772952) rotate(217.70352187849426)"><path class="outline" fill="#A5ABB6" stroke="none" d="M 20.90208894244944,-13.724164012497553 L 21.434121018964774,-12.87743981326927 A 41.635757554256855 41.635757554256855 0 0 1 22.110895311020062,-13.293731378864486 L 21.595117875510677,-14.150453992677946 A 42.635757554256855 42.635757554256855 0 0 0 20.90208894244944,-13.724164012497553 Z M 62.72450933614672,-15.722163579106848 L 62.27561782193013,-14.828577316642871 A 41.635757554256855 41.635757554256855 0 0 1 62.98218817534544,-14.46514858133537 L 61.58460280064265,-11.810576088368407 L 69.40912155471882,-11.646544789190003 L 64.84563534161585,-18.00457857195799 L 63.44804996691305,-15.350006078991026 A 42.635757554256855 42.635757554256855 0 0 0 62.72450933614672,-15.722163579106848"/><text text-anchor="middle" pointer-events="none" font-size="8px" fill="#000000" x="41.97668729879972" y="-16.728462268679756" transform="rotate(180 41.97668729879972 -19.728462268679756)" font-family="sans-serif">CITY_C…</text></g><g class="relationship" transform="translate(108.18408725356804 164.21031575772952) rotate(217.70352187849426)"><path class="outline" fill="#A5ABB6" stroke="none" d="M 24.471206027250748,-5.139073415689509 L 24.657117634413662,-4.15650694245622 A 101.81484750892594 101.81484750892594 0 0 1 26.291004825332774,-4.45187641752095 L 26.121140850031956,-5.437343935958268 A 102.81484750892594 102.81484750892594 0 0 0 24.471206027250748,-5.139073415689509 Z M 58.36479434832839,-5.863742831719151 L 58.22104940157641,-4.874128063092854 A 101.81484750892594 101.81484750892594 0 0 1 59.86217594697142,-4.62206826572455 L 59.382584901735136,-1.6606509649496042 L 66.85208148965235,-3.996592043635709 L 60.50163067395314,-8.570624666757812 L 60.022039628716854,-5.609207365982865 A 102.81484750892594 102.81484750892594 0 0 0 58.36479434832839,-5.863742831719151"/><text text-anchor="middle" pointer-events="none" font-size="8px" fill="#000000" x="42.232758326148215" y="-3.422553502496271" transform="rotate(180 42.232758326148215 -6.422553502496271)" font-family="sans-serif">CITY…</text></g><g class="relationship" transform="translate(108.18408725356804 164.21031575772952) rotate(262.76352278859156)"><path class="outline" fill="#A5ABB6" stroke="none" d="M 19.529452792776517,-15.615712395363635 L 20.13821422178524,-14.822359055072399 A 70.76283311804941 70.76283311804941 0 0 1 22.676646336952793,-16.68197778388062 L 22.10375730031894,-17.50161072105721 A 71.76283311804941 71.76283311804941 0 0 0 19.529452792776517,-15.615712395363635 Z M 100.53847701323258,-19.976223868565846 L 100.0183947121283,-19.122107717168355 A 70.76283311804941 70.76283311804941 0 0 1 102.66900348710269,-17.42620307896575 L 100.99638366181175,-14.9357527341398 L 108.75882426257839,-13.938498544091203 L 104.89916325415727,-20.746803538733683 L 103.22654342886634,-18.256353193907735 A 71.76283311804941 71.76283311804941 0 0 0 100.53847701323258,-19.976223868565846"/><text text-anchor="middle" pointer-events="none" font-size="8px" fill="#000000" x="60.96867546444944" y="-26.909821070454406" transform="rotate(180 60.96867546444944 -29.909821070454406)" font-family="sans-serif">CITY_CONNECTION</text></g><g class="relationship" transform="translate(108.18408725356804 164.21031575772952) rotate(262.76352278859156)"><path class="outline" fill="#A5ABB6" stroke="none" d="M 22.446385545045896,-11.018610437035811 L 22.869003806786598,-10.112302649999162 A 95.46888404316795 95.46888404316795 0 0 1 23.37483809204234,-10.346381822536983 L 22.957518250727574,-11.255141499264013 A 96.46888404316795 96.46888404316795 0 0 0 22.446385545045896,-11.018610437035811 Z M 99.61996575579892,-12.92449309775266 L 99.24259984672429,-11.998428860958967 A 95.46888404316795 95.46888404316795 0 0 1 99.75814414078566,-11.786590564098024 L 98.60984602641278,-9.015054628821758 L 106.4164443421591,-9.569150953107343 L 101.28920829328283,-15.481971811133043 L 100.14091017890995,-12.710435875856778 A 96.46888404316795 96.46888404316795 0 0 0 99.61996575579892,-12.92449309775266"/><text text-anchor="middle" pointer-events="none" font-size="8px" fill="#000000" x="61.126636896419996" y="-16.534249169496874" transform="rotate(180 61.126636896419996 -19.534249169496874)" font-family="sans-serif">CITY_CONNECTI…</text></g><g class="relationship" transform="translate(108.18408725356804 164.21031575772952) rotate(262.76352278859156)"><path class="outline" fill="#A5ABB6" stroke="none" d="M 24.299180371029284,-5.899138352012538 L 24.515619984967383,-4.922842344892605 A 178.80404119337746 178.80404119337746 0 0 1 25.934223861886345,-5.231302600039783 L 25.725718094786657,-6.209323737380998 A 179.80404119337746 179.80404119337746 0 0 0 24.299180371029284,-5.899138352012538 Z M 96.78918152964465,-6.998977467629771 L 96.60246000950872,-6.016564584001827 A 178.80404119337746 178.80404119337746 0 0 1 98.02756794835052,-5.739703515476403 L 97.44349272133817,-2.797110079544339 L 104.9909651700274,-4.867293558436262 L 98.80633491770033,-9.663161430052488 L 98.22225969068798,-6.720567994120424 A 179.80404119337746 179.80404119337746 0 0 0 96.78918152964465,-6.998977467629771"/><text text-anchor="middle" pointer-events="none" font-size="8px" fill="#000000" x="61.22360289071689" y="-6.650143265076565" transform="rotate(180 61.22360289071689 -9.650143265076565)" font-family="sans-serif">CITY_CONNEC…</text></g><g class="relationship" transform="translate(108.18408725356804 164.21031575772952) rotate(262.76352278859156)"><path class="outline" fill="#A5ABB6" stroke="none" d="M 25 0.5 L 25.58636669306398 0.5 L 25.58636669306398 -0.5 L 25 -0.5 Z M 96.92621044306398 0.5 L 97.51257713612796 0.5 L 97.51257713612796 3.5 L 104.51257713612796 0 L 97.51257713612796 -3.5 L 97.51257713612796 -0.5 L 96.92621044306398 -0.5 Z"/><text text-anchor="middle" pointer-events="none" font-size="8px" fill="#000000" x="61.25628856806398" y="3" transform="rotate(180 61.25628856806398 0)" font-family="sans-serif">CITY_CONNEC…</text></g><g class="relationship" transform="translate(108.18408725356804 164.21031575772952) rotate(262.76352278859156)"><path class="outline" fill="#A5ABB6" stroke="none" d="M 24.299180371029284,5.899138352012538 L 24.515619984967383,4.922842344892605 A 178.80404119337746 178.80404119337746 0 0 0 25.93422386188646,5.2313026000398395 L 25.725718094786778,6.209323737381027 A 179.80404119337746 179.80404119337746 0 0 1 24.299180371029284,5.899138352012538 Z M 96.78918152964468,6.998977467629743 L 96.60246000950876,6.016564584001827 A 178.80404119337746 178.80404119337746 0 0 0 98.02756794835052,5.739703515476403 L 97.44349272133817,2.797110079544339 L 104.9909651700274,4.867293558436262 L 98.80633491770033,9.663161430052488 L 98.22225969068798,6.720567994120424 A 179.80404119337746 179.80404119337746 0 0 1 96.78918152964468,6.998977467629743"/><text text-anchor="middle" pointer-events="none" font-size="8px" fill="#000000" x="61.223602890716975" y="12.650143265076565" transform="rotate(180 61.223602890716975 9.650143265076565)" font-family="sans-serif">CITY_CONNEC…</text></g><g class="relationship" transform="translate(108.18408725356804 164.21031575772952) rotate(307.7378225439409)"><path class="outline" fill="#A5ABB6" stroke="none" d="M 20.90208894244944,13.724164012497553 L 21.434121018964774,12.87743981326927 A 41.618557971635184 41.618557971635184 0 0 0 22.103037968571737,13.288996226801451 L 21.587078456369245,14.145609197616018 A 42.618557971635184 42.618557971635184 0 0 1 20.90208894244944,13.724164012497553 Z M 62.71521067966496,15.71755243519248 L 62.26614147713083,14.824055456274614 A 41.618557971635184 41.618557971635184 0 0 0 62.96452095027497,14.464757977182678 L 61.56697189593476,11.810166362505798 L 69.39149289357772,11.646242119501684 L 64.82791968939523,18.00421346341852 L 63.430370635055034,15.349621848741638 A 42.618557971635184 42.618557971635184 0 0 1 62.71521067966496,15.71755243519248"/><text text-anchor="middle" pointer-events="none" font-size="8px" fill="#000000" x="41.967905425057104" y="22.7258275296389" font-family="sans-serif">CITY_C…</text></g><g class="relationship" transform="translate(108.18408725356804 164.21031575772952) rotate(307.7378225439409)"><path class="outline" fill="#A5ABB6" stroke="none" d="M 24.471206027250748,5.139073415689509 L 24.657117634413662,4.15650694245622 A 101.765626646404 101.765626646404 0 0 0 26.28237883516561,4.450382608158023 L 26.11243785830598,5.4358368508217865 A 102.765626646404 102.765626646404 0 0 1 24.471206027250748,5.139073415689509 Z M 58.35603731170873,5.86231073879614 L 58.2122196855644,4.872706529826601 A 101.765626646404 101.765626646404 0 0 0 59.844684932627246,4.621919579023538 L 59.36510779158635,1.6605000265468823 L 66.83459341191293,3.9964761753408693 L 60.484121120681785,8.570478982325744 L 60.004543979640886,5.609059429849089 A 102.765626646404 102.765626646404 0 0 1 58.35603731170873,5.86231073879614"/><text text-anchor="middle" pointer-events="none" font-size="8px" fill="#000000" x="42.22401839637063" y="9.421696537801381" font-family="sans-serif">CITY…</text></g><g class="relationship" transform="translate(164.19460201578576 91.83996396006212) rotate(217.80492194620751)"><path class="outline" fill="#A5ABB6" stroke="none" d="M 14.44320574945421,-20.411854586953456 L 15.247803529220876,-19.818034401379958 A 35.224900640908764 35.224900640908764 0 0 1 15.959684519368654,-20.74973509964597 L 15.175296335007374,-21.370005344163967 A 36.224900640908764 36.224900640908764 0 0 0 14.44320574945421,-20.411854586953456 Z M 69.17213977684258,-24.54802278375998 L 68.46592778048573,-23.84002234858945 A 35.224900640908764 35.224900640908764 0 0 1 69.28218695396825,-22.99826127976482 L 67.09403259931274,-20.945950260401005 L 74.43560505825974,-18.234619622129266 L 72.19972609350894,-25.734675972249903 L 70.01157173885343,-23.68236495288609 A 36.224900640908764 36.224900640908764 0 0 0 69.17213977684258,-24.54802278375998"/><text text-anchor="middle" pointer-events="none" font-size="8px" fill="#000000" x="41.49070164321496" y="-31.563963063233373" transform="rotate(180 41.49070164321496 -34.56396306323337)" font-family="sans-serif">CITY_CONN…</text></g><g class="relationship" transform="translate(164.19460201578576 91.83996396006212) rotate(532.7261371312642)"><path class="outline" fill="#A5ABB6" stroke="none" d="M 12.066987298107785,-21.900635094610966 L 12.933012701892222,-21.400635094610966 A 58.0365917905809 58.0365917905809 0 0 1 23.64214204669146,-34.854478691980205 L 22.9606403892952,-35.586295261187374 A 59.0365917905809 59.0365917905809 0 0 0 12.066987298107785,-21.900635094610966 Z M 99.32959660193691,-39.067995615826405 L 98.71751145331389,-38.27720375266952 A 58.0365917905809 58.0365917905809 0 0 1 110.60640633425822,-25.853615809729316 L 108.15559576820685,-24.12343444081711 L 115.0519646227286,-20.423421383761468 L 113.87415375566006,-28.16052430161226 L 111.42334318960869,-26.430342932700054 A 59.0365917905809 59.0365917905809 0 0 0 99.32959660193691,-39.067995615826405"/><text text-anchor="middle" pointer-events="none" font-size="8px" fill="#000000" x="60.52823107575708" y="-47.858191639127924" transform="rotate(180 60.52823107575708 -50.858191639127924)" font-family="sans-serif">CITY_CONNECTION</text></g><g class="relationship" transform="translate(164.19460201578576 91.83996396006212) rotate(487.7378225439409)"><path class="outline" fill="#A5ABB6" stroke="none" d="M 24.471206027250748,5.139073415689509 L 24.657117634413662,4.15650694245622 A 101.765626646404 101.765626646404 0 0 0 26.28237883516561,4.450382608158023 L 26.11243785830598,5.4358368508217865 A 102.765626646404 102.765626646404 0 0 1 24.471206027250748,5.139073415689509 Z M 58.35603731170873,5.86231073879614 L 58.2122196855644,4.872706529826601 A 101.765626646404 101.765626646404 0 0 0 59.844684932627246,4.621919579023538 L 59.36510779158635,1.6605000265468823 L 66.83459341191293,3.9964761753408693 L 60.484121120681785,8.570478982325744 L 60.004543979640886,5.609059429849089 A 102.765626646404 102.765626646404 0 0 1 58.35603731170873,5.86231073879614"/><text text-anchor="middle" pointer-events="none" font-size="8px" fill="#000000" x="42.22401839637063" y="9.421696537801381" transform="rotate(180 42.22401839637063 6.421696537801381)" font-family="sans-serif">CITY…</text></g><g class="relationship" transform="translate(164.19460201578576 91.83996396006212) rotate(487.7378225439409)"><path class="outline" fill="#A5ABB6" stroke="none" d="M 20.90208894244944,13.724164012497553 L 21.434121018964774,12.87743981326927 A 41.618557971635184 41.618557971635184 0 0 0 22.103037968571737,13.288996226801451 L 21.587078456369245,14.145609197616018 A 42.618557971635184 42.618557971635184 0 0 1 20.90208894244944,13.724164012497553 Z M 62.71521067966496,15.71755243519248 L 62.26614147713083,14.824055456274614 A 41.618557971635184 41.618557971635184 0 0 0 62.96452095027497,14.464757977182678 L 61.56697189593476,11.810166362505798 L 69.39149289357772,11.646242119501684 L 64.82791968939523,18.00421346341852 L 63.430370635055034,15.349621848741638 A 42.618557971635184 42.618557971635184 0 0 1 62.71521067966496,15.71755243519248"/><text text-anchor="middle" pointer-events="none" font-size="8px" fill="#000000" x="41.967905425057104" y="22.7258275296389" transform="rotate(180 41.967905425057104 19.7258275296389)" font-family="sans-serif">CITY_C…</text></g><g class="relationship" transform="translate(164.19460201578576 91.83996396006212) rotate(532.7261371312642)"><path class="outline" fill="#A5ABB6" stroke="none" d="M 17.324116139070416,-18.03122292025696 L 18.031222920256962,-17.324116139070412 A 63.8700601139207 63.8700601139207 0 0 1 23.170459943017384,-21.93552206345983 L 22.543817107122166,-22.71482865025427 A 64.8700601139207 64.8700601139207 0 0 0 17.324116139070416,-18.03122292025696 Z M 100.01640802414911,-25.567604086114805 L 99.44877740352257,-24.744320733600546 A 63.8700601139207 63.8700601139207 0 0 1 104.9132483479088,-20.523375451609326 L 102.95368829432996,-18.251784732219477 L 110.54022003541492,-16.329667113157008 L 107.52599508601392,-23.55216307746246 L 105.56643503243508,-21.28057235807261 A 64.8700601139207 64.8700601139207 0 0 0 100.01640802414911,-25.567604086114805"/><text text-anchor="middle" pointer-events="none" font-size="8px" fill="#000000" x="60.825480327938436" y="-33.487627139274124" transform="rotate(180 60.825480327938436 -36.487627139274124)" font-family="sans-serif">CITY_CONNECTION</text></g><g class="relationship" transform="translate(164.19460201578576 91.83996396006212) rotate(217.80492194620751)"><path class="outline" fill="#A5ABB6" stroke="none" d="M 20.90208894244944,-13.724164012497553 L 21.434121018964774,-12.87743981326927 A 41.64327741956009 41.64327741956009 0 0 1 22.114331000510262,-13.295801174611675 L 21.598633132628223,-14.1525716859284 A 42.64327741956009 42.64327741956009 0 0 0 20.90208894244944,-13.724164012497553 Z M 62.728574645171776,-15.724179122855325 L 62.279760777525766,-14.83055385899545 A 41.64327741956009 41.64327741956009 0 0 1 62.98991257533059,-14.465319315540203 L 61.59231132489534,-11.810755180925664 L 69.41682909783705,-11.64667708696038 L 64.85338090924425,-18.00473816169292 L 63.45577965880901,-15.350174027078381 A 42.64327741956009 42.64327741956009 0 0 0 62.728574645171776,-15.724179122855325"/><text text-anchor="middle" pointer-events="none" font-size="8px" fill="#000000" x="41.98052688316644" y="-16.729614209443945" transform="rotate(180 41.98052688316644 -19.729614209443945)" font-family="sans-serif">CITY_C…</text></g><g class="relationship" transform="translate(164.19460201578576 91.83996396006212) rotate(532.7261371312642)"><path class="outline" fill="#A5ABB6" stroke="none" d="M 21.40063509461097,-12.933012701892217 L 21.90063509461097,-12.06698729810778 A 82.58708089398355 82.58708089398355 0 0 1 22.01647917504569,-12.133744938450263 L 21.517881865141774,-13.000578672540357 A 83.58708089398355 83.58708089398355 0 0 0 21.40063509461097,-12.933012701892217 Z M 101.07518671228894,-15.055074352165079 L 100.62199453515414,-14.16366151257624 A 82.58708089398355 82.58708089398355 0 0 1 100.74112982335673,-14.10297200260333 L 99.37722566757408,-11.430938048133662 L 107.2031930764164,-11.365867964855425 L 102.55966869773358,-17.665683941896223 L 101.19576454195094,-14.993649987426554 A 83.58708089398355 83.58708089398355 0 0 0 101.07518671228894,-15.055074352165079"/><text text-anchor="middle" pointer-events="none" font-size="8px" fill="#000000" x="61.049241669443944" y="-20.603867237548855" transform="rotate(180 61.049241669443944 -23.603867237548855)" font-family="sans-serif">CITY_CONNECTION</text></g><g class="relationship" transform="translate(164.19460201578576 91.83996396006212) rotate(217.80492194620751)"><path class="outline" fill="#A5ABB6" stroke="none" d="M 24.471206027250748,-5.139073415689509 L 24.657117634413662,-4.15650694245622 A 101.8363674646374 101.8363674646374 0 0 1 26.294776303445882,-4.452529346657002 L 26.12494597166429,-5.438002663600159 A 102.8363674646374 102.8363674646374 0 0 0 24.471206027250748,-5.139073415689509 Z M 58.36862306334503,-5.864368779339173 L 58.224909870723465,-4.874749398836485 A 101.8363674646374 101.8363674646374 0 0 1 59.86982332291585,-4.62213325754362 L 59.39022620007548,-1.6607169410215339 L 66.85972758194077,-3.9966426903364334 L 60.50928615336968,-8.570688346239734 L 60.02968903052931,-5.609272029717648 A 102.8363674646374 102.8363674646374 0 0 0 58.36862306334503,-5.864368779339173"/><text text-anchor="middle" pointer-events="none" font-size="8px" fill="#000000" x="42.23657957615393" y="-3.422928178259596" transform="rotate(180 42.23657957615393 -6.422928178259596)" font-family="sans-serif">CITY…</text></g><g class="relationship" transform="translate(164.19460201578576 91.83996396006212) rotate(487.7378225439409)"><path class="outline" fill="#A5ABB6" stroke="none" d="M 14.44320574945421,20.411854586953456 L 15.247803529220876,19.818034401379958 A 35.20855515805941 35.20855515805941 0 0 0 15.950593860751741,20.738219965596574 L 15.165956864049754,21.358175434486466 A 36.20855515805941 36.20855515805941 0 0 1 14.44320574945421,20.411854586953456 Z M 69.15693989793618,24.536681891699573 L 68.45046566973008,23.828943122886827 A 35.20855515805941 35.20855515805941 0 0 0 69.25637175946648,22.997576117761124 L 67.06828058622781,20.94519773705374 L 74.40993650999015,18.234093110322153 L 72.17382665711801,25.73408062537097 L 69.98573548387935,23.681702244663587 A 36.20855515805941 36.20855515805941 0 0 1 69.15693989793618,24.536681891699573"/><text text-anchor="middle" pointer-events="none" font-size="8px" fill="#000000" x="41.47796177150766" y="37.55731979698274" transform="rotate(180 41.47796177150766 34.55731979698274)" font-family="sans-serif">CITY_CONN…</text></g><g class="relationship" transform="translate(164.19460201578576 91.83996396006212) rotate(487.7378225439409)"><path class="outline" fill="#A5ABB6" stroke="none" d="M 5.987513214418485,24.277555179777966 L 6.953439040707552,24.018736134675446 A 37.91501252035074 37.91501252035074 0 0 0 7.598860984663034,26.17037332833356 L 6.649958018213695,26.485941324593707 A 38.91501252035074 38.91501252035074 0 0 1 5.987513214418485,24.277555179777966 Z M 78.34730346968601,31.680488798255766 L 77.45379804903853,31.231436392323502 A 37.91501252035074 37.91501252035074 0 0 0 78.40262823717424,29.195304428782215 L 75.64703642137619,28.009254790399922 L 81.62934269603261,22.963265131650466 L 82.07675065823832,30.776703946625275 L 79.32115884244027,29.590654308242982 A 38.91501252035074 38.91501252035074 0 0 1 78.34730346968601,31.680488798255766"/><text text-anchor="middle" pointer-events="none" font-size="8px" fill="#000000" x="40.80059721595817" y="55.52019336644243" transform="rotate(180 40.80059721595817 52.52019336644243)" font-family="sans-serif">CHEAPEST_CONNE…</text></g><g class="relationship" transform="translate(164.19460201578576 91.83996396006212) rotate(532.7261371312642)"><path class="outline" fill="#A5ABB6" stroke="none" d="M 24.018736134675446,-6.953439040707552 L 24.277555179777966,-5.987513214418485 A 150.36227471749427 150.36227471749427 0 0 1 24.95603138594828,-6.167613965851672 L 24.701724617661505,-7.134737570983674 A 151.36227471749427 151.36227471749427 0 0 0 24.018736134675446,-6.953439040707552 Z M 97.78014986657323,-8.106601623547675 L 97.55165188456601,-7.133057237184801 A 150.36227471749427 150.36227471749427 0 0 1 98.23467758439806,-6.971062989216003 L 97.53555603728199,-4.053661909083546 L 105.15846702922647,-5.826012892633918 L 99.16683964721949,-10.86093109605928 L 98.46771810010343,-7.943530015926823 A 151.36227471749427 151.36227471749427 0 0 0 97.78014986657323,-8.106601623547675"/><text text-anchor="middle" pointer-events="none" font-size="8px" fill="#000000" x="61.18804777655225" y="-8.597644407228046" transform="rotate(180 61.18804777655225 -11.597644407228046)" font-family="sans-serif">CHEAPEST_CO…</text></g><g class="relationship" transform="translate(164.19460201578576 91.83996396006212) rotate(217.80492194620751)"><path class="outline" fill="#A5ABB6" stroke="none" d="M 24.471206027250748,5.139073415689509 L 24.657117634413662,4.15650694245622 A 101.8363674646374 101.8363674646374 0 0 0 26.94827180402973,4.5629602463220635 L 26.784858585474517,5.549517958775539 A 102.8363674646374 102.8363674646374 0 0 1 24.471206027250748,5.139073415689509 Z M 57.70599251320331,5.958395759205203 L 57.56872286352748,4.967862042829097 A 101.8363674646374 101.8363674646374 0 0 0 59.86982332291585,4.62213325754362 L 59.39022620007548,1.6607169410215339 L 66.85972758194077,3.9966426903364334 L 60.50928615336968,8.570688346239734 L 60.02968903052931,5.609272029717648 A 102.8363674646374 102.8363674646374 0 0 1 57.70599251320331,5.958395759205203"/><text text-anchor="middle" pointer-events="none" font-size="8px" fill="#000000" x="42.23657957615396" y="9.422928178259596" transform="rotate(180 42.23657957615396 6.422928178259596)" font-family="sans-serif">CHE…</text></g><g class="relationship" transform="translate(91.87005679142761 35.729344222946025) rotate(487.7330779388894)"><path class="outline" fill="#A5ABB6" stroke="none" d="M 5.987513214418485,-24.277555179777966 L 6.953439040707552,-24.018736134675446 A 38.002856388324865 38.002856388324865 0 0 1 9.085000983543566,-29.952817407913614 L 8.175164676448922,-30.367784749149507 A 39.002856388324865 39.002856388324865 0 0 0 5.987513214418485,-24.277555179777966 Z M 76.44929031692229,-35.3057448753575 L 75.60863622503912,-34.764172444559854 A 38.002856388324865 38.002856388324865 0 0 1 78.57191791930761,-29.19857827376764 L 75.81602993575954,-28.013216969297403 L 81.79707562699616,-22.965733196233863 L 82.24643523070502,-30.77906001306129 L 79.49054724715695,-29.593698708591052 A 39.002856388324865 39.002856388324865 0 0 0 76.44929031692229,-35.3057448753575"/><text text-anchor="middle" pointer-events="none" font-size="8px" fill="#000000" x="40.883896243669405" y="-49.58541910111065" transform="rotate(180 40.883896243669405 -52.58541910111065)" font-family="sans-serif">CITY_CONNECTION</text></g><g class="relationship" transform="translate(91.87005679142761 35.729344222946025) rotate(397.8049219462075)"><path class="outline" fill="#A5ABB6" stroke="none" d="M 20.90208894244944,-13.724164012497553 L 21.434121018964774,-12.87743981326927 A 41.64327741956009 41.64327741956009 0 0 1 22.114331000510262,-13.295801174611675 L 21.598633132628223,-14.1525716859284 A 42.64327741956009 42.64327741956009 0 0 0 20.90208894244944,-13.724164012497553 Z M 62.728574645171776,-15.724179122855325 L 62.279760777525766,-14.83055385899545 A 41.64327741956009 41.64327741956009 0 0 1 62.98991257533059,-14.465319315540203 L 61.59231132489534,-11.810755180925664 L 69.41682909783705,-11.64667708696038 L 64.85338090924425,-18.00473816169292 L 63.45577965880901,-15.350174027078381 A 42.64327741956009 42.64327741956009 0 0 0 62.728574645171776,-15.724179122855325"/><text text-anchor="middle" pointer-events="none" font-size="8px" fill="#000000" x="41.98052688316644" y="-16.729614209443945" font-family="sans-serif">CITY_C…</text></g><g class="relationship" transform="translate(91.87005679142761 35.729344222946025) rotate(442.76352278859156)"><path class="outline" fill="#A5ABB6" stroke="none" d="M 22.446385545045896,-11.018610437035811 L 22.869003806786598,-10.112302649999162 A 95.46888404316795 95.46888404316795 0 0 1 23.37483809204234,-10.346381822536983 L 22.957518250727574,-11.255141499264013 A 96.46888404316795 96.46888404316795 0 0 0 22.446385545045896,-11.018610437035811 Z M 99.61996575579892,-12.92449309775266 L 99.24259984672429,-11.998428860958967 A 95.46888404316795 95.46888404316795 0 0 1 99.75814414078566,-11.786590564098024 L 98.60984602641278,-9.015054628821758 L 106.4164443421591,-9.569150953107343 L 101.28920829328283,-15.481971811133043 L 100.14091017890995,-12.710435875856778 A 96.46888404316795 96.46888404316795 0 0 0 99.61996575579892,-12.92449309775266"/><text text-anchor="middle" pointer-events="none" font-size="8px" fill="#000000" x="61.126636896419996" y="-16.534249169496874" font-family="sans-serif">CITY_CONNECTI…</text></g><g class="relationship" transform="translate(91.87005679142761 35.729344222946025) rotate(397.8049219462075)"><path class="outline" fill="#A5ABB6" stroke="none" d="M 14.44320574945421,-20.411854586953456 L 15.247803529220876,-19.818034401379958 A 35.224900640908764 35.224900640908764 0 0 1 15.959684519368654,-20.74973509964597 L 15.175296335007374,-21.370005344163967 A 36.224900640908764 36.224900640908764 0 0 0 14.44320574945421,-20.411854586953456 Z M 69.17213977684258,-24.54802278375998 L 68.46592778048573,-23.84002234858945 A 35.224900640908764 35.224900640908764 0 0 1 69.28218695396825,-22.99826127976482 L 67.09403259931274,-20.945950260401005 L 74.43560505825974,-18.234619622129266 L 72.19972609350894,-25.734675972249903 L 70.01157173885343,-23.68236495288609 A 36.224900640908764 36.224900640908764 0 0 0 69.17213977684258,-24.54802278375998"/><text text-anchor="middle" pointer-events="none" font-size="8px" fill="#000000" x="41.49070164321496" y="-31.563963063233373" font-family="sans-serif">CITY_CONN…</text></g><g class="relationship" transform="translate(91.87005679142761 35.729344222946025) rotate(397.8049219462075)"><path class="outline" fill="#A5ABB6" stroke="none" d="M 5.987513214418485,-24.277555179777966 L 6.953439040707552,-24.018736134675446 A 37.92862799563048 37.92862799563048 0 0 1 9.04670785561543,-29.866179817173375 L 8.135971708614235,-30.27916852227972 A 38.92862799563048 38.92862799563048 0 0 0 5.987513214418485,-24.277555179777966 Z M 76.35650518288676,-35.220487976551816 L 75.51478980547435,-34.68056647908436 A 37.92862799563048 37.92862799563048 0 0 1 78.42886732686722,-29.195812687822293 L 75.6732295310458,-28.009869882185974 L 81.65534017265553,-22.963648298511732 L 82.10305105462909,-30.777069762004054 L 79.34741325880768,-29.591126956367734 A 38.92862799563048 38.92862799563048 0 0 0 76.35650518288676,-35.220487976551816"/><text text-anchor="middle" pointer-events="none" font-size="8px" fill="#000000" x="40.81350785367983" y="-49.530303124697795" font-family="sans-serif">CITY_CONNECTION</text></g><g class="relationship" transform="translate(91.87005679142761 35.729344222946025) rotate(487.7330779388894)"><path class="outline" fill="#A5ABB6" stroke="none" d="M 14.44320574945421,-20.411854586953456 L 15.247803529220876,-19.818034401379958 A 35.31401239755362 35.31401239755362 0 0 1 16.009327100283365,-20.81245683113403 L 15.22629366620728,-21.434436445847417 A 36.31401239755362 36.31401239755362 0 0 0 14.44320574945421,-20.411854586953456 Z M 69.25494944439987,-24.60978395175392 L 68.55016447970732,-23.900362952950445 A 35.31401239755362 35.31401239755362 0 0 1 69.42293054281247,-23.00199024790331 L 67.23443232681943,-20.950045911768612 L 74.57555036312561,-18.23748513327534 L 72.34092816413651,-25.737916029416247 L 70.15242994814348,-23.685971693281548 A 36.31401239755362 36.31401239755362 0 0 0 69.25494944439987,-24.60978395175392"/><text text-anchor="middle" pointer-events="none" font-size="8px" fill="#000000" x="41.560160479196725" y="-31.600180688109205" transform="rotate(180 41.560160479196725 -34.600180688109205)" font-family="sans-serif">CITY_CONN…</text></g><g class="relationship" transform="translate(91.87005679142761 35.729344222946025) rotate(487.7330779388894)"><path class="outline" fill="#A5ABB6" stroke="none" d="M 20.90208894244944,-13.724164012497553 L 21.434121018964774,-12.87743981326927 A 41.778042078896334 41.778042078896334 0 0 1 22.175939951352397,-13.332845983326521 L 21.661664066737742,-14.190470793196091 A 42.778042078896334 42.778042078896334 0 0 0 20.90208894244944,-13.724164012497553 Z M 62.801411636061445,-15.760248180650763 L 62.353985077786156,-14.865927502733761 A 41.778042078896334 41.778042078896334 0 0 1 63.128350533272986,-14.468374676654525 L 61.73046518018019,-11.813960138642681 L 69.55496534748275,-11.649044609106642 L 64.99219767073005,-18.007594060670318 L 63.594312317637254,-15.353179522658474 A 42.778042078896334 42.778042078896334 0 0 0 62.801411636061445,-15.760248180650763"/><text text-anchor="middle" pointer-events="none" font-size="8px" fill="#000000" x="42.049341099628656" y="-16.75025842209085" transform="rotate(180 42.049341099628656 -19.75025842209085)" font-family="sans-serif">CITY_C…</text></g><g class="relationship" transform="translate(91.87005679142761 35.729344222946025) rotate(442.76352278859156)"><path class="outline" fill="#A5ABB6" stroke="none" d="M 19.529452792776517,-15.615712395363635 L 20.13821422178524,-14.822359055072399 A 70.76283311804941 70.76283311804941 0 0 1 22.676646336952793,-16.68197778388062 L 22.10375730031894,-17.50161072105721 A 71.76283311804941 71.76283311804941 0 0 0 19.529452792776517,-15.615712395363635 Z M 100.53847701323258,-19.976223868565846 L 100.0183947121283,-19.122107717168355 A 70.76283311804941 70.76283311804941 0 0 1 102.66900348710269,-17.42620307896575 L 100.99638366181175,-14.9357527341398 L 108.75882426257839,-13.938498544091203 L 104.89916325415727,-20.746803538733683 L 103.22654342886634,-18.256353193907735 A 71.76283311804941 71.76283311804941 0 0 0 100.53847701323258,-19.976223868565846"/><text text-anchor="middle" pointer-events="none" font-size="8px" fill="#000000" x="60.96867546444944" y="-26.909821070454406" font-family="sans-serif">CITY_CONNECTION</text></g><g class="relationship" transform="translate(91.87005679142761 35.729344222946025) rotate(442.76352278859156)"><path class="outline" fill="#A5ABB6" stroke="none" d="M 15.686668020603996,-19.47250488281772 L 16.452712463722975,-18.829717273131184 A 61.04500279032579 61.04500279032579 0 0 1 23.432990341488463,-25.892070376208565 L 22.78129232409971,-26.65054891521384 A 62.04500279032579 62.04500279032579 0 0 0 15.686668020603996,-19.47250488281772 Z M 99.76118339001617,-29.73079431125545 L 99.17217083275862,-28.922670430038636 A 61.04500279032579 61.04500279032579 0 0 1 106.6944097225993,-22.440615764460937 L 104.55769860274717,-20.33479868069031 L 111.96410143803945,-17.805925998767727 L 109.54335788240215,-25.248371876155108 L 107.40664676255001,-23.14255479238448 A 62.04500279032579 62.04500279032579 0 0 0 99.76118339001617,-29.73079431125545"/><text text-anchor="middle" pointer-events="none" font-size="8px" fill="#000000" x="60.75522733852728" y="-38.08653814270144" font-family="sans-serif">CITY_CONNECTION</text></g><g class="relationship" transform="translate(91.87005679142761 35.729344222946025) rotate(487.7330779388894)"><path class="outline" fill="#A5ABB6" stroke="none" d="M 24.471206027250748,-5.139073415689509 L 24.657117634413662,-4.15650694245622 A 102.22202989121591 102.22202989121591 0 0 1 27.01594828871073,-4.574254485590387 L 26.853112242234758,-5.560907627260789 A 103.22202989121591 103.22202989121591 0 0 0 24.471206027250748,-5.139073415689509 Z M 57.774570380702876,-5.969221779986313 L 57.63784384183679,-4.978612950240844 A 102.22202989121591 102.22202989121591 0 0 1 60.00688271548582,-4.623296358191059 L 59.52717682721686,-1.6618976581237939 L 66.99676399702093,-3.9975490689080235 L 60.646490566511105,-8.571827958280746 L 60.166784678242145,-5.610429258213481 A 103.22202989121591 103.22202989121591 0 0 0 57.774570380702876,-5.969221779986313"/><text text-anchor="middle" pointer-events="none" font-size="8px" fill="#000000" x="42.30506563666418" y="-3.4296428459607" transform="rotate(180 42.30506563666418 -6.4296428459607)" font-family="sans-serif">CHE…</text></g><g class="relationship" transform="translate(91.87005679142761 35.729344222946025) rotate(442.76352278859156)"><path class="outline" fill="#A5ABB6" stroke="none" d="M 11.10020991428674,-22.406145136073057 L 11.987220747464963,-21.944396522838026 A 57.75428548083629 57.75428548083629 0 0 1 15.636944981442774,-28.01480355069451 L 14.81312814683266,-28.58165963738051 A 58.75428548083629 58.75428548083629 0 0 0 11.10020991428674,-22.406145136073057 Z M 108.2984625224137,-32.954391783043555 L 107.53115568646072,-32.31311164184175 A 57.75428548083629 57.75428548083629 0 0 1 111.7315857267604,-26.609891854346024 L 109.21147725213869,-24.982300604633775 L 115.94931672185926,-21.000903955180764 L 115.09173035958933,-28.780013520629023 L 112.57162188496763,-27.152422270916773 A 58.75428548083629 58.75428548083629 0 0 0 108.2984625224137,-32.954391783043555"/><text text-anchor="middle" pointer-events="none" font-size="8px" fill="#000000" x="60.4940569477946" y="-50.46709915117387" font-family="sans-serif">CHEAPEST_CONNECTION</text></g><g class="relationship" transform="translate(91.87005679142761 35.729344222946025) rotate(442.76352278859156)"><path class="outline" fill="#A5ABB6" stroke="none" d="M 5.987513214418485,-24.277555179777966 L 6.953439040707552,-24.018736134675446 A 58.24718323028832 58.24718323028832 0 0 1 15.331132666477096,-42.106241762113044 L 14.509036861850149,-42.67559094145272 A 59.24718323028832 59.24718323028832 0 0 0 5.987513214418485,-24.277555179777966 Z M 108.20084447575348,-47.49949106034288 L 107.44156877028297,-46.84872197450503 A 58.24718323028832 58.24718323028832 0 0 1 117.63257757031052,-29.717261150990627 L 114.82986624998459,-28.647303556075332 L 120.59626384516719,-23.355927669382687 L 121.36952599741174,-31.143871277544353 L 118.56681467708582,-30.07391368262906 A 59.24718323028832 59.24718323028832 0 0 0 108.20084447575348,-47.49949106034288"/><text text-anchor="middle" pointer-events="none" font-size="8px" fill="#000000" x="60.195188814900426" y="-64.61272703244374" font-family="sans-serif">CHEAPEST_CONNECTION</text></g><g class="relationship" transform="translate(35.76639572169171 108.23245242467242) rotate(397.70352187849426)"><path class="outline" fill="#A5ABB6" stroke="none" d="M 24.471206027250748,-5.139073415689509 L 24.657117634413662,-4.15650694245622 A 101.81484750892594 101.81484750892594 0 0 1 26.291004825332774,-4.45187641752095 L 26.121140850031956,-5.437343935958268 A 102.81484750892594 102.81484750892594 0 0 0 24.471206027250748,-5.139073415689509 Z M 58.36479434832839,-5.863742831719151 L 58.22104940157641,-4.874128063092854 A 101.81484750892594 101.81484750892594 0 0 1 59.86217594697142,-4.62206826572455 L 59.382584901735136,-1.6606509649496042 L 66.85208148965235,-3.996592043635709 L 60.50163067395314,-8.570624666757812 L 60.022039628716854,-5.609207365982865 A 102.81484750892594 102.81484750892594 0 0 0 58.36479434832839,-5.863742831719151"/><text text-anchor="middle" pointer-events="none" font-size="8px" fill="#000000" x="42.232758326148215" y="-3.422553502496271" font-family="sans-serif">CITY…</text></g><g class="relationship" transform="translate(35.76639572169171 108.23245242467242) rotate(352.7261371312642)"><path class="outline" fill="#A5ABB6" stroke="none" d="M 25 0.5 L 25.565149473498494 0.5 L 25.565149473498494 -0.5 L 25 -0.5 Z M 96.9049932234985 0.5 L 97.47014269699699 0.5 L 97.47014269699699 3.5 L 104.47014269699699 0 L 97.47014269699699 -3.5 L 97.47014269699699 -0.5 L 96.9049932234985 -0.5 Z"/><text text-anchor="middle" pointer-events="none" font-size="8px" fill="#000000" x="61.235071348498494" y="3" font-family="sans-serif">CITY_CONNEC…</text></g><g class="relationship" transform="translate(35.76639572169171 108.23245242467242) rotate(352.7261371312642)"><path class="outline" fill="#A5ABB6" stroke="none" d="M 24.018736134675446,-6.953439040707552 L 24.277555179777966,-5.987513214418485 A 150.36227471749427 150.36227471749427 0 0 1 26.0320612081372,-6.446309694285901 L 25.784910688478682,-7.4152867944448815 A 151.36227471749427 151.36227471749427 0 0 0 24.018736134675446,-6.953439040707552 Z M 96.68988619202838,-8.358246315057386 L 96.4685912180136,-7.383039396257175 A 150.36227471749427 150.36227471749427 0 0 1 98.23467758439806,-6.971062989216003 L 97.53555603728199,-4.053661909083546 L 105.15846702922647,-5.826012892633918 L 99.16683964721949,-10.86093109605928 L 98.46771810010343,-7.943530015926823 A 151.36227471749427 151.36227471749427 0 0 0 96.68988619202838,-8.358246315057386"/><text text-anchor="middle" pointer-events="none" font-size="8px" fill="#000000" x="61.18804777655225" y="-8.597644407228046" font-family="sans-serif">CITY_CONNEC…</text></g><g class="relationship" transform="translate(35.76639572169171 108.23245242467242) rotate(352.7261371312642)"><path class="outline" fill="#A5ABB6" stroke="none" d="M 21.40063509461097,-12.933012701892217 L 21.90063509461097,-12.06698729810778 A 82.58708089398355 82.58708089398355 0 0 1 22.01647917504569,-12.133744938450263 L 21.517881865141774,-13.000578672540357 A 83.58708089398355 83.58708089398355 0 0 0 21.40063509461097,-12.933012701892217 Z M 101.07518671228894,-15.055074352165079 L 100.62199453515414,-14.16366151257624 A 82.58708089398355 82.58708089398355 0 0 1 100.74112982335673,-14.10297200260333 L 99.37722566757408,-11.430938048133662 L 107.2031930764164,-11.365867964855425 L 102.55966869773358,-17.665683941896223 L 101.19576454195094,-14.993649987426554 A 83.58708089398355 83.58708089398355 0 0 0 101.07518671228894,-15.055074352165079"/><text text-anchor="middle" pointer-events="none" font-size="8px" fill="#000000" x="61.049241669443944" y="-20.603867237548855" font-family="sans-serif">CITY_CONNECTION</text></g><g class="relationship" transform="translate(35.76639572169171 108.23245242467242) rotate(307.7330779388894)"><path class="outline" fill="#A5ABB6" stroke="none" d="M 24.471206027250748,-5.139073415689509 L 24.657117634413662,-4.15650694245622 A 102.22202989121591 102.22202989121591 0 0 1 26.36237489641799,-4.464211859606266 L 26.193145185161654,-5.449788495301377 A 103.22202989121591 103.22202989121591 0 0 0 24.471206027250748,-5.139073415689509 Z M 58.43724144053933,-5.875567926011229 L 58.29409504090772,-4.885866401170276 A 102.22202989121591 102.22202989121591 0 0 1 60.00688271548582,-4.623296358191059 L 59.52717682721686,-1.6618976581237939 L 66.99676399702093,-3.9975490689080235 L 60.646490566511105,-8.571827958280746 L 60.166784678242145,-5.610429258213481 A 103.22202989121591 103.22202989121591 0 0 0 58.43724144053933,-5.875567926011229"/><text text-anchor="middle" pointer-events="none" font-size="8px" fill="#000000" x="42.30506563666418" y="-3.4296428459607" font-family="sans-serif">CITY…</text></g><g class="relationship" transform="translate(35.76639572169171 108.23245242467242) rotate(307.7330779388894)"><path class="outline" fill="#A5ABB6" stroke="none" d="M 20.90208894244944,-13.724164012497553 L 21.434121018964774,-12.87743981326927 A 41.778042078896334 41.778042078896334 0 0 1 22.175939951352397,-13.332845983326521 L 21.661664066737742,-14.190470793196091 A 42.778042078896334 42.778042078896334 0 0 0 20.90208894244944,-13.724164012497553 Z M 62.801411636061445,-15.760248180650763 L 62.353985077786156,-14.865927502733761 A 41.778042078896334 41.778042078896334 0 0 1 63.128350533272986,-14.468374676654525 L 61.73046518018019,-11.813960138642681 L 69.55496534748275,-11.649044609106642 L 64.99219767073005,-18.007594060670318 L 63.594312317637254,-15.353179522658474 A 42.778042078896334 42.778042078896334 0 0 0 62.801411636061445,-15.760248180650763"/><text text-anchor="middle" pointer-events="none" font-size="8px" fill="#000000" x="42.049341099628656" y="-16.75025842209085" font-family="sans-serif">CITY_C…</text></g><g class="relationship" transform="translate(35.76639572169171 108.23245242467242) rotate(397.70352187849426)"><path class="outline" fill="#A5ABB6" stroke="none" d="M 20.90208894244944,-13.724164012497553 L 21.434121018964774,-12.87743981326927 A 41.635757554256855 41.635757554256855 0 0 1 22.110895311020062,-13.293731378864486 L 21.595117875510677,-14.150453992677946 A 42.635757554256855 42.635757554256855 0 0 0 20.90208894244944,-13.724164012497553 Z M 62.72450933614672,-15.722163579106848 L 62.27561782193013,-14.828577316642871 A 41.635757554256855 41.635757554256855 0 0 1 62.98218817534544,-14.46514858133537 L 61.58460280064265,-11.810576088368407 L 69.40912155471882,-11.646544789190003 L 64.84563534161585,-18.00457857195799 L 63.44804996691305,-15.350006078991026 A 42.635757554256855 42.635757554256855 0 0 0 62.72450933614672,-15.722163579106848"/><text text-anchor="middle" pointer-events="none" font-size="8px" fill="#000000" x="41.97668729879972" y="-16.728462268679756" font-family="sans-serif">CITY_C…</text></g><g class="relationship" transform="translate(35.76639572169171 108.23245242467242) rotate(352.7261371312642)"><path class="outline" fill="#A5ABB6" stroke="none" d="M 17.324116139070416,-18.03122292025696 L 18.031222920256962,-17.324116139070412 A 63.8700601139207 63.8700601139207 0 0 1 23.170459943017384,-21.93552206345983 L 22.543817107122166,-22.71482865025427 A 64.8700601139207 64.8700601139207 0 0 0 17.324116139070416,-18.03122292025696 Z M 100.01640802414911,-25.567604086114805 L 99.44877740352257,-24.744320733600546 A 63.8700601139207 63.8700601139207 0 0 1 104.9132483479088,-20.523375451609326 L 102.95368829432996,-18.251784732219477 L 110.54022003541492,-16.329667113157008 L 107.52599508601392,-23.55216307746246 L 105.56643503243508,-21.28057235807261 A 64.8700601139207 64.8700601139207 0 0 0 100.01640802414911,-25.567604086114805"/><text text-anchor="middle" pointer-events="none" font-size="8px" fill="#000000" x="60.825480327938436" y="-33.487627139274124" font-family="sans-serif">CITY_CONNECTION</text></g><g class="relationship" transform="translate(35.76639572169171 108.23245242467242) rotate(307.7330779388894)"><path class="outline" fill="#A5ABB6" stroke="none" d="M 14.44320574945421,-20.411854586953456 L 15.247803529220876,-19.818034401379958 A 35.31401239755362 35.31401239755362 0 0 1 16.009327100283365,-20.81245683113403 L 15.22629366620728,-21.434436445847417 A 36.31401239755362 36.31401239755362 0 0 0 14.44320574945421,-20.411854586953456 Z M 69.25494944439987,-24.60978395175392 L 68.55016447970732,-23.900362952950445 A 35.31401239755362 35.31401239755362 0 0 1 69.42293054281247,-23.00199024790331 L 67.23443232681943,-20.950045911768612 L 74.57555036312561,-18.23748513327534 L 72.34092816413651,-25.737916029416247 L 70.15242994814348,-23.685971693281548 A 36.31401239755362 36.31401239755362 0 0 0 69.25494944439987,-24.60978395175392"/><text text-anchor="middle" pointer-events="none" font-size="8px" fill="#000000" x="41.560160479196725" y="-31.600180688109205" font-family="sans-serif">CITY_CONN…</text></g><g class="relationship" transform="translate(35.76639572169171 108.23245242467242) rotate(352.7261371312642)"><path class="outline" fill="#A5ABB6" stroke="none" d="M 12.066987298107785,-21.900635094610966 L 12.933012701892222,-21.400635094610966 A 58.0365917905809 58.0365917905809 0 0 1 23.64214204669146,-34.854478691980205 L 22.9606403892952,-35.586295261187374 A 59.0365917905809 59.0365917905809 0 0 0 12.066987298107785,-21.900635094610966 Z M 99.32959660193691,-39.067995615826405 L 98.71751145331389,-38.27720375266952 A 58.0365917905809 58.0365917905809 0 0 1 110.60640633425822,-25.853615809729316 L 108.15559576820685,-24.12343444081711 L 115.0519646227286,-20.423421383761468 L 113.87415375566006,-28.16052430161226 L 111.42334318960869,-26.430342932700054 A 59.0365917905809 59.0365917905809 0 0 0 99.32959660193691,-39.067995615826405"/><text text-anchor="middle" pointer-events="none" font-size="8px" fill="#000000" x="60.52823107575708" y="-47.858191639127924" font-family="sans-serif">CITY_CONNECTION</text></g><g class="relationship" transform="translate(35.76639572169171 108.23245242467242) rotate(397.70352187849426)"><path class="outline" fill="#A5ABB6" stroke="none" d="M 14.44320574945421,-20.411854586953456 L 15.247803529220876,-19.818034401379958 A 35.219928206665216 35.219928206665216 0 0 1 15.956918566494672,-20.746232436439165 L 15.172454701627341,-21.366406964066197 A 36.219928206665216 36.219928206665216 0 0 0 14.44320574945421,-20.411854586953456 Z M 69.1675161863914,-24.544573190776415 L 68.46122443250994,-23.8366523206228 A 35.219928206665216 35.219928206665216 0 0 1 69.27433372208837,-22.998052886103054 L 67.08619858420512,-20.945721378192932 L 74.42779643019253,-18.234459482360478 L 72.19184723926604,-25.73449489664988 L 70.00371210138279,-23.68216338873976 A 36.219928206665216 36.219928206665216 0 0 0 69.1675161863914,-24.544573190776415"/><text text-anchor="middle" pointer-events="none" font-size="8px" fill="#000000" x="41.486826042115666" y="-31.561942124873788" font-family="sans-serif">CITY_CONN…</text></g><g class="relationship" transform="translate(35.76639572169171 108.23245242467242) rotate(352.7261371312642)"><path class="outline" fill="#A5ABB6" stroke="none" d="M 5.987513214418485,-24.277555179777966 L 6.953439040707552,-24.018736134675446 A 58.22469486809711 58.22469486809711 0 0 1 23.358973864881847,-51.41402410409362 L 22.674810525478108,-52.14335292226545 A 59.22469486809711 59.22469486809711 0 0 0 5.987513214418485,-24.277555179777966 Z M 99.06159993346341,-56.07754265524387 L 98.4559839067073,-55.2817856394808 A 58.22469486809711 58.22469486809711 0 0 1 117.5891566332986,-29.71686676206306 L 114.78648083319746,-28.646816127967917 L 120.55305407953746,-23.355631667509577 L 121.32605770010014,-31.14360094085658 L 118.523381899999,-30.073550306761437 A 59.22469486809711 59.22469486809711 0 0 0 99.06159993346341,-56.07754265524387"/><text text-anchor="middle" pointer-events="none" font-size="8px" fill="#000000" x="60.17364961655211" y="-64.59603870762098" font-family="sans-serif">CITY_CONNECTION</text></g><g class="relationship" transform="translate(35.76639572169171 108.23245242467242) rotate(397.70352187849426)"><path class="outline" fill="#A5ABB6" stroke="none" d="M 5.987513214418485,-24.277555179777966 L 6.953439040707552,-24.018736134675446 A 37.92448605279842 37.92448605279842 0 0 1 7.602659475262904,-26.181842413475234 L 6.653852415821497,-26.49769865285346 A 38.92448605279842 38.92448605279842 0 0 0 5.987513214418485,-24.277555179777966 Z M 78.36007924946594,-31.691917295039907 L 77.46669816193015,-31.24261758167102 A 37.92448605279842 37.92448605279842 0 0 1 78.42088516643129,-29.19565810320827 L 75.66526135520111,-28.009682803726342 L 81.64743150042749,-22.963531760251502 L 82.09505024807153,-30.77695850251751 L 79.33942643684135,-29.59098320303558 A 38.92448605279842 38.92448605279842 0 0 0 78.36007924946594,-31.691917295039907"/><text text-anchor="middle" pointer-events="none" font-size="8px" fill="#000000" x="40.809580312684176" y="-49.52722765105315" font-family="sans-serif">CHEAPEST_CONNE…</text></g><g class="relationship" transform="translate(35.76639572169171 108.23245242467242) rotate(307.7330779388894)"><path class="outline" fill="#A5ABB6" stroke="none" d="M 5.987513214418485,-24.277555179777966 L 6.953439040707552,-24.018736134675446 A 38.002856388324865 38.002856388324865 0 0 1 7.634211509884032,-26.27668396174956 L 6.686199402032869,-26.59491822038239 A 39.002856388324865 39.002856388324865 0 0 0 5.987513214418485,-24.277555179777966 Z M 78.46566812000701,-31.786404029753676 L 77.57331581958728,-31.33506449909453 A 38.002856388324865 38.002856388324865 0 0 1 78.57191791930761,-29.19857827376764 L 75.81602993575954,-28.013216969297403 L 81.79707562699616,-22.965733196233863 L 82.24643523070502,-30.77906001306129 L 79.49054724715695,-29.593698708591052 A 39.002856388324865 39.002856388324865 0 0 0 78.46566812000701,-31.786404029753676"/><text text-anchor="middle" pointer-events="none" font-size="8px" fill="#000000" x="40.883896243669405" y="-49.58541910111065" font-family="sans-serif">CHEAPEST_CONNE…</text></g></g><g class="layer nodes"><g class="node" transform="translate(108.18408725356804,164.21031575772952)"><circle class="outline" cx="0" cy="0" r="25" fill="#ECB5C9" stroke="#da7298" stroke-width="2px"/><text text-anchor="middle" pointer-events="none" font-family="sans-serif" dy="1.5625" font-size="25" fill="#2A2C34"/><text text-anchor="middle" pointer-events="none" x="0" y="5" font-size="10px" fill="#2A2C34" font-family="sans-serif"> PDX</text></g><g class="node" transform="translate(164.19460201578576,91.83996396006212)"><circle class="outline" cx="0" cy="0" r="25" fill="#ECB5C9" stroke="#da7298" stroke-width="2px"/><text text-anchor="middle" pointer-events="none" font-family="sans-serif" dy="1.5625" font-size="25" fill="#2A2C34"/><text text-anchor="middle" pointer-events="none" x="0" y="5" font-size="10px" fill="#2A2C34" font-family="sans-serif"> ORD</text></g><g class="node" transform="translate(91.87005679142761,35.729344222946025)"><circle class="outline" cx="0" cy="0" r="25" fill="#ECB5C9" stroke="#da7298" stroke-width="2px"/><text text-anchor="middle" pointer-events="none" font-family="sans-serif" dy="1.5625" font-size="25" fill="#2A2C34"/><text text-anchor="middle" pointer-events="none" x="0" y="5" font-size="10px" fill="#2A2C34" font-family="sans-serif"> SFO</text></g><g class="node" transform="translate(35.76639572169171,108.23245242467242)"><circle class="outline" cx="0" cy="0" r="25" fill="#ECB5C9" stroke="#da7298" stroke-width="2px"/><text text-anchor="middle" pointer-events="none" font-family="sans-serif" dy="1.5625" font-size="25" fill="#2A2C34"/><text text-anchor="middle" pointer-events="none" x="0" y="5" font-size="10px" fill="#2A2C34" font-family="sans-serif"> IAD</text></g></g></svg>