<svg xmlns="http://www.w3.org/2000/svg" width="727.8474731445312" height="551.8646240234375" viewBox="-288.083740234375 -141.49484252929688 727.8474731445312 551.8646240234375"><title>Neo4j Graph Visualization</title><desc>Created using Neo4j (http://www.neo4j.com/)</desc><g class="layer relationships"><g class="relationship" transform="translate(262.2784465473927 237.26532331379312) rotate(482.2638615159608)"><path class="outline" fill="#A5ABB6" stroke="none" d="M 25 0.5 L 33.35670203833961 0.5 L 33.35670203833961 -0.5 L 25 -0.5 Z M 78.91920203833962 0.5 L 87.27590407667923 0.5 L 87.27590407667923 3.5 L 94.27590407667923 0 L 87.27590407667923 -3.5 L 87.27590407667923 -0.5 L 78.91920203833962 -0.5 Z"/><text text-anchor="middle" pointer-events="none" font-size="8px" fill="#000000" x="56.13795203833961" y="3" transform="rotate(180 56.13795203833961 0)" font-family="sans-serif">ACTED_IN</text></g><g class="relationship" transform="translate(262.2784465473927 237.26532331379312) rotate(431.4067732982549)"><path class="outline" fill="#A5ABB6" stroke="none" d="M 25 0.5 L 34.4922709009212 0.5 L 34.4922709009212 -0.5 L 25 -0.5 Z M 80.0547709009212 0.5 L 89.5470418018424 0.5 L 89.5470418018424 3.5 L 96.5470418018424 0 L 89.5470418018424 -3.5 L 89.5470418018424 -0.5 L 80.0547709009212 -0.5 Z"/><text text-anchor="middle" pointer-events="none" font-size="8px" fill="#000000" x="57.2735209009212" y="3" font-family="sans-serif">ACTED_IN</text></g><g class="relationship" transform="translate(262.2784465473927 237.26532331379312) rotate(298.8419165997896)"><path class="outline" fill="#A5ABB6" stroke="none" d="M 25 0.5 L 40.24782575221798 0.5 L 40.24782575221798 -0.5 L 25 -0.5 Z M 85.81032575221798 0.5 L 101.05815150443595 0.5 L 101.05815150443595 3.5 L 108.05815150443595 0 L 101.05815150443595 -3.5 L 101.05815150443595 -0.5 L 85.81032575221798 -0.5 Z"/><text text-anchor="middle" pointer-events="none" font-size="8px" fill="#000000" x="63.02907575221798" y="3" font-family="sans-serif">ACTED_IN</text></g><g class="relationship" transform="translate(262.2784465473927 237.26532331379312) rotate(272.6063339181445)"><path class="outline" fill="#A5ABB6" stroke="none" d="M 25 0.5 L 27.58534249264025 0.5 L 27.58534249264025 -0.5 L 25 -0.5 Z M 73.14784249264025 0.5 L 75.7331849852805 0.5 L 75.7331849852805 3.5 L 82.7331849852805 0 L 75.7331849852805 -3.5 L 75.7331849852805 -0.5 L 73.14784249264025 -0.5 Z"/><text text-anchor="middle" pointer-events="none" font-size="8px" fill="#000000" x="50.36659249264025" y="3" font-family="sans-serif">ACTED_IN</text></g><g class="relationship" transform="translate(357.86898541060555 217.8867826696713) rotate(252.09062320906082)"><path class="outline" fill="#A5ABB6" stroke="none" d="M 25 0.5 L 27.004724143377892 0.5 L 27.004724143377892 -0.5 L 25 -0.5 Z M 68.1180053933779 0.5 L 70.12272953675578 0.5 L 70.12272953675578 3.5 L 77.12272953675578 0 L 70.12272953675578 -3.5 L 70.12272953675578 -0.5 L 68.1180053933779 -0.5 Z"/><text text-anchor="middle" pointer-events="none" font-size="8px" fill="#000000" x="47.56136476837789" y="3" transform="rotate(180 47.56136476837789 0)" font-family="sans-serif">ACTED…</text></g><g class="relationship" transform="translate(357.86898541060555 217.8867826696713) rotate(224.2160776216582)"><path class="outline" fill="#A5ABB6" stroke="none" d="M 25 0.5 L 36.98765651488799 0.5 L 36.98765651488799 -0.5 L 25 -0.5 Z M 82.55015651488799 0.5 L 94.53781302977598 0.5 L 94.53781302977598 3.5 L 101.53781302977598 0 L 94.53781302977598 -3.5 L 94.53781302977598 -0.5 L 82.55015651488799 -0.5 Z"/><text text-anchor="middle" pointer-events="none" font-size="8px" fill="#000000" x="59.76890651488799" y="3" transform="rotate(180 59.76890651488799 0)" font-family="sans-serif">ACTED_IN</text></g><g class="relationship" transform="translate(410.7637358830117 139.78149265676979) rotate(192.74620452531246)"><path class="outline" fill="#A5ABB6" stroke="none" d="M 25 0.5 L 27.157667639345654 0.5 L 27.157667639345654 -0.5 L 25 -0.5 Z M 52.270948889345654 0.5 L 54.42861652869131 0.5 L 54.42861652869131 3.5 L 61.42861652869131 0 L 54.42861652869131 -3.5 L 54.42861652869131 -0.5 L 52.270948889345654 -0.5 Z"/><text text-anchor="middle" pointer-events="none" font-size="8px" fill="#000000" x="39.714308264345654" y="3" transform="rotate(180 39.714308264345654 0)" font-family="sans-serif">AC…</text></g><g class="relationship" transform="translate(410.7637358830117 139.78149265676979) rotate(184.03866617262207)"><path class="outline" fill="#A5ABB6" stroke="none" d="M 25 0.5 L 45.690620693359804 0.5 L 45.690620693359804 -0.5 L 25 -0.5 Z M 91.2531206933598 0.5 L 111.94374138671961 0.5 L 111.94374138671961 3.5 L 118.94374138671961 0 L 111.94374138671961 -3.5 L 111.94374138671961 -0.5 L 91.2531206933598 -0.5 Z"/><text text-anchor="middle" pointer-events="none" font-size="8px" fill="#000000" x="68.4718706933598" y="3" transform="rotate(180 68.4718706933598 0)" font-family="sans-serif">ACTED_IN</text></g><g class="relationship" transform="translate(287.0472242633884 10.145938105233844) rotate(212.4963269790096)"><path class="outline" fill="#A5ABB6" stroke="none" d="M 25 0.5 L 32.697417197356174 0.5 L 32.697417197356174 -0.5 L 25 -0.5 Z M 78.25991719735617 0.5 L 85.95733439471235 0.5 L 85.95733439471235 3.5 L 92.95733439471235 0 L 85.95733439471235 -3.5 L 85.95733439471235 -0.5 L 78.25991719735617 -0.5 Z"/><text text-anchor="middle" pointer-events="none" font-size="8px" fill="#000000" x="55.478667197356174" y="3" transform="rotate(180 55.478667197356174 0)" font-family="sans-serif">ACTED_IN</text></g><g class="relationship" transform="translate(287.0472242633884 10.145938105233844) rotate(341.19099120001124)"><path class="outline" fill="#A5ABB6" stroke="none" d="M 25 0.5 L 33.903309566556786 0.5 L 33.903309566556786 -0.5 L 25 -0.5 Z M 79.46580956655679 0.5 L 88.36911913311357 0.5 L 88.36911913311357 3.5 L 95.36911913311357 0 L 88.36911913311357 -3.5 L 88.36911913311357 -0.5 L 79.46580956655679 -0.5 Z"/><text text-anchor="middle" pointer-events="none" font-size="8px" fill="#000000" x="56.684559566556786" y="3" font-family="sans-serif">ACTED_IN</text></g><g class="relationship" transform="translate(287.0472242633884 10.145938105233844) rotate(294.2004661560527)"><path class="outline" fill="#A5ABB6" stroke="none" d="M 25 0.5 L 35.77115822996477 0.5 L 35.77115822996477 -0.5 L 25 -0.5 Z M 81.33365822996477 0.5 L 92.10481645992954 0.5 L 92.10481645992954 3.5 L 99.10481645992954 0 L 92.10481645992954 -3.5 L 92.10481645992954 -0.5 L 81.33365822996477 -0.5 Z"/><text text-anchor="middle" pointer-events="none" font-size="8px" fill="#000000" x="58.55240822996477" y="3" font-family="sans-serif">ACTED_IN</text></g><g class="relationship" transform="translate(287.0472242633884 10.145938105233844) rotate(254.632099985092)"><path class="outline" fill="#A5ABB6" stroke="none" d="M 25 0.5 L 37.3130197976307 0.5 L 37.3130197976307 -0.5 L 25 -0.5 Z M 82.8755197976307 0.5 L 95.1885395952614 0.5 L 95.1885395952614 3.5 L 102.1885395952614 0 L 95.1885395952614 -3.5 L 95.1885395952614 -0.5 L 82.8755197976307 -0.5 Z"/><text text-anchor="middle" pointer-events="none" font-size="8px" fill="#000000" x="60.0942697976307" y="3" transform="rotate(180 60.0942697976307 0)" font-family="sans-serif">ACTED_IN</text></g><g class="relationship" transform="translate(287.0472242633884 10.145938105233844) rotate(430.37849011867326)"><path class="outline" fill="#A5ABB6" stroke="none" d="M 25 0.5 L 32.41015719810234 0.5 L 32.41015719810234 -0.5 L 25 -0.5 Z M 77.97265719810234 0.5 L 85.38281439620468 0.5 L 85.38281439620468 3.5 L 92.38281439620468 0 L 85.38281439620468 -3.5 L 85.38281439620468 -0.5 L 77.97265719810234 -0.5 Z"/><text text-anchor="middle" pointer-events="none" font-size="8px" fill="#000000" x="55.19140719810234" y="3" font-family="sans-serif">ACTED_IN</text></g><g class="relationship" transform="translate(287.0472242633884 10.145938105233844) rotate(459.4406312360924)"><path class="outline" fill="#A5ABB6" stroke="none" d="M 25 0.5 L 34.287915727899076 0.5 L 34.287915727899076 -0.5 L 25 -0.5 Z M 79.85041572789908 0.5 L 89.13833145579815 0.5 L 89.13833145579815 3.5 L 96.13833145579815 0 L 89.13833145579815 -3.5 L 89.13833145579815 -0.5 L 79.85041572789908 -0.5 Z"/><text text-anchor="middle" pointer-events="none" font-size="8px" fill="#000000" x="57.069165727899076" y="3" transform="rotate(180 57.069165727899076 0)" font-family="sans-serif">ACTED_IN</text></g><g class="relationship" transform="translate(-200.56531121668536 232.151775144154) rotate(322.31503861306476)"><path class="outline" fill="#A5ABB6" stroke="none" d="M 25 0.5 L 38.14577009534433 0.5 L 38.14577009534433 -0.5 L 25 -0.5 Z M 83.70827009534433 0.5 L 96.85404019068866 0.5 L 96.85404019068866 3.5 L 103.85404019068866 0 L 96.85404019068866 -3.5 L 96.85404019068866 -0.5 L 83.70827009534433 -0.5 Z"/><text text-anchor="middle" pointer-events="none" font-size="8px" fill="#000000" x="60.92702009534433" y="3" font-family="sans-serif">ACTED_IN</text></g><g class="relationship" transform="translate(-200.56531121668536 232.151775144154) rotate(295.72651962452085)"><path class="outline" fill="#A5ABB6" stroke="none" d="M 25 0.5 L 25.339639868866428 0.5 L 25.339639868866428 -0.5 L 25 -0.5 Z M 66.45292111886643 0.5 L 66.79256098773286 0.5 L 66.79256098773286 3.5 L 73.79256098773286 0 L 66.79256098773286 -3.5 L 66.79256098773286 -0.5 L 66.45292111886643 -0.5 Z"/><text text-anchor="middle" pointer-events="none" font-size="8px" fill="#000000" x="45.89628049386643" y="3" font-family="sans-serif">ACTED…</text></g><g class="relationship" transform="translate(-36.56604484871755 87.658493040908) rotate(493.3427561705773)"><path class="outline" fill="#A5ABB6" stroke="none" d="M 25 0.5 L 26.684834131159654 0.5 L 26.684834131159654 -0.5 L 25 -0.5 Z M 56.684834131159654 0.5 L 58.36966826231931 0.5 L 58.36966826231931 3.5 L 65.36966826231931 0 L 58.36966826231931 -3.5 L 58.36966826231931 -0.5 L 56.684834131159654 -0.5 Z"/><text text-anchor="middle" pointer-events="none" font-size="8px" fill="#000000" x="41.684834131159654" y="3" transform="rotate(180 41.684834131159654 0)" font-family="sans-serif">ACT…</text></g><g class="relationship" transform="translate(-36.56604484871755 87.658493040908) rotate(515.3834657561299)"><path class="outline" fill="#A5ABB6" stroke="none" d="M 25 0.5 L 40.33059266418634 0.5 L 40.33059266418634 -0.5 L 25 -0.5 Z M 85.89309266418634 0.5 L 101.22368532837268 0.5 L 101.22368532837268 3.5 L 108.22368532837268 0 L 101.22368532837268 -3.5 L 101.22368532837268 -0.5 L 85.89309266418634 -0.5 Z"/><text text-anchor="middle" pointer-events="none" font-size="8px" fill="#000000" x="63.11184266418634" y="3" transform="rotate(180 63.11184266418634 0)" font-family="sans-serif">ACTED_IN</text></g><g class="relationship" transform="translate(-142.033681910505 29.312430729466765) rotate(430.7027682309283)"><path class="outline" fill="#A5ABB6" stroke="none" d="M 25 0.5 L 39.44567995946869 0.5 L 39.44567995946869 -0.5 L 25 -0.5 Z M 85.00817995946869 0.5 L 99.45385991893738 0.5 L 99.45385991893738 3.5 L 106.45385991893738 0 L 99.45385991893738 -3.5 L 99.45385991893738 -0.5 L 85.00817995946869 -0.5 Z"/><text text-anchor="middle" pointer-events="none" font-size="8px" fill="#000000" x="62.22692995946869" y="3" font-family="sans-serif">ACTED_IN</text></g><g class="relationship" transform="translate(-142.033681910505 29.312430729466765) rotate(312.219551432771)"><path class="outline" fill="#A5ABB6" stroke="none" d="M 25 0.5 L 36.43188333562494 0.5 L 36.43188333562494 -0.5 L 25 -0.5 Z M 81.99438333562495 0.5 L 93.42626667124988 0.5 L 93.42626667124988 3.5 L 100.42626667124988 0 L 93.42626667124988 -3.5 L 93.42626667124988 -0.5 L 81.99438333562495 -0.5 Z"/><text text-anchor="middle" pointer-events="none" font-size="8px" fill="#000000" x="59.21313333562494" y="3" font-family="sans-serif">ACTED_IN</text></g><g class="relationship" transform="translate(-142.033681910505 29.312430729466765) rotate(273.37880573225306)"><path class="outline" fill="#A5ABB6" stroke="none" d="M 25 0.5 L 37.63677971982978 0.5 L 37.63677971982978 -0.5 L 25 -0.5 Z M 83.19927971982978 0.5 L 95.83605943965956 0.5 L 95.83605943965956 3.5 L 102.83605943965956 0 L 95.83605943965956 -3.5 L 95.83605943965956 -0.5 L 83.19927971982978 -0.5 Z"/><text text-anchor="middle" pointer-events="none" font-size="8px" fill="#000000" x="60.41802971982978" y="3" font-family="sans-serif">ACTED_IN</text></g><g class="relationship" transform="translate(-142.033681910505 29.312430729466765) rotate(230.11841255808127)"><path class="outline" fill="#A5ABB6" stroke="none" d="M 25 0.5 L 33.97341034450888 0.5 L 33.97341034450888 -0.5 L 25 -0.5 Z M 79.53591034450888 0.5 L 88.50932068901776 0.5 L 88.50932068901776 3.5 L 95.50932068901776 0 L 88.50932068901776 -3.5 L 88.50932068901776 -0.5 L 79.53591034450888 -0.5 Z"/><text text-anchor="middle" pointer-events="none" font-size="8px" fill="#000000" x="56.75466034450888" y="3" transform="rotate(180 56.75466034450888 0)" font-family="sans-serif">ACTED_IN</text></g><g class="relationship" transform="translate(-142.033681910505 29.312430729466765) rotate(457.82671091907883)"><path class="outline" fill="#A5ABB6" stroke="none" d="M 25 0.5 L 31.173712384788494 0.5 L 31.173712384788494 -0.5 L 25 -0.5 Z M 76.7362123847885 0.5 L 82.90992476957699 0.5 L 82.90992476957699 3.5 L 89.90992476957699 0 L 82.90992476957699 -3.5 L 82.90992476957699 -0.5 L 76.7362123847885 -0.5 Z"/><text text-anchor="middle" pointer-events="none" font-size="8px" fill="#000000" x="53.954962384788494" y="3" transform="rotate(180 53.954962384788494 0)" font-family="sans-serif">ACTED_IN</text></g><g class="relationship" transform="translate(-142.033681910505 29.312430729466765) rotate(535.5686354102916)"><path class="outline" fill="#A5ABB6" stroke="none" d="M 25 0.5 L 32.41925487857856 0.5 L 32.41925487857856 -0.5 L 25 -0.5 Z M 77.98175487857856 0.5 L 85.40100975715713 0.5 L 85.40100975715713 3.5 L 92.40100975715713 0 L 85.40100975715713 -3.5 L 85.40100975715713 -0.5 L 77.98175487857856 -0.5 Z"/><text text-anchor="middle" pointer-events="none" font-size="8px" fill="#000000" x="55.20050487857856" y="3" transform="rotate(180 55.20050487857856 0)" font-family="sans-serif">ACTED_IN</text></g><g class="relationship" transform="translate(-99.07351492271866 261.38420968861976) rotate(243.63216955872622)"><path class="outline" fill="#A5ABB6" stroke="none" d="M 25 0.5 L 39.699449344934564 0.5 L 39.699449344934564 -0.5 L 25 -0.5 Z M 85.26194934493456 0.5 L 99.96139868986913 0.5 L 99.96139868986913 3.5 L 106.96139868986913 0 L 99.96139868986913 -3.5 L 99.96139868986913 -0.5 L 85.26194934493456 -0.5 Z"/><text text-anchor="middle" pointer-events="none" font-size="8px" fill="#000000" x="62.480699344934564" y="3" transform="rotate(180 62.480699344934564 0)" font-family="sans-serif">ACTED_IN</text></g><g class="relationship" transform="translate(-99.07351492271866 261.38420968861976) rotate(388.32890595846686)"><path class="outline" fill="#A5ABB6" stroke="none" d="M 25 0.5 L 31.633703674193136 0.5 L 31.633703674193136 -0.5 L 25 -0.5 Z M 77.19620367419313 0.5 L 83.82990734838627 0.5 L 83.82990734838627 3.5 L 90.82990734838627 0 L 83.82990734838627 -3.5 L 83.82990734838627 -0.5 L 77.19620367419313 -0.5 Z"/><text text-anchor="middle" pointer-events="none" font-size="8px" fill="#000000" x="54.414953674193136" y="3" font-family="sans-serif">ACTED_IN</text></g><g class="relationship" transform="translate(-99.07351492271866 261.38420968861976) rotate(270.2552914623835)"><path class="outline" fill="#A5ABB6" stroke="none" d="M 25 0.5 L 27.720986990526406 0.5 L 27.720986990526406 -0.5 L 25 -0.5 Z M 73.2834869905264 0.5 L 76.00447398105281 0.5 L 76.00447398105281 3.5 L 83.00447398105281 0 L 76.00447398105281 -3.5 L 76.00447398105281 -0.5 L 73.2834869905264 -0.5 Z"/><text text-anchor="middle" pointer-events="none" font-size="8px" fill="#000000" x="50.502236990526406" y="3" font-family="sans-serif">ACTED_IN</text></g><g class="relationship" transform="translate(-99.07351492271866 261.38420968861976) rotate(444.6132331313587)"><path class="outline" fill="#A5ABB6" stroke="none" d="M 25 0.5 L 33.9776469281551 0.5 L 33.9776469281551 -0.5 L 25 -0.5 Z M 79.54014692815511 0.5 L 88.5177938563102 0.5 L 88.5177938563102 3.5 L 95.5177938563102 0 L 88.5177938563102 -3.5 L 88.5177938563102 -0.5 L 79.54014692815511 -0.5 Z"/><text text-anchor="middle" pointer-events="none" font-size="8px" fill="#000000" x="56.7588969281551" y="3" font-family="sans-serif">ACTED_IN</text></g></g><g class="layer nodes"><g class="node" transform="translate(198.6066900107136,338.1248727518262)"><circle class="outline" cx="0" cy="0" r="25" fill="#57C7E3" stroke="#23b3d7" stroke-width="2px"/><text text-anchor="middle" pointer-events="none" font-family="sans-serif" dy="1.5625" font-size="25" fill="#2A2C34"/><text text-anchor="middle" pointer-events="none" font-family="sans-serif" dy="1.5625" font-size="25" fill="#2A2C34"/><text text-anchor="middle" pointer-events="none" x="0" y="0" font-size="10px" fill="#2A2C34" font-family="sans-serif"> Cloud</text><text text-anchor="middle" pointer-events="none" x="0" y="10" font-size="10px" fill="#2A2C34" font-family="sans-serif"> Atlas</text></g><g class="node" transform="translate(262.2784465473927,237.26532331379312)"><circle class="outline" cx="0" cy="0" r="25" fill="#F79767" stroke="#f36924" stroke-width="2px"/><text text-anchor="middle" pointer-events="none" font-family="sans-serif" dy="1.5625" font-size="25" fill="#FFFFFF"/><text text-anchor="middle" pointer-events="none" font-family="sans-serif" dy="1.5625" font-size="25" fill="#FFFFFF"/><text text-anchor="middle" pointer-events="none" x="0" y="0" font-size="10px" fill="#FFFFFF" font-family="sans-serif"> Hugo</text><text text-anchor="middle" pointer-events="none" x="0" y="10" font-size="10px" fill="#FFFFFF" font-family="sans-serif"> Weaving</text></g><g class="node" transform="translate(301.03338843632514,352.46835213666867)"><circle class="outline" cx="0" cy="0" r="25" fill="#57C7E3" stroke="#23b3d7" stroke-width="2px"/><text text-anchor="middle" pointer-events="none" font-family="sans-serif" dy="1.5625" font-size="25" fill="#2A2C34"/><text text-anchor="middle" pointer-events="none" font-family="sans-serif" dy="1.5625" font-size="25" fill="#2A2C34"/><text text-anchor="middle" pointer-events="none" x="0" y="0" font-size="10px" fill="#2A2C34" font-family="sans-serif"> V for</text><text text-anchor="middle" pointer-events="none" x="0" y="10" font-size="10px" fill="#2A2C34" font-family="sans-serif"> Vendetta</text></g><g class="node" transform="translate(326.4649850974226,120.71250288141162)"><circle class="outline" cx="0" cy="0" r="25" fill="#57C7E3" stroke="#23b3d7" stroke-width="2px"/><text text-anchor="middle" pointer-events="none" font-family="sans-serif" dy="1.5625" font-size="25" fill="#2A2C34"/><text text-anchor="middle" pointer-events="none" font-family="sans-serif" dy="1.5625" font-size="25" fill="#2A2C34"/><text text-anchor="middle" pointer-events="none" font-family="sans-serif" dy="1.5625" font-size="25" fill="#2A2C34"/><text text-anchor="middle" pointer-events="none" x="0" y="-5" font-size="10px" fill="#2A2C34" font-family="sans-serif"> The</text><text text-anchor="middle" pointer-events="none" x="0" y="5" font-size="10px" fill="#2A2C34" font-family="sans-serif"> Matrix</text><text text-anchor="middle" pointer-events="none" x="0" y="15" font-size="10px" fill="#2A2C34" font-family="sans-serif"> Revol…</text></g><g class="node" transform="translate(267.17744310759156,129.64358303899627)"><circle class="outline" cx="0" cy="0" r="25" fill="#57C7E3" stroke="#23b3d7" stroke-width="2px"/><text text-anchor="middle" pointer-events="none" font-family="sans-serif" dy="1.5625" font-size="25" fill="#2A2C34"/><text text-anchor="middle" pointer-events="none" font-family="sans-serif" dy="1.5625" font-size="25" fill="#2A2C34"/><text text-anchor="middle" pointer-events="none" font-family="sans-serif" dy="1.5625" font-size="25" fill="#2A2C34"/><text text-anchor="middle" pointer-events="none" x="0" y="-5" font-size="10px" fill="#2A2C34" font-family="sans-serif"> The</text><text text-anchor="middle" pointer-events="none" x="0" y="5" font-size="10px" fill="#2A2C34" font-family="sans-serif"> Matrix</text><text text-anchor="middle" pointer-events="none" x="0" y="15" font-size="10px" fill="#2A2C34" font-family="sans-serif"> Reloa…</text></g><g class="node" transform="translate(357.86898541060555,217.8867826696713)"><circle class="outline" cx="0" cy="0" r="25" fill="#F79767" stroke="#f36924" stroke-width="2px"/><text text-anchor="middle" pointer-events="none" font-family="sans-serif" dy="1.5625" font-size="25" fill="#FFFFFF"/><text text-anchor="middle" pointer-events="none" font-family="sans-serif" dy="1.5625" font-size="25" fill="#FFFFFF"/><text text-anchor="middle" pointer-events="none" x="0" y="0" font-size="10px" fill="#FFFFFF" font-family="sans-serif"> Laurence</text><text text-anchor="middle" pointer-events="none" x="0" y="10" font-size="10px" fill="#FFFFFF" font-family="sans-serif"> Fishbur…</text></g><g class="node" transform="translate(410.7637358830117,139.78149265676979)"><circle class="outline" cx="0" cy="0" r="25" fill="#F79767" stroke="#f36924" stroke-width="2px"/><text text-anchor="middle" pointer-events="none" font-family="sans-serif" dy="1.5625" font-size="25" fill="#FFFFFF"/><text text-anchor="middle" pointer-events="none" x="0" y="5" font-size="10px" fill="#FFFFFF" font-family="sans-serif"> Carrie-A…</text></g><g class="node" transform="translate(187.55895471118242,-53.22611377107514)"><circle class="outline" cx="0" cy="0" r="25" fill="#57C7E3" stroke="#23b3d7" stroke-width="2px"/><text text-anchor="middle" pointer-events="none" font-family="sans-serif" dy="1.5625" font-size="25" fill="#2A2C34"/><text text-anchor="middle" pointer-events="none" font-family="sans-serif" dy="1.5625" font-size="25" fill="#2A2C34"/><text text-anchor="middle" pointer-events="none" x="0" y="0" font-size="10px" fill="#2A2C34" font-family="sans-serif"> The</text><text text-anchor="middle" pointer-events="none" x="0" y="10" font-size="10px" fill="#2A2C34" font-family="sans-serif"> Replac…</text></g><g class="node" transform="translate(287.0472242633884,10.145938105233844)"><circle class="outline" cx="0" cy="0" r="25" fill="#F79767" stroke="#f36924" stroke-width="2px"/><text text-anchor="middle" pointer-events="none" font-family="sans-serif" dy="1.5625" font-size="25" fill="#FFFFFF"/><text text-anchor="middle" pointer-events="none" font-family="sans-serif" dy="1.5625" font-size="25" fill="#FFFFFF"/><text text-anchor="middle" pointer-events="none" x="0" y="0" font-size="10px" fill="#FFFFFF" font-family="sans-serif"> Keanu</text><text text-anchor="middle" pointer-events="none" x="0" y="10" font-size="10px" fill="#FFFFFF" font-family="sans-serif"> Reeves</text></g><g class="node" transform="translate(400.9884612146342,-28.66281558387277)"><circle class="outline" cx="0" cy="0" r="25" fill="#57C7E3" stroke="#23b3d7" stroke-width="2px"/><text text-anchor="middle" pointer-events="none" font-family="sans-serif" dy="1.5625" font-size="25" fill="#2A2C34"/><text text-anchor="middle" pointer-events="none" font-family="sans-serif" dy="1.5625" font-size="25" fill="#2A2C34"/><text text-anchor="middle" pointer-events="none" x="0" y="0" font-size="10px" fill="#2A2C34" font-family="sans-serif"> Johnny</text><text text-anchor="middle" pointer-events="none" x="0" y="10" font-size="10px" fill="#2A2C34" font-family="sans-serif"> Mnemo…</text></g><g class="node" transform="translate(337.9215681175431,-103.05214759395999)"><circle class="outline" cx="0" cy="0" r="25" fill="#57C7E3" stroke="#23b3d7" stroke-width="2px"/><text text-anchor="middle" pointer-events="none" font-family="sans-serif" dy="1.5625" font-size="25" fill="#2A2C34"/><text text-anchor="middle" pointer-events="none" x="0" y="5" font-size="10px" fill="#2A2C34" font-family="sans-serif"> Somethi…</text></g><g class="node" transform="translate(253.34023376142522,-112.49485199200886)"><circle class="outline" cx="0" cy="0" r="25" fill="#57C7E3" stroke="#23b3d7" stroke-width="2px"/><text text-anchor="middle" pointer-events="none" font-family="sans-serif" dy="1.5625" font-size="25" fill="#2A2C34"/><text text-anchor="middle" pointer-events="none" font-family="sans-serif" dy="1.5625" font-size="25" fill="#2A2C34"/><text text-anchor="middle" pointer-events="none" font-family="sans-serif" dy="1.5625" font-size="25" fill="#2A2C34"/><text text-anchor="middle" pointer-events="none" x="0" y="-5" font-size="10px" fill="#2A2C34" font-family="sans-serif"> The</text><text text-anchor="middle" pointer-events="none" x="0" y="5" font-size="10px" fill="#2A2C34" font-family="sans-serif"> Devil's</text><text text-anchor="middle" pointer-events="none" x="0" y="15" font-size="10px" fill="#2A2C34" font-family="sans-serif"> Advoc…</text></g><g class="node" transform="translate(-98.59228351077971,153.38080781510433)"><circle class="outline" cx="0" cy="0" r="25" fill="#57C7E3" stroke="#23b3d7" stroke-width="2px"/><text text-anchor="middle" pointer-events="none" font-family="sans-serif" dy="1.5625" font-size="25" fill="#2A2C34"/><text text-anchor="middle" pointer-events="none" font-family="sans-serif" dy="1.5625" font-size="25" fill="#2A2C34"/><text text-anchor="middle" pointer-events="none" font-family="sans-serif" dy="1.5625" font-size="25" fill="#2A2C34"/><text text-anchor="middle" pointer-events="none" x="0" y="-5" font-size="10px" fill="#2A2C34" font-family="sans-serif"> The</text><text text-anchor="middle" pointer-events="none" x="0" y="5" font-size="10px" fill="#2A2C34" font-family="sans-serif"> Matrix</text><text text-anchor="middle" pointer-events="none" x="0" y="15" font-size="10px" fill="#2A2C34" font-family="sans-serif"> Reloa…</text></g><g class="node" transform="translate(-200.56531121668536,232.151775144154)"><circle class="outline" cx="0" cy="0" r="25" fill="#F79767" stroke="#f36924" stroke-width="2px"/><text text-anchor="middle" pointer-events="none" font-family="sans-serif" dy="1.5625" font-size="25" fill="#FFFFFF"/><text text-anchor="middle" pointer-events="none" font-family="sans-serif" dy="1.5625" font-size="25" fill="#FFFFFF"/><text text-anchor="middle" pointer-events="none" x="0" y="0" font-size="10px" fill="#FFFFFF" font-family="sans-serif"> Laurence</text><text text-anchor="middle" pointer-events="none" x="0" y="10" font-size="10px" fill="#FFFFFF" font-family="sans-serif"> Fishbur…</text></g><g class="node" transform="translate(-157.68182104999906,143.15190785414825)"><circle class="outline" cx="0" cy="0" r="25" fill="#57C7E3" stroke="#23b3d7" stroke-width="2px"/><text text-anchor="middle" pointer-events="none" font-family="sans-serif" dy="1.5625" font-size="25" fill="#2A2C34"/><text text-anchor="middle" pointer-events="none" font-family="sans-serif" dy="1.5625" font-size="25" fill="#2A2C34"/><text text-anchor="middle" pointer-events="none" font-family="sans-serif" dy="1.5625" font-size="25" fill="#2A2C34"/><text text-anchor="middle" pointer-events="none" x="0" y="-5" font-size="10px" fill="#2A2C34" font-family="sans-serif"> The</text><text text-anchor="middle" pointer-events="none" x="0" y="5" font-size="10px" fill="#2A2C34" font-family="sans-serif"> Matrix</text><text text-anchor="middle" pointer-events="none" x="0" y="15" font-size="10px" fill="#2A2C34" font-family="sans-serif"> Revol…</text></g><g class="node" transform="translate(-36.56604484871755,87.658493040908)"><circle class="outline" cx="0" cy="0" r="25" fill="#F79767" stroke="#f36924" stroke-width="2px"/><text text-anchor="middle" pointer-events="none" font-family="sans-serif" dy="1.5625" font-size="25" fill="#FFFFFF"/><text text-anchor="middle" pointer-events="none" x="0" y="5" font-size="10px" fill="#FFFFFF" font-family="sans-serif"> Carrie-A…</text></g><g class="node" transform="translate(-142.033681910505,29.312430729466765)"><circle class="outline" cx="0" cy="0" r="25" fill="#F79767" stroke="#f36924" stroke-width="2px"/><text text-anchor="middle" pointer-events="none" font-family="sans-serif" dy="1.5625" font-size="25" fill="#FFFFFF"/><text text-anchor="middle" pointer-events="none" font-family="sans-serif" dy="1.5625" font-size="25" fill="#FFFFFF"/><text text-anchor="middle" pointer-events="none" x="0" y="0" font-size="10px" fill="#FFFFFF" font-family="sans-serif"> Keanu</text><text text-anchor="middle" pointer-events="none" x="0" y="10" font-size="10px" fill="#FFFFFF" font-family="sans-serif"> Reeves</text></g><g class="node" transform="translate(-57.750574564757386,-63.57516902008361)"><circle class="outline" cx="0" cy="0" r="25" fill="#57C7E3" stroke="#23b3d7" stroke-width="2px"/><text text-anchor="middle" pointer-events="none" font-family="sans-serif" dy="1.5625" font-size="25" fill="#2A2C34"/><text text-anchor="middle" pointer-events="none" font-family="sans-serif" dy="1.5625" font-size="25" fill="#2A2C34"/><text text-anchor="middle" pointer-events="none" x="0" y="0" font-size="10px" fill="#2A2C34" font-family="sans-serif"> The</text><text text-anchor="middle" pointer-events="none" x="0" y="10" font-size="10px" fill="#2A2C34" font-family="sans-serif"> Replac…</text></g><g class="node" transform="translate(-134.49939390124013,-98.30141098550402)"><circle class="outline" cx="0" cy="0" r="25" fill="#57C7E3" stroke="#23b3d7" stroke-width="2px"/><text text-anchor="middle" pointer-events="none" font-family="sans-serif" dy="1.5625" font-size="25" fill="#2A2C34"/><text text-anchor="middle" pointer-events="none" font-family="sans-serif" dy="1.5625" font-size="25" fill="#2A2C34"/><text text-anchor="middle" pointer-events="none" font-family="sans-serif" dy="1.5625" font-size="25" fill="#2A2C34"/><text text-anchor="middle" pointer-events="none" x="0" y="-5" font-size="10px" fill="#2A2C34" font-family="sans-serif"> The</text><text text-anchor="middle" pointer-events="none" x="0" y="5" font-size="10px" fill="#2A2C34" font-family="sans-serif"> Devil's</text><text text-anchor="middle" pointer-events="none" x="0" y="15" font-size="10px" fill="#2A2C34" font-family="sans-serif"> Advoc…</text></g><g class="node" transform="translate(-219.30462738895122,-63.162957119384764)"><circle class="outline" cx="0" cy="0" r="25" fill="#57C7E3" stroke="#23b3d7" stroke-width="2px"/><text text-anchor="middle" pointer-events="none" font-family="sans-serif" dy="1.5625" font-size="25" fill="#2A2C34"/><text text-anchor="middle" pointer-events="none" x="0" y="5" font-size="10px" fill="#2A2C34" font-family="sans-serif"> Somethi…</text></g><g class="node" transform="translate(-259.0837337541127,38.38339845120704)"><circle class="outline" cx="0" cy="0" r="25" fill="#57C7E3" stroke="#23b3d7" stroke-width="2px"/><text text-anchor="middle" pointer-events="none" font-family="sans-serif" dy="1.5625" font-size="25" fill="#2A2C34"/><text text-anchor="middle" pointer-events="none" font-family="sans-serif" dy="1.5625" font-size="25" fill="#2A2C34"/><text text-anchor="middle" pointer-events="none" x="0" y="0" font-size="10px" fill="#2A2C34" font-family="sans-serif"> Johnny</text><text text-anchor="middle" pointer-events="none" x="0" y="10" font-size="10px" fill="#2A2C34" font-family="sans-serif"> Mnemo…</text></g><g class="node" transform="translate(-99.07351492271866,261.38420968861976)"><circle class="outline" cx="0" cy="0" r="25" fill="#F79767" stroke="#f36924" stroke-width="2px"/><text text-anchor="middle" pointer-events="none" font-family="sans-serif" dy="1.5625" font-size="25" fill="#FFFFFF"/><text text-anchor="middle" pointer-events="none" font-family="sans-serif" dy="1.5625" font-size="25" fill="#FFFFFF"/><text text-anchor="middle" pointer-events="none" x="0" y="0" font-size="10px" fill="#FFFFFF" font-family="sans-serif"> Hugo</text><text text-anchor="middle" pointer-events="none" x="0" y="10" font-size="10px" fill="#FFFFFF" font-family="sans-serif"> Weaving</text></g><g class="node" transform="translate(2.884378243206489,316.3492481903942)"><circle class="outline" cx="0" cy="0" r="25" fill="#57C7E3" stroke="#23b3d7" stroke-width="2px"/><text text-anchor="middle" pointer-events="none" font-family="sans-serif" dy="1.5625" font-size="25" fill="#2A2C34"/><text text-anchor="middle" pointer-events="none" font-family="sans-serif" dy="1.5625" font-size="25" fill="#2A2C34"/><text text-anchor="middle" pointer-events="none" x="0" y="0" font-size="10px" fill="#2A2C34" font-family="sans-serif"> Cloud</text><text text-anchor="middle" pointer-events="none" x="0" y="10" font-size="10px" fill="#2A2C34" font-family="sans-serif"> Atlas</text></g><g class="node" transform="translate(-87.75950038365414,381.36975761420086)"><circle class="outline" cx="0" cy="0" r="25" fill="#57C7E3" stroke="#23b3d7" stroke-width="2px"/><text text-anchor="middle" pointer-events="none" font-family="sans-serif" dy="1.5625" font-size="25" fill="#2A2C34"/><text text-anchor="middle" pointer-events="none" font-family="sans-serif" dy="1.5625" font-size="25" fill="#2A2C34"/><text text-anchor="middle" pointer-events="none" x="0" y="0" font-size="10px" fill="#2A2C34" font-family="sans-serif"> V for</text><text text-anchor="middle" pointer-events="none" x="0" y="10" font-size="10px" fill="#2A2C34" font-family="sans-serif"> Vendetta</text></g></g></svg>