<svg xmlns="http://www.w3.org/2000/svg" width="287.9701232910156" height="285.85272216796875" viewBox="-48.430625915527344 -52.00897979736328 287.9701232910156 285.85272216796875"><title>Neo4j Graph Visualization</title><desc>Created using Neo4j (http://www.neo4j.com/)</desc><g class="layer relationships"><g class="relationship" transform="translate(133.79813076167488 204.84377194367835) rotate(250.1155631856219)"><path class="outline" fill="#A5ABB6" stroke="none" d="M 25 0.5 L 33.95246484600703 0.5 L 33.95246484600703 -0.5 L 25 -0.5 Z M 79.51496484600703 0.5 L 88.46742969201406 0.5 L 88.46742969201406 3.5 L 95.46742969201406 0 L 88.46742969201406 -3.5 L 88.46742969201406 -0.5 L 79.51496484600703 -0.5 Z"/><text text-anchor="middle" pointer-events="none" font-size="8px" fill="#000000" x="56.73371484600703" y="3" transform="rotate(180 56.73371484600703 0)" font-family="sans-serif">ACTED_IN</text></g><g class="relationship" transform="translate(197.65721183836362 150.969704341019) rotate(209.54118818207337)"><path class="outline" fill="#A5ABB6" stroke="none" d="M 25 0.5 L 33.967475234453644 0.5 L 33.967475234453644 -0.5 L 25 -0.5 Z M 79.52997523445364 0.5 L 88.49745046890729 0.5 L 88.49745046890729 3.5 L 95.49745046890729 0 L 88.49745046890729 -3.5 L 88.49745046890729 -0.5 L 79.52997523445364 -0.5 Z"/><text text-anchor="middle" pointer-events="none" font-size="8px" fill="#000000" x="56.748725234453644" y="3" transform="rotate(180 56.748725234453644 0)" font-family="sans-serif">ACTED_IN</text></g><g class="relationship" transform="translate(210.53948057843306 64.70212860292662) rotate(527.1480929828563)"><path class="outline" fill="#A5ABB6" stroke="none" d="M 25 0.5 L 34.088738978629415 0.5 L 34.088738978629415 -0.5 L 25 -0.5 Z M 79.65123897862941 0.5 L 88.73997795725883 0.5 L 88.73997795725883 3.5 L 95.73997795725883 0 L 88.73997795725883 -3.5 L 88.73997795725883 -0.5 L 79.65123897862941 -0.5 Z"/><text text-anchor="middle" pointer-events="none" font-size="8px" fill="#000000" x="56.869988978629415" y="3" transform="rotate(180 56.869988978629415 0)" font-family="sans-serif">ACTED_IN</text></g><g class="relationship" transform="translate(154.2109619182987 -11.889740735816213) rotate(480.6850978355935)"><path class="outline" fill="#A5ABB6" stroke="none" d="M 25 0.5 L 38.75867989471214 0.5 L 38.75867989471214 -0.5 L 25 -0.5 Z M 74.53211739471215 0.5 L 88.29079728942428 0.5 L 88.29079728942428 3.5 L 95.29079728942428 0 L 88.29079728942428 -3.5 L 88.29079728942428 -0.5 L 74.53211739471215 -0.5 Z"/><text text-anchor="middle" pointer-events="none" font-size="8px" fill="#000000" x="56.64539864471214" y="3" transform="rotate(180 56.64539864471214 0)" font-family="sans-serif">WROTE</text></g><g class="relationship" transform="translate(58.51809529684568 -23.008980936697206) rotate(433.33017086618503)"><path class="outline" fill="#A5ABB6" stroke="none" d="M 25 0.5 L 33.51555209452265 0.5 L 33.51555209452265 -0.5 L 25 -0.5 Z M 79.07805209452265 0.5 L 87.5936041890453 0.5 L 87.5936041890453 3.5 L 94.5936041890453 0 L 87.5936041890453 -3.5 L 87.5936041890453 -0.5 L 79.07805209452265 -0.5 Z"/><text text-anchor="middle" pointer-events="none" font-size="8px" fill="#000000" x="56.29680209452265" y="3" font-family="sans-serif">ACTED_IN</text></g><g class="relationship" transform="translate(-14.267098489737867 38.3867693917376) rotate(386.4047932498889)"><path class="outline" fill="#A5ABB6" stroke="none" d="M 25 0.5 L 38.39579297013416 0.5 L 38.39579297013416 -0.5 L 25 -0.5 Z M 74.16923047013415 0.5 L 87.56502344026832 0.5 L 87.56502344026832 3.5 L 94.56502344026832 0 L 87.56502344026832 -3.5 L 87.56502344026832 -0.5 L 74.16923047013415 -0.5 Z"/><text text-anchor="middle" pointer-events="none" font-size="8px" fill="#000000" x="56.28251172013416" y="3" font-family="sans-serif">WROTE</text></g><g class="relationship" transform="translate(-19.43062358431353 134.59988069955264) rotate(339.0219225712608)"><path class="outline" fill="#A5ABB6" stroke="none" d="M 25 0.5 L 33.166486607315974 0.5 L 33.166486607315974 -0.5 L 25 -0.5 Z M 80.05711160731597 0.5 L 88.22359821463195 0.5 L 88.22359821463195 3.5 L 95.22359821463195 0 L 88.22359821463195 -3.5 L 88.22359821463195 -0.5 L 80.05711160731597 -0.5 Z"/><text text-anchor="middle" pointer-events="none" font-size="8px" fill="#000000" x="56.611799107315974" y="3" font-family="sans-serif">DIRECTED</text></g><g class="relationship" transform="translate(46.59657634581252 203.02910384150067) rotate(292.5241508438029)"><path class="outline" fill="#A5ABB6" stroke="none" d="M 25 0.5 L 34.05672225504422 0.5 L 34.05672225504422 -0.5 L 25 -0.5 Z M 79.61922225504422 0.5 L 88.67594451008844 0.5 L 88.67594451008844 3.5 L 95.67594451008844 0 L 88.67594451008844 -3.5 L 88.67594451008844 -0.5 L 79.61922225504422 -0.5 Z"/><text text-anchor="middle" pointer-events="none" font-size="8px" fill="#000000" x="56.83797225504422" y="3" font-family="sans-serif">ACTED_IN</text></g></g><g class="layer nodes"><g class="node" transform="translate(133.79813076167488,204.84377194367835)"><circle class="outline" cx="0" cy="0" r="25" fill="#F79767" stroke="#f36924" stroke-width="2px"/><text text-anchor="middle" pointer-events="none" font-family="sans-serif" dy="1.5625" font-size="25" fill="#FFFFFF"/><text text-anchor="middle" pointer-events="none" font-family="sans-serif" dy="1.5625" font-size="25" fill="#FFFFFF"/><text text-anchor="middle" pointer-events="none" x="0" y="0" font-size="10px" fill="#FFFFFF" font-family="sans-serif"> Hayley</text><text text-anchor="middle" pointer-events="none" x="0" y="10" font-size="10px" fill="#FFFFFF" font-family="sans-serif"> Atwell</text></g><g class="node" transform="translate(92.82425124982628,91.55854424673251)"><circle class="outline" cx="0" cy="0" r="25" fill="#57C7E3" stroke="#23b3d7" stroke-width="2px"/><text text-anchor="middle" pointer-events="none" font-family="sans-serif" dy="1.5625" font-size="25" fill="#2A2C34"/><text text-anchor="middle" pointer-events="none" font-family="sans-serif" dy="1.5625" font-size="25" fill="#2A2C34"/><text text-anchor="middle" pointer-events="none" font-family="sans-serif" dy="1.5625" font-size="25" fill="#2A2C34"/><text text-anchor="middle" pointer-events="none" x="0" y="-5" font-size="10px" fill="#2A2C34" font-family="sans-serif"> Captain</text><text text-anchor="middle" pointer-events="none" x="0" y="5" font-size="10px" fill="#2A2C34" font-family="sans-serif"> America:</text><text text-anchor="middle" pointer-events="none" x="0" y="15" font-size="10px" fill="#2A2C34" font-family="sans-serif"> The Fi…</text></g><g class="node" transform="translate(197.65721183836362,150.969704341019)"><circle class="outline" cx="0" cy="0" r="25" fill="#F79767" stroke="#f36924" stroke-width="2px"/><text text-anchor="middle" pointer-events="none" font-family="sans-serif" dy="1.5625" font-size="25" fill="#FFFFFF"/><text text-anchor="middle" pointer-events="none" font-family="sans-serif" dy="1.5625" font-size="25" fill="#FFFFFF"/><text text-anchor="middle" pointer-events="none" x="0" y="0" font-size="10px" fill="#FFFFFF" font-family="sans-serif"> Hugo</text><text text-anchor="middle" pointer-events="none" x="0" y="10" font-size="10px" fill="#FFFFFF" font-family="sans-serif"> Weaving</text></g><g class="node" transform="translate(210.53948057843306,64.70212860292662)"><circle class="outline" cx="0" cy="0" r="25" fill="#F79767" stroke="#f36924" stroke-width="2px"/><text text-anchor="middle" pointer-events="none" font-family="sans-serif" dy="1.5625" font-size="25" fill="#FFFFFF"/><text text-anchor="middle" pointer-events="none" x="0" y="5" font-size="10px" fill="#FFFFFF" font-family="sans-serif"> Sebastian</text></g><g class="node" transform="translate(154.2109619182987,-11.889740735816213)"><circle class="outline" cx="0" cy="0" r="25" fill="#F79767" stroke="#f36924" stroke-width="2px"/><text text-anchor="middle" pointer-events="none" font-family="sans-serif" dy="1.5625" font-size="25" fill="#FFFFFF"/><text text-anchor="middle" pointer-events="none" font-family="sans-serif" dy="1.5625" font-size="25" fill="#FFFFFF"/><text text-anchor="middle" pointer-events="none" x="0" y="0" font-size="10px" fill="#FFFFFF" font-family="sans-serif"> Stephen</text><text text-anchor="middle" pointer-events="none" x="0" y="10" font-size="10px" fill="#FFFFFF" font-family="sans-serif"> McFeely</text></g><g class="node" transform="translate(58.51809529684568,-23.008980936697206)"><circle class="outline" cx="0" cy="0" r="25" fill="#F79767" stroke="#f36924" stroke-width="2px"/><text text-anchor="middle" pointer-events="none" font-family="sans-serif" dy="1.5625" font-size="25" fill="#FFFFFF"/><text text-anchor="middle" pointer-events="none" font-family="sans-serif" dy="1.5625" font-size="25" fill="#FFFFFF"/><text text-anchor="middle" pointer-events="none" x="0" y="0" font-size="10px" fill="#FFFFFF" font-family="sans-serif"> Tommy</text><text text-anchor="middle" pointer-events="none" x="0" y="10" font-size="10px" fill="#FFFFFF" font-family="sans-serif"> Lee Jon…</text></g><g class="node" transform="translate(-14.267098489737867,38.3867693917376)"><circle class="outline" cx="0" cy="0" r="25" fill="#F79767" stroke="#f36924" stroke-width="2px"/><text text-anchor="middle" pointer-events="none" font-family="sans-serif" dy="1.5625" font-size="25" fill="#FFFFFF"/><text text-anchor="middle" pointer-events="none" x="0" y="5" font-size="10px" fill="#FFFFFF" font-family="sans-serif"> Christop…</text></g><g class="node" transform="translate(-19.43062358431353,134.59988069955264)"><circle class="outline" cx="0" cy="0" r="25" fill="#F79767" stroke="#f36924" stroke-width="2px"/><text text-anchor="middle" pointer-events="none" font-family="sans-serif" dy="1.5625" font-size="25" fill="#FFFFFF"/><text text-anchor="middle" pointer-events="none" font-family="sans-serif" dy="1.5625" font-size="25" fill="#FFFFFF"/><text text-anchor="middle" pointer-events="none" x="0" y="0" font-size="10px" fill="#FFFFFF" font-family="sans-serif"> Joe</text><text text-anchor="middle" pointer-events="none" x="0" y="10" font-size="10px" fill="#FFFFFF" font-family="sans-serif"> Johnston</text></g><g class="node" transform="translate(46.59657634581252,203.02910384150067)"><circle class="outline" cx="0" cy="0" r="25" fill="#F79767" stroke="#f36924" stroke-width="2px"/><text text-anchor="middle" pointer-events="none" font-family="sans-serif" dy="1.5625" font-size="25" fill="#FFFFFF"/><text text-anchor="middle" pointer-events="none" font-family="sans-serif" dy="1.5625" font-size="25" fill="#FFFFFF"/><text text-anchor="middle" pointer-events="none" x="0" y="0" font-size="10px" fill="#FFFFFF" font-family="sans-serif"> Chris</text><text text-anchor="middle" pointer-events="none" x="0" y="10" font-size="10px" fill="#FFFFFF" font-family="sans-serif"> Evans</text></g></g></svg>