<svg xmlns="http://www.w3.org/2000/svg" width="446.7422180175781" height="473.8311767578125" viewBox="-114.4645767211914 -144.58619689941406 446.7422180175781 473.8311767578125"><title>Neo4j Graph Visualization</title><desc>Created using Neo4j (http://www.neo4j.com/)</desc><g class="layer relationships"><g class="relationship" transform="translate(192.00734846974981 204.26442757412192) rotate(538.8190103859351)"><path class="outline" fill="#A5ABB6" stroke="none" d="M 25 0.5 L 30.19269306861446 0.5 L 30.19269306861446 -0.5 L 25 -0.5 Z M 75.75519306861446 0.5 L 80.94788613722892 0.5 L 80.94788613722892 3.5 L 87.94788613722892 0 L 80.94788613722892 -3.5 L 80.94788613722892 -0.5 L 75.75519306861446 -0.5 Z"/><text text-anchor="middle" pointer-events="none" font-size="8px" fill="#000000" x="52.97394306861446" y="3" transform="rotate(180 52.97394306861446 0)" font-family="sans-serif">ACTED_IN</text></g><g class="relationship" transform="translate(192.00734846974981 204.26442757412192) rotate(486.86366230626334)"><path class="outline" fill="#A5ABB6" stroke="none" d="M 25 0.5 L 31.968914833491965 0.5 L 31.968914833491965 -0.5 L 25 -0.5 Z M 77.53141483349197 0.5 L 84.50032966698393 0.5 L 84.50032966698393 3.5 L 91.50032966698393 0 L 84.50032966698393 -3.5 L 84.50032966698393 -0.5 L 77.53141483349197 -0.5 Z"/><text text-anchor="middle" pointer-events="none" font-size="8px" fill="#000000" x="54.750164833491965" y="3" transform="rotate(180 54.750164833491965 0)" font-family="sans-serif">ACTED_IN</text></g><g class="relationship" transform="translate(192.00734846974981 204.26442757412192) rotate(420.24846554979956)"><path class="outline" fill="#A5ABB6" stroke="none" d="M 25 0.5 L 28.995287378765994 0.5 L 28.995287378765994 -0.5 L 25 -0.5 Z M 74.557787378766 0.5 L 78.55307475753199 0.5 L 78.55307475753199 3.5 L 85.55307475753199 0 L 78.55307475753199 -3.5 L 78.55307475753199 -0.5 L 74.557787378766 -0.5 Z"/><text text-anchor="middle" pointer-events="none" font-size="8px" fill="#000000" x="51.776537378765994" y="3" font-family="sans-serif">ACTED_IN</text></g><g class="relationship" transform="translate(192.00734846974981 204.26442757412192) rotate(348.16257465267347)"><path class="outline" fill="#A5ABB6" stroke="none" d="M 25 0.5 L 30.562781331691895 0.5 L 30.562781331691895 -0.5 L 25 -0.5 Z M 76.1252813316919 0.5 L 81.68806266338379 0.5 L 81.68806266338379 3.5 L 88.68806266338379 0 L 81.68806266338379 -3.5 L 81.68806266338379 -0.5 L 76.1252813316919 -0.5 Z"/><text text-anchor="middle" pointer-events="none" font-size="8px" fill="#000000" x="53.344031331691895" y="3" font-family="sans-serif">ACTED_IN</text></g><g class="relationship" transform="translate(192.00734846974981 204.26442757412192) rotate(298.1233790494273)"><path class="outline" fill="#A5ABB6" stroke="none" d="M 25 0.5 L 30.775379307344593 0.5 L 30.775379307344593 -0.5 L 25 -0.5 Z M 76.3378793073446 0.5 L 82.11325861468919 0.5 L 82.11325861468919 3.5 L 89.11325861468919 0 L 82.11325861468919 -3.5 L 82.11325861468919 -0.5 L 76.3378793073446 -0.5 Z"/><text text-anchor="middle" pointer-events="none" font-size="8px" fill="#000000" x="53.55662930734459" y="3" font-family="sans-serif">ACTED_IN</text></g><g class="relationship" transform="translate(26.23049430414655 -12.825629324473173) rotate(296.10827512764763)"><path class="outline" fill="#A5ABB6" stroke="none" d="M 25 0.5 L 30.937394758321176 0.5 L 30.937394758321176 -0.5 L 25 -0.5 Z M 76.49989475832118 0.5 L 82.43728951664235 0.5 L 82.43728951664235 3.5 L 89.43728951664235 0 L 82.43728951664235 -3.5 L 82.43728951664235 -0.5 L 76.49989475832118 -0.5 Z"/><text text-anchor="middle" pointer-events="none" font-size="8px" fill="#000000" x="53.718644758321176" y="3" font-family="sans-serif">ACTED_IN</text></g><g class="relationship" transform="translate(26.23049430414655 -12.825629324473173) rotate(225.65090421783242)"><path class="outline" fill="#A5ABB6" stroke="none" d="M 25 0.5 L 29.54188292856123 0.5 L 29.54188292856123 -0.5 L 25 -0.5 Z M 75.10438292856122 0.5 L 79.64626585712246 0.5 L 79.64626585712246 3.5 L 86.64626585712246 0 L 79.64626585712246 -3.5 L 79.64626585712246 -0.5 L 75.10438292856122 -0.5 Z"/><text text-anchor="middle" pointer-events="none" font-size="8px" fill="#000000" x="52.32313292856123" y="3" transform="rotate(180 52.32313292856123 0)" font-family="sans-serif">ACTED_IN</text></g><g class="relationship" transform="translate(26.23049430414655 -12.825629324473173) rotate(524.285828657539)"><path class="outline" fill="#A5ABB6" stroke="none" d="M 25 0.5 L 31.734641828034945 0.5 L 31.734641828034945 -0.5 L 25 -0.5 Z M 77.29714182803494 0.5 L 84.03178365606989 0.5 L 84.03178365606989 3.5 L 91.03178365606989 0 L 84.03178365606989 -3.5 L 84.03178365606989 -0.5 L 77.29714182803494 -0.5 Z"/><text text-anchor="middle" pointer-events="none" font-size="8px" fill="#000000" x="54.515891828034945" y="3" transform="rotate(180 54.515891828034945 0)" font-family="sans-serif">ACTED_IN</text></g><g class="relationship" transform="translate(26.23049430414655 -12.825629324473173) rotate(477.7000398575758)"><path class="outline" fill="#A5ABB6" stroke="none" d="M 25 0.5 L 30.874080651392987 0.5 L 30.874080651392987 -0.5 L 25 -0.5 Z M 76.43658065139299 0.5 L 82.31066130278597 0.5 L 82.31066130278597 3.5 L 89.31066130278597 0 L 82.31066130278597 -3.5 L 82.31066130278597 -0.5 L 76.43658065139299 -0.5 Z"/><text text-anchor="middle" pointer-events="none" font-size="8px" fill="#000000" x="53.65533065139299" y="3" transform="rotate(180 53.65533065139299 0)" font-family="sans-serif">ACTED_IN</text></g><g class="relationship" transform="translate(26.23049430414655 -12.825629324473173) rotate(349.1634950406062)"><path class="outline" fill="#A5ABB6" stroke="none" d="M 25 0.5 L 31.291320240527703 0.5 L 31.291320240527703 -0.5 L 25 -0.5 Z M 76.85382024052771 0.5 L 83.1451404810554 0.5 L 83.1451404810554 3.5 L 90.1451404810554 0 L 83.1451404810554 -3.5 L 83.1451404810554 -0.5 L 76.85382024052771 -0.5 Z"/><text text-anchor="middle" pointer-events="none" font-size="8px" fill="#000000" x="54.0725702405277" y="3" font-family="sans-serif">ACTED_IN</text></g></g><g class="layer nodes"><g class="node" transform="translate(192.00734846974981,204.26442757412192)"><circle class="outline" cx="0" cy="0" r="25" fill="#F79767" stroke="#f36924" stroke-width="2px"/><text text-anchor="middle" pointer-events="none" font-family="sans-serif" dy="1.5625" font-size="25" fill="#FFFFFF"/><text text-anchor="middle" pointer-events="none" font-family="sans-serif" dy="1.5625" font-size="25" fill="#FFFFFF"/><text text-anchor="middle" pointer-events="none" x="0" y="0" font-size="10px" fill="#FFFFFF" font-family="sans-serif"> Hugo</text><text text-anchor="middle" pointer-events="none" x="0" y="10" font-size="10px" fill="#FFFFFF" font-family="sans-serif"> Weaving</text></g><g class="node" transform="translate(79.08345506033811,206.59236230865685)"><circle class="outline" cx="0" cy="0" r="25" fill="#57C7E3" stroke="#23b3d7" stroke-width="2px"/><text text-anchor="middle" pointer-events="none" font-family="sans-serif" dy="1.5625" font-size="25" fill="#2A2C34"/><text text-anchor="middle" pointer-events="none" font-family="sans-serif" dy="1.5625" font-size="25" fill="#2A2C34"/><text text-anchor="middle" pointer-events="none" x="0" y="0" font-size="10px" fill="#2A2C34" font-family="sans-serif"> Cloud</text><text text-anchor="middle" pointer-events="none" x="0" y="10" font-size="10px" fill="#2A2C34" font-family="sans-serif"> Atlas</text></g><g class="node" transform="translate(122.1172938077352,297.47229779899374)"><circle class="outline" cx="0" cy="0" r="25" fill="#57C7E3" stroke="#23b3d7" stroke-width="2px"/><text text-anchor="middle" pointer-events="none" font-family="sans-serif" dy="1.5625" font-size="25" fill="#2A2C34"/><text text-anchor="middle" pointer-events="none" font-family="sans-serif" dy="1.5625" font-size="25" fill="#2A2C34"/><text text-anchor="middle" pointer-events="none" x="0" y="0" font-size="10px" fill="#2A2C34" font-family="sans-serif"> V for</text><text text-anchor="middle" pointer-events="none" x="0" y="10" font-size="10px" fill="#2A2C34" font-family="sans-serif"> Vendetta</text></g><g class="node" transform="translate(246.8681791920262,300.2450068118312)"><circle class="outline" cx="0" cy="0" r="25" fill="#57C7E3" stroke="#23b3d7" stroke-width="2px"/><text text-anchor="middle" pointer-events="none" font-family="sans-serif" dy="1.5625" font-size="25" fill="#2A2C34"/><text text-anchor="middle" pointer-events="none" font-family="sans-serif" dy="1.5625" font-size="25" fill="#2A2C34"/><text text-anchor="middle" pointer-events="none" font-family="sans-serif" dy="1.5625" font-size="25" fill="#2A2C34"/><text text-anchor="middle" pointer-events="none" x="0" y="-5" font-size="10px" fill="#2A2C34" font-family="sans-serif"> The</text><text text-anchor="middle" pointer-events="none" x="0" y="5" font-size="10px" fill="#2A2C34" font-family="sans-serif"> Matrix</text><text text-anchor="middle" pointer-events="none" x="0" y="15" font-size="10px" fill="#2A2C34" font-family="sans-serif"> Revol…</text></g><g class="node" transform="translate(303.27767577653583,180.9429813669462)"><circle class="outline" cx="0" cy="0" r="25" fill="#57C7E3" stroke="#23b3d7" stroke-width="2px"/><text text-anchor="middle" pointer-events="none" font-family="sans-serif" dy="1.5625" font-size="25" fill="#2A2C34"/><text text-anchor="middle" pointer-events="none" font-family="sans-serif" dy="1.5625" font-size="25" fill="#2A2C34"/><text text-anchor="middle" pointer-events="none" font-family="sans-serif" dy="1.5625" font-size="25" fill="#2A2C34"/><text text-anchor="middle" pointer-events="none" x="0" y="-5" font-size="10px" fill="#2A2C34" font-family="sans-serif"> The</text><text text-anchor="middle" pointer-events="none" x="0" y="5" font-size="10px" fill="#2A2C34" font-family="sans-serif"> Matrix</text><text text-anchor="middle" pointer-events="none" x="0" y="15" font-size="10px" fill="#2A2C34" font-family="sans-serif"> Reloa…</text></g><g class="node" transform="translate(245.79711901998286,103.62399645513169)"><circle class="outline" cx="0" cy="0" r="25" fill="#57C7E3" stroke="#23b3d7" stroke-width="2px"/><text text-anchor="middle" pointer-events="none" font-family="sans-serif" dy="1.5625" font-size="25" fill="#2A2C34"/><text text-anchor="middle" pointer-events="none" font-family="sans-serif" dy="1.5625" font-size="25" fill="#2A2C34"/><text text-anchor="middle" pointer-events="none" x="0" y="0" font-size="10px" fill="#2A2C34" font-family="sans-serif"> The</text><text text-anchor="middle" pointer-events="none" x="0" y="10" font-size="10px" fill="#2A2C34" font-family="sans-serif"> Matrix</text></g><g class="node" transform="translate(26.23049430414655,-12.825629324473173)"><circle class="outline" cx="0" cy="0" r="25" fill="#F79767" stroke="#f36924" stroke-width="2px"/><text text-anchor="middle" pointer-events="none" font-family="sans-serif" dy="1.5625" font-size="25" fill="#FFFFFF"/><text text-anchor="middle" pointer-events="none" font-family="sans-serif" dy="1.5625" font-size="25" fill="#FFFFFF"/><text text-anchor="middle" pointer-events="none" x="0" y="0" font-size="10px" fill="#FFFFFF" font-family="sans-serif"> Hugo</text><text text-anchor="middle" pointer-events="none" x="0" y="10" font-size="10px" fill="#FFFFFF" font-family="sans-serif"> Weaving</text></g><g class="node" transform="translate(76.59078250632106,-115.58619863055353)"><circle class="outline" cx="0" cy="0" r="25" fill="#57C7E3" stroke="#23b3d7" stroke-width="2px"/><text text-anchor="middle" pointer-events="none" font-family="sans-serif" dy="1.5625" font-size="25" fill="#2A2C34"/><text text-anchor="middle" pointer-events="none" font-family="sans-serif" dy="1.5625" font-size="25" fill="#2A2C34"/><text text-anchor="middle" pointer-events="none" font-family="sans-serif" dy="1.5625" font-size="25" fill="#2A2C34"/><text text-anchor="middle" pointer-events="none" x="0" y="-5" font-size="10px" fill="#2A2C34" font-family="sans-serif"> The</text><text text-anchor="middle" pointer-events="none" x="0" y="5" font-size="10px" fill="#2A2C34" font-family="sans-serif"> Matrix</text><text text-anchor="middle" pointer-events="none" x="0" y="15" font-size="10px" fill="#2A2C34" font-family="sans-serif"> Revol…</text></g><g class="node" transform="translate(-51.813404440676756,-92.66320536825744)"><circle class="outline" cx="0" cy="0" r="25" fill="#57C7E3" stroke="#23b3d7" stroke-width="2px"/><text text-anchor="middle" pointer-events="none" font-family="sans-serif" dy="1.5625" font-size="25" fill="#2A2C34"/><text text-anchor="middle" pointer-events="none" font-family="sans-serif" dy="1.5625" font-size="25" fill="#2A2C34"/><text text-anchor="middle" pointer-events="none" x="0" y="0" font-size="10px" fill="#2A2C34" font-family="sans-serif"> Cloud</text><text text-anchor="middle" pointer-events="none" x="0" y="10" font-size="10px" fill="#2A2C34" font-family="sans-serif"> Atlas</text></g><g class="node" transform="translate(-85.46457679150528,18.60025031868548)"><circle class="outline" cx="0" cy="0" r="25" fill="#57C7E3" stroke="#23b3d7" stroke-width="2px"/><text text-anchor="middle" pointer-events="none" font-family="sans-serif" dy="1.5625" font-size="25" fill="#2A2C34"/><text text-anchor="middle" pointer-events="none" font-family="sans-serif" dy="1.5625" font-size="25" fill="#2A2C34"/><text text-anchor="middle" pointer-events="none" font-family="sans-serif" dy="1.5625" font-size="25" fill="#2A2C34"/><text text-anchor="middle" pointer-events="none" x="0" y="-5" font-size="10px" fill="#2A2C34" font-family="sans-serif"> The</text><text text-anchor="middle" pointer-events="none" x="0" y="5" font-size="10px" fill="#2A2C34" font-family="sans-serif"> Matrix</text><text text-anchor="middle" pointer-events="none" x="0" y="15" font-size="10px" fill="#2A2C34" font-family="sans-serif"> Reloa…</text></g><g class="node" transform="translate(-26.905977750238247,88.38426458463947)"><circle class="outline" cx="0" cy="0" r="25" fill="#57C7E3" stroke="#23b3d7" stroke-width="2px"/><text text-anchor="middle" pointer-events="none" font-family="sans-serif" dy="1.5625" font-size="25" fill="#2A2C34"/><text text-anchor="middle" pointer-events="none" font-family="sans-serif" dy="1.5625" font-size="25" fill="#2A2C34"/><text text-anchor="middle" pointer-events="none" x="0" y="0" font-size="10px" fill="#2A2C34" font-family="sans-serif"> V for</text><text text-anchor="middle" pointer-events="none" x="0" y="10" font-size="10px" fill="#2A2C34" font-family="sans-serif"> Vendetta</text></g><g class="node" transform="translate(139.3223280413579,-34.4737359011908)"><circle class="outline" cx="0" cy="0" r="25" fill="#57C7E3" stroke="#23b3d7" stroke-width="2px"/><text text-anchor="middle" pointer-events="none" font-family="sans-serif" dy="1.5625" font-size="25" fill="#2A2C34"/><text text-anchor="middle" pointer-events="none" font-family="sans-serif" dy="1.5625" font-size="25" fill="#2A2C34"/><text text-anchor="middle" pointer-events="none" x="0" y="0" font-size="10px" fill="#2A2C34" font-family="sans-serif"> The</text><text text-anchor="middle" pointer-events="none" x="0" y="10" font-size="10px" fill="#2A2C34" font-family="sans-serif"> Matrix</text></g></g></svg>