<svg xmlns="http://www.w3.org/2000/svg" width="598.4965209960938" height="585.0614013671875" viewBox="-204.15255737304688 -180.99537658691406 598.4965209960938 585.0614013671875"><title>Neo4j Graph Visualization</title><desc>Created using Neo4j (http://www.neo4j.com/)</desc><g class="layer relationships"><g class="relationship" transform="translate(176.72037872559613 375.0660483022649) rotate(257.7607564242097)"><path class="outline" fill="#A5ABB6" stroke="none" d="M 21.40063509461097,12.933012701892217 L 21.90063509461097,12.06698729810778 A 55.60850109663206 55.60850109663206 0 0 0 23.365496411885903,12.883524311881509 L 22.891838810770732,13.764233388084214 A 56.60850109663206 56.60850109663206 0 0 1 21.40063509461097,12.933012701892217 Z M 73.27439050818433,15.377057741270136 L 72.85803069634223,14.467857814365829 A 55.60850109663206 55.60850109663206 0 0 0 74.37211662243246,13.74668156536262 L 73.04135439221298,11.05798822349165 L 80.86752812516796,11.089685251829 L 76.14646626272508,17.331606021190577 L 74.81570403250561,14.64291267931961 A 56.60850109663206 56.60850109663206 0 0 1 73.27439050818433,15.377057741270136"/><text text-anchor="middle" pointer-events="none" font-size="8px" fill="#000000" x="47.909684257664104" y="22.988387532677443" transform="rotate(180 47.909684257664104 19.988387532677443)" font-family="sans-serif">PRODUCED</text></g><g class="relationship" transform="translate(176.72037872559613 375.0660483022649) rotate(257.7607564242097)"><path class="outline" fill="#A5ABB6" stroke="none" d="M 25 0.5 L 26.247981112046368 0.5 L 26.247981112046368 -0.5 L 25 -0.5 Z M 70.02532486204638 0.5 L 71.27330597409274 0.5 L 71.27330597409274 3.5 L 78.27330597409274 0 L 71.27330597409274 -3.5 L 71.27330597409274 -0.5 L 70.02532486204638 -0.5 Z"/><text text-anchor="middle" pointer-events="none" font-size="8px" fill="#000000" x="48.13665298704637" y="3" transform="rotate(180 48.13665298704637 0)" font-family="sans-serif">DIRECT…</text></g><g class="relationship" transform="translate(176.72037872559613 375.0660483022649) rotate(257.7607564242097)"><path class="outline" fill="#A5ABB6" stroke="none" d="M 21.40063509461097,-12.933012701892217 L 21.90063509461097,-12.06698729810778 A 55.60850109663206 55.60850109663206 0 0 1 30.595660551531083,-16.130666554149393 L 30.25202199421429,-17.069768541116325 A 56.60850109663206 56.60850109663206 0 0 0 21.40063509461097,-12.933012701892217 Z M 65.7178623702916,-18.20508561295251 L 65.43499007342527,-17.245928032747067 A 55.60850109663206 55.60850109663206 0 0 1 74.37211662243246,-13.74668156536262 L 73.04135439221298,-11.05798822349165 L 80.86752812516796,-11.089685251829 L 76.14646626272508,-17.331606021190577 L 74.81570403250561,-14.64291267931961 A 56.60850109663206 56.60850109663206 0 0 0 65.7178623702916,-18.20508561295251"/><text text-anchor="middle" pointer-events="none" font-size="8px" fill="#000000" x="47.90968425766408" y="-16.988387532677443" transform="rotate(180 47.90968425766408 -19.988387532677443)" font-family="sans-serif">WROTE</text></g><g class="relationship" transform="translate(354.9394011986185 196.88289999892856) rotate(275.5570047043594)"><path class="outline" fill="#A5ABB6" stroke="none" d="M 24.018736134675446,6.953439040707552 L 24.277555179777966,5.987513214418485 A 106.59218206840752 106.59218206840752 0 0 0 32.48011697696046,7.841944607906811 L 32.29825068428323,8.825267877024274 A 107.59218206840752 107.59218206840752 0 0 1 24.018736134675446,6.953439040707552 Z M 68.06734165549229,9.392697646166937 L 67.91675729716897,8.40410048299664 A 106.59218206840752 106.59218206840752 0 0 0 76.17401312097994,6.810782532965079 L 75.48986244432162,3.8898344246228644 L 83.10358381988816,5.701255638819361 L 77.08621402319103,10.705380010754698 L 76.40206334653271,7.784431902412483 A 107.59218206840752 107.59218206840752 0 0 1 68.06734165549229,9.392697646166937"/><text text-anchor="middle" pointer-events="none" font-size="8px" fill="#000000" x="50.16697851170821" y="13.106081054888293" font-family="sans-serif">WROTE</text></g><g class="relationship" transform="translate(354.9394011986185 196.88289999892856) rotate(275.5570047043594)"><path class="outline" fill="#A5ABB6" stroke="none" d="M 24.018736134675446,-6.953439040707552 L 24.277555179777966,-5.987513214418485 A 106.59218206840752 106.59218206840752 0 0 1 27.068291917187725,-6.695036396708261 L 26.835654311317015,-7.667599887866942 A 107.59218206840752 107.59218206840752 0 0 0 24.018736134675446,-6.953439040707552 Z M 73.56390985381901,-8.408882445935419 L 73.36223843607691,-7.429429211081455 A 106.59218206840752 106.59218206840752 0 0 1 76.17401312097994,-6.810782532965079 L 75.48986244432162,-3.8898344246228644 L 83.10358381988816,-5.701255638819361 L 77.08621402319103,-10.705380010754698 L 76.40206334653271,-7.784431902412483 A 107.59218206840752 107.59218206840752 0 0 0 73.56390985381901,-8.408882445935419"/><text text-anchor="middle" pointer-events="none" font-size="8px" fill="#000000" x="50.166978511708216" y="-7.106081054888293" font-family="sans-serif">DIRECTED</text></g><g class="relationship" transform="translate(258.5778591171354 91.17077472570251) rotate(359.34116537223485)"><path class="outline" fill="#A5ABB6" stroke="none" d="M 24.018736134675446,6.953439040707552 L 24.277555179777966,5.987513214418485 A 105.24945443775526 105.24945443775526 0 0 0 32.14764488022904,7.775941506743763 L 31.963601421779135,8.75885961391333 A 106.24945443775526 106.24945443775526 0 0 1 24.018736134675446,6.953439040707552 Z M 67.73049156119392,9.329611253581717 L 67.57790373688869,8.341321338691458 A 105.24945443775526 105.24945443775526 0 0 0 75.50104963628202,6.804914261494029 L 74.8174471048633,3.8838378196599725 L 82.43082842246461,5.696687761822687 L 76.41251967817365,10.699682850606106 L 75.72891714675494,7.778606408772048 A 106.24945443775526 106.24945443775526 0 0 1 67.73049156119392,9.329611253581717"/><text text-anchor="middle" pointer-events="none" font-size="8px" fill="#000000" x="49.830831963845654" y="13.060339792432202" font-family="sans-serif">WROTE</text></g><g class="relationship" transform="translate(258.5778591171354 91.17077472570251) rotate(359.34116537223485)"><path class="outline" fill="#A5ABB6" stroke="none" d="M 24.018736134675446,-6.953439040707552 L 24.277555179777966,-5.987513214418485 A 105.24945443775526 105.24945443775526 0 0 1 26.73909281389851,-6.615341425853927 L 26.50366142099115,-7.5872323967111015 A 106.24945443775526 106.24945443775526 0 0 0 24.018736134675446,-6.953439040707552 Z M 73.22503465832371,-8.33279065684566 L 73.0207332216879,-7.35388263103907 A 105.24945443775526 105.24945443775526 0 0 1 75.50104963628202,-6.804914261494029 L 74.8174471048633,-3.8838378196599725 L 82.43082842246461,-5.696687761822687 L 76.41251967817365,-10.699682850606106 L 75.72891714675494,-7.778606408772048 A 106.24945443775526 106.24945443775526 0 0 0 73.22503465832371,-8.33279065684566"/><text text-anchor="middle" pointer-events="none" font-size="8px" fill="#000000" x="49.83083196384567" y="-7.060339792432202" font-family="sans-serif">DIRECTED</text></g><g class="relationship" transform="translate(284.86307327508064 -124.39810745508295) rotate(510.1081070644317)"><path class="outline" fill="#A5ABB6" stroke="none" d="M 21.40063509461097,12.933012701892217 L 21.90063509461097,12.06698729810778 A 56.832099862356465 56.832099862356465 0 0 0 23.90913273284435,13.17318134187525 L 23.444473634255658,14.05867099291514 A 57.832099862356465 57.832099862356465 0 0 1 21.40063509461097,12.933012701892217 Z M 73.89469423314067,15.65641855604619 L 73.4869966177425,14.743301556752755 A 56.832099862356465 56.832099862356465 0 0 0 75.56146499409476,13.76641416264334 L 74.22886704173439,11.078630187439057 L 82.05506059496481,11.104982936336505 L 77.3382622639086,17.35012612958238 L 76.00566431154823,14.662342154378099 A 57.832099862356465 57.832099862356465 0 0 1 73.89469423314067,15.65641855604619"/><text text-anchor="middle" pointer-events="none" font-size="8px" fill="#000000" x="48.50189970065378" y="23.152315202085617" transform="rotate(180 48.50189970065378 20.152315202085617)" font-family="sans-serif">PRODUCED</text></g><g class="relationship" transform="translate(284.86307327508064 -124.39810745508295) rotate(510.1081070644317)"><path class="outline" fill="#A5ABB6" stroke="none" d="M 25 0.5 L 30.839911444166937 0.5 L 30.839911444166937 -0.5 L 25 -0.5 Z M 66.61334894416694 0.5 L 72.45326038833387 0.5 L 72.45326038833387 3.5 L 79.45326038833387 0 L 72.45326038833387 -3.5 L 72.45326038833387 -0.5 L 66.61334894416694 -0.5 Z"/><text text-anchor="middle" pointer-events="none" font-size="8px" fill="#000000" x="48.72663019416694" y="3" transform="rotate(180 48.72663019416694 0)" font-family="sans-serif">WROTE</text></g><g class="relationship" transform="translate(284.86307327508064 -124.39810745508295) rotate(510.1081070644317)"><path class="outline" fill="#A5ABB6" stroke="none" d="M 21.40063509461097,-12.933012701892217 L 21.90063509461097,-12.06698729810778 A 56.832099862356465 56.832099862356465 0 0 1 26.078913354037905,-14.253400118502164 L 25.65243304219911,-15.157896964054366 A 57.832099862356465 57.832099862356465 0 0 0 21.40063509461097,-12.933012701892217 Z M 71.62160470906929,-16.613730677723375 L 71.25321207359544,-15.684060378031795 A 56.832099862356465 56.832099862356465 0 0 1 75.56146499409476,-13.76641416264334 L 74.22886704173439,-11.078630187439057 L 82.05506059496481,-11.104982936336505 L 77.3382622639086,-17.35012612958238 L 76.00566431154823,-14.662342154378099 A 57.832099862356465 57.832099862356465 0 0 0 71.62160470906929,-16.613730677723375"/><text text-anchor="middle" pointer-events="none" font-size="8px" fill="#000000" x="48.50189970065376" y="-17.152315202085617" transform="rotate(180 48.50189970065376 -20.152315202085617)" font-family="sans-serif">DIRECTED</text></g><g class="relationship" transform="translate(66.1724035768239 -130.72181829813667) rotate(191.97263968875313)"><path class="outline" fill="#A5ABB6" stroke="none" d="M 21.40063509461097,12.933012701892217 L 21.90063509461097,12.06698729810778 A 54.85849738691649 54.85849738691649 0 0 0 25.18561134693207,13.8177415623311 L 24.745492247955518,14.715680969371505 A 55.85849738691649 55.85849738691649 0 0 1 21.40063509461097,12.933012701892217 Z M 70.63401091984875,16.194419646217725 L 70.25261635808293,15.270007298693379 A 54.85849738691649 54.85849738691649 0 0 0 73.64349491637566,13.734379715286451 L 72.31387713865075,11.045120232611362 L 80.14003667223835,11.080148147707526 L 75.41631862000887,17.320059025519903 L 74.08670084228396,14.630799542844816 A 55.85849738691649 55.85849738691649 0 0 1 70.63401091984875,16.194419646217725"/><text text-anchor="middle" pointer-events="none" font-size="8px" fill="#000000" x="47.54690443880187" y="22.887911899769854" transform="rotate(180 47.54690443880187 19.887911899769854)" font-family="sans-serif">DIRECTED</text></g><g class="relationship" transform="translate(66.1724035768239 -130.72181829813667) rotate(191.97263968875313)"><path class="outline" fill="#A5ABB6" stroke="none" d="M 25 0.5 L 26.329953680598713 0.5 L 26.329953680598713 -0.5 L 25 -0.5 Z M 69.22057868059872 0.5 L 70.55053236119743 0.5 L 70.55053236119743 3.5 L 77.55053236119743 0 L 70.55053236119743 -3.5 L 70.55053236119743 -0.5 L 69.22057868059872 -0.5 Z"/><text text-anchor="middle" pointer-events="none" font-size="8px" fill="#000000" x="47.77526618059871" y="3" transform="rotate(180 47.77526618059871 0)" font-family="sans-serif">PRODU…</text></g><g class="relationship" transform="translate(66.1724035768239 -130.72181829813667) rotate(191.97263968875313)"><path class="outline" fill="#A5ABB6" stroke="none" d="M 21.40063509461097,-12.933012701892217 L 21.90063509461097,-12.06698729810778 A 54.85849738691649 54.85849738691649 0 0 1 30.245116076185596,-15.989899227404173 L 29.89722525487347,-16.927434280853788 A 55.85849738691649 55.85849738691649 0 0 0 21.40063509461097,-12.933012701892217 Z M 65.35056836636878,-18.069903708932735 L 65.06375999651004,-17.111915734593296 A 54.85849738691649 54.85849738691649 0 0 1 73.64349491637566,-13.734379715286451 L 72.31387713865075,-11.045120232611362 L 80.14003667223835,-11.080148147707526 L 75.41631862000887,-17.320059025519903 L 74.08670084228396,-14.630799542844816 A 55.85849738691649 55.85849738691649 0 0 0 65.35056836636878,-18.069903708932735"/><text text-anchor="middle" pointer-events="none" font-size="8px" fill="#000000" x="47.54690443880186" y="-16.887911899769854" transform="rotate(180 47.54690443880186 -19.887911899769854)" font-family="sans-serif">WROTE</text></g><g class="relationship" transform="translate(-37.12852577346358 53.066105802362884) rotate(203.600797161939)"><path class="outline" fill="#A5ABB6" stroke="none" d="M 24.018736134675446,-6.953439040707552 L 24.277555179777966,-5.987513214418485 A 108.90467072691739 108.90467072691739 0 0 1 33.053302309396805,-7.954520814439903 L 32.875065181222574,-8.938508378456945 A 109.90467072691739 109.90467072691739 0 0 0 24.018736134675446,-6.953439040707552 Z M 68.647701222237,-9.500300750119678 L 68.50045049075604,-8.511201552830386 A 108.90467072691739 108.90467072691739 0 0 1 77.3336365430034,-6.8207339406183305 L 76.648556326173,-3.900003707182247 L 84.26285379049267,-5.70900180692006 L 78.24707683211061,-10.71504091853311 L 77.56199661528021,-7.794310685097026 A 109.90467072691739 109.90467072691739 0 0 0 68.647701222237,-9.500300750119678"/><text text-anchor="middle" pointer-events="none" font-size="8px" fill="#000000" x="50.746221163589276" y="-7.184861020087681" transform="rotate(180 50.746221163589276 -10.18486102008768)" font-family="sans-serif">WROTE</text></g><g class="relationship" transform="translate(-37.12852577346358 53.066105802362884) rotate(203.600797161939)"><path class="outline" fill="#A5ABB6" stroke="none" d="M 24.018736134675446,6.953439040707552 L 24.277555179777966,5.987513214418485 A 108.90467072691739 108.90467072691739 0 0 0 27.63610275499642,6.830441534144697 L 27.408123044449532,7.804107417073212 A 109.90467072691739 109.90467072691739 0 0 1 24.018736134675446,6.953439040707552 Z M 74.14756905426023,8.538128365206504 L 73.95027615627582,7.5577837766026335 A 108.90467072691739 108.90467072691739 0 0 0 77.3336365430034,6.8207339406183305 L 76.648556326173,3.900003707182247 L 84.26285379049267,5.70900180692006 L 78.24707683211061,10.71504091853311 L 77.56199661528021,7.794310685097026 A 109.90467072691739 109.90467072691739 0 0 1 74.14756905426023,8.538128365206504"/><text text-anchor="middle" pointer-events="none" font-size="8px" fill="#000000" x="50.7462211635893" y="13.18486102008768" transform="rotate(180 50.7462211635893 10.18486102008768)" font-family="sans-serif">DIRECTED</text></g><g class="relationship" transform="translate(-175.15255395179742 108.92302191247173) rotate(291.18758069455026)"><path class="outline" fill="#A5ABB6" stroke="none" d="M 24.018736134675446,-6.953439040707552 L 24.277555179777966,-5.987513214418485 A 104.78111213119159 104.78111213119159 0 0 1 26.62435729160695,-6.587351465737299 L 26.387935433021127,-7.559001971208687 A 105.78111213119159 105.78111213119159 0 0 0 24.018736134675446,-6.953439040707552 Z M 73.1068379649335,-8.306061954635851 L 72.90160344847601,-7.3273491299244995 A 104.78111213119159 104.78111213119159 0 0 1 75.26638428489868,-6.802851584154856 L 74.58297442505696,-3.881730059214284 L 82.19623615306696,-5.695082165347617 L 76.17759743135429,-10.697680284075616 L 75.49418757151257,-7.776558759135045 A 105.78111213119159 105.78111213119159 0 0 0 73.1068379649335,-8.306061954635851"/><text text-anchor="middle" pointer-events="none" font-size="8px" fill="#000000" x="49.713617041709156" y="-7.044385577687649" font-family="sans-serif">DIRECTED</text></g><g class="relationship" transform="translate(-175.15255395179742 108.92302191247173) rotate(291.18758069455026)"><path class="outline" fill="#A5ABB6" stroke="none" d="M 24.018736134675446,6.953439040707552 L 24.277555179777966,5.987513214418485 A 104.78111213119159 104.78111213119159 0 0 0 32.03174009173301,7.752805508136689 L 31.846924698187905,8.735578762915623 A 105.78111213119159 105.78111213119159 0 0 1 24.018736134675446,6.953439040707552 Z M 67.61302112824907,9.30749757860363 L 67.4597223187056,8.319317698727218 A 104.78111213119159 104.78111213119159 0 0 0 75.26638428489868,6.802851584154856 L 74.58297442505696,3.881730059214284 L 82.19623615306696,5.695082165347617 L 76.17759743135429,10.697680284075616 L 75.49418757151257,7.776558759135045 A 105.78111213119159 105.78111213119159 0 0 1 67.61302112824907,9.30749757860363"/><text text-anchor="middle" pointer-events="none" font-size="8px" fill="#000000" x="49.71361704170917" y="13.044385577687649" font-family="sans-serif">WROTE</text></g><g class="relationship" transform="translate(-4.992374768891523 250.13582060376424) rotate(501.18535331935493)"><path class="outline" fill="#A5ABB6" stroke="none" d="M 21.40063509461097,12.933012701892217 L 21.90063509461097,12.06698729810778 A 56.65380320253848 56.65380320253848 0 0 0 23.829712317465567,13.131273724418364 L 23.363762586182006,14.016084917790586 A 57.65380320253848 57.65380320253848 0 0 1 21.40063509461097,12.933012701892217 Z M 73.80440153340588,15.616019026138275 L 73.39546294604678,14.703457120419685 A 56.65380320253848 56.65380320253848 0 0 0 75.38811102197036,13.763564480548856 L 74.05577817383973,11.075649083481434 L 81.88196908981611,11.102773734421948 L 77.16455481947786,17.34745167663875 L 75.83222197134722,14.659536279571329 A 57.65380320253848 57.65380320253848 0 0 1 73.80440153340588,15.616019026138275"/><text text-anchor="middle" pointer-events="none" font-size="8px" fill="#000000" x="48.415578015412194" y="23.12842803761658" transform="rotate(180 48.415578015412194 20.12842803761658)" font-family="sans-serif">PRODUCED</text></g><g class="relationship" transform="translate(-4.992374768891523 250.13582060376424) rotate(501.18535331935493)"><path class="outline" fill="#A5ABB6" stroke="none" d="M 25 0.5 L 25.195319532688984 0.5 L 25.195319532688984 -0.5 L 25 -0.5 Z M 72.08594453268898 0.5 L 72.28126406537797 0.5 L 72.28126406537797 3.5 L 79.28126406537797 0 L 72.28126406537797 -3.5 L 72.28126406537797 -0.5 L 72.08594453268898 -0.5 Z"/><text text-anchor="middle" pointer-events="none" font-size="8px" fill="#000000" x="48.640632032688984" y="3" transform="rotate(180 48.640632032688984 0)" font-family="sans-serif">DIRECTED</text></g><g class="relationship" transform="translate(-4.992374768891523 250.13582060376424) rotate(501.18535331935493)"><path class="outline" fill="#A5ABB6" stroke="none" d="M 21.40063509461097,-12.933012701892217 L 21.90063509461097,-12.06698729810778 A 56.65380320253848 56.65380320253848 0 0 1 31.085209342241562,-16.32525170174293 L 30.747326865310498,-17.266440010097284 A 57.65380320253848 57.65380320253848 0 0 0 21.40063509461097,-12.933012701892217 Z M 66.22968985053672,-18.391910344528128 L 65.95213395195287,-17.431200855056254 A 56.65380320253848 56.65380320253848 0 0 1 75.38811102197036,-13.763564480548856 L 74.05577817383973,-11.075649083481434 L 81.88196908981611,-11.102773734421948 L 77.16455481947786,-17.34745167663875 L 75.83222197134722,-14.659536279571329 A 57.65380320253848 57.65380320253848 0 0 0 66.22968985053672,-18.391910344528128"/><text text-anchor="middle" pointer-events="none" font-size="8px" fill="#000000" x="48.41557801541219" y="-17.12842803761658" transform="rotate(180 48.41557801541219 -20.12842803761658)" font-family="sans-serif">WROTE</text></g></g><g class="layer nodes"><g class="node" transform="translate(176.72037872559613,375.0660483022649)"><circle class="outline" cx="0" cy="0" r="25" fill="#F79767" stroke="#f36924" stroke-width="2px"/><text text-anchor="middle" pointer-events="none" font-family="sans-serif" dy="1.5625" font-size="25" fill="#FFFFFF"/><text text-anchor="middle" pointer-events="none" font-family="sans-serif" dy="1.5625" font-size="25" fill="#FFFFFF"/><text text-anchor="middle" pointer-events="none" x="0" y="0" font-size="10px" fill="#FFFFFF" font-family="sans-serif"> Cameron</text><text text-anchor="middle" pointer-events="none" x="0" y="10" font-size="10px" fill="#FFFFFF" font-family="sans-serif"> Crowe</text></g><g class="node" transform="translate(154.8270360264497,274.1400493115375)"><circle class="outline" cx="0" cy="0" r="25" fill="#57C7E3" stroke="#23b3d7" stroke-width="2px"/><text text-anchor="middle" pointer-events="none" font-family="sans-serif" dy="1.5625" font-size="25" fill="#2A2C34"/><text text-anchor="middle" pointer-events="none" font-family="sans-serif" dy="1.5625" font-size="25" fill="#2A2C34"/><text text-anchor="middle" pointer-events="none" x="0" y="0" font-size="10px" fill="#2A2C34" font-family="sans-serif"> Jerry</text><text text-anchor="middle" pointer-events="none" x="0" y="10" font-size="10px" fill="#2A2C34" font-family="sans-serif"> Maguire</text></g><g class="node" transform="translate(354.9394011986185,196.88289999892856)"><circle class="outline" cx="0" cy="0" r="25" fill="#F79767" stroke="#f36924" stroke-width="2px"/><text text-anchor="middle" pointer-events="none" font-family="sans-serif" dy="1.5625" font-size="25" fill="#FFFFFF"/><text text-anchor="middle" pointer-events="none" font-family="sans-serif" dy="1.5625" font-size="25" fill="#FFFFFF"/><text text-anchor="middle" pointer-events="none" x="0" y="0" font-size="10px" fill="#FFFFFF" font-family="sans-serif"> Lana</text><text text-anchor="middle" pointer-events="none" x="0" y="10" font-size="10px" fill="#FFFFFF" font-family="sans-serif"> Wacho…</text></g><g class="node" transform="translate(365.34393235825536,89.94303531577667)"><circle class="outline" cx="0" cy="0" r="25" fill="#57C7E3" stroke="#23b3d7" stroke-width="2px"/><text text-anchor="middle" pointer-events="none" font-family="sans-serif" dy="1.5625" font-size="25" fill="#2A2C34"/><text text-anchor="middle" pointer-events="none" font-family="sans-serif" dy="1.5625" font-size="25" fill="#2A2C34"/><text text-anchor="middle" pointer-events="none" x="0" y="0" font-size="10px" fill="#2A2C34" font-family="sans-serif"> Speed</text><text text-anchor="middle" pointer-events="none" x="0" y="10" font-size="10px" fill="#2A2C34" font-family="sans-serif"> Racer</text></g><g class="node" transform="translate(258.5778591171354,91.17077472570251)"><circle class="outline" cx="0" cy="0" r="25" fill="#F79767" stroke="#f36924" stroke-width="2px"/><text text-anchor="middle" pointer-events="none" font-family="sans-serif" dy="1.5625" font-size="25" fill="#FFFFFF"/><text text-anchor="middle" pointer-events="none" font-family="sans-serif" dy="1.5625" font-size="25" fill="#FFFFFF"/><text text-anchor="middle" pointer-events="none" x="0" y="0" font-size="10px" fill="#FFFFFF" font-family="sans-serif"> Andy</text><text text-anchor="middle" pointer-events="none" x="0" y="10" font-size="10px" fill="#FFFFFF" font-family="sans-serif"> Wacho…</text></g><g class="node" transform="translate(284.86307327508064,-124.39810745508295)"><circle class="outline" cx="0" cy="0" r="25" fill="#F79767" stroke="#f36924" stroke-width="2px"/><text text-anchor="middle" pointer-events="none" font-family="sans-serif" dy="1.5625" font-size="25" fill="#FFFFFF"/><text text-anchor="middle" pointer-events="none" font-family="sans-serif" dy="1.5625" font-size="25" fill="#FFFFFF"/><text text-anchor="middle" pointer-events="none" x="0" y="0" font-size="10px" fill="#FFFFFF" font-family="sans-serif"> Nancy</text><text text-anchor="middle" pointer-events="none" x="0" y="10" font-size="10px" fill="#FFFFFF" font-family="sans-serif"> Meyers</text></g><g class="node" transform="translate(194.30551488048096,-72.34225069177775)"><circle class="outline" cx="0" cy="0" r="25" fill="#57C7E3" stroke="#23b3d7" stroke-width="2px"/><text text-anchor="middle" pointer-events="none" font-family="sans-serif" dy="1.5625" font-size="25" fill="#2A2C34"/><text text-anchor="middle" pointer-events="none" x="0" y="5" font-size="10px" fill="#2A2C34" font-family="sans-serif"> Somethi…</text></g><g class="node" transform="translate(66.1724035768239,-130.72181829813667)"><circle class="outline" cx="0" cy="0" r="25" fill="#F79767" stroke="#f36924" stroke-width="2px"/><text text-anchor="middle" pointer-events="none" font-family="sans-serif" dy="1.5625" font-size="25" fill="#FFFFFF"/><text text-anchor="middle" pointer-events="none" font-family="sans-serif" dy="1.5625" font-size="25" fill="#FFFFFF"/><text text-anchor="middle" pointer-events="none" x="0" y="0" font-size="10px" fill="#FFFFFF" font-family="sans-serif"> Cameron</text><text text-anchor="middle" pointer-events="none" x="0" y="10" font-size="10px" fill="#FFFFFF" font-family="sans-serif"> Crowe</text></g><g class="node" transform="translate(-34.147323750182125,-151.9953698728071)"><circle class="outline" cx="0" cy="0" r="25" fill="#57C7E3" stroke="#23b3d7" stroke-width="2px"/><text text-anchor="middle" pointer-events="none" font-family="sans-serif" dy="1.5625" font-size="25" fill="#2A2C34"/><text text-anchor="middle" pointer-events="none" font-family="sans-serif" dy="1.5625" font-size="25" fill="#2A2C34"/><text text-anchor="middle" pointer-events="none" x="0" y="0" font-size="10px" fill="#2A2C34" font-family="sans-serif"> Jerry</text><text text-anchor="middle" pointer-events="none" x="0" y="10" font-size="10px" fill="#2A2C34" font-family="sans-serif"> Maguire</text></g><g class="node" transform="translate(-37.12852577346358,53.066105802362884)"><circle class="outline" cx="0" cy="0" r="25" fill="#F79767" stroke="#f36924" stroke-width="2px"/><text text-anchor="middle" pointer-events="none" font-family="sans-serif" dy="1.5625" font-size="25" fill="#FFFFFF"/><text text-anchor="middle" pointer-events="none" font-family="sans-serif" dy="1.5625" font-size="25" fill="#FFFFFF"/><text text-anchor="middle" pointer-events="none" x="0" y="0" font-size="10px" fill="#FFFFFF" font-family="sans-serif"> Lana</text><text text-anchor="middle" pointer-events="none" x="0" y="10" font-size="10px" fill="#FFFFFF" font-family="sans-serif"> Wacho…</text></g><g class="node" transform="translate(-136.64699561409284,9.585906497876127)"><circle class="outline" cx="0" cy="0" r="25" fill="#57C7E3" stroke="#23b3d7" stroke-width="2px"/><text text-anchor="middle" pointer-events="none" font-family="sans-serif" dy="1.5625" font-size="25" fill="#2A2C34"/><text text-anchor="middle" pointer-events="none" font-family="sans-serif" dy="1.5625" font-size="25" fill="#2A2C34"/><text text-anchor="middle" pointer-events="none" x="0" y="0" font-size="10px" fill="#2A2C34" font-family="sans-serif"> Speed</text><text text-anchor="middle" pointer-events="none" x="0" y="10" font-size="10px" fill="#2A2C34" font-family="sans-serif"> Racer</text></g><g class="node" transform="translate(-175.15255395179742,108.92302191247173)"><circle class="outline" cx="0" cy="0" r="25" fill="#F79767" stroke="#f36924" stroke-width="2px"/><text text-anchor="middle" pointer-events="none" font-family="sans-serif" dy="1.5625" font-size="25" fill="#FFFFFF"/><text text-anchor="middle" pointer-events="none" font-family="sans-serif" dy="1.5625" font-size="25" fill="#FFFFFF"/><text text-anchor="middle" pointer-events="none" x="0" y="0" font-size="10px" fill="#FFFFFF" font-family="sans-serif"> Lilly</text><text text-anchor="middle" pointer-events="none" x="0" y="10" font-size="10px" fill="#FFFFFF" font-family="sans-serif"> Wacho…</text></g><g class="node" transform="translate(-4.992374768891523,250.13582060376424)"><circle class="outline" cx="0" cy="0" r="25" fill="#F79767" stroke="#f36924" stroke-width="2px"/><text text-anchor="middle" pointer-events="none" font-family="sans-serif" dy="1.5625" font-size="25" fill="#FFFFFF"/><text text-anchor="middle" pointer-events="none" font-family="sans-serif" dy="1.5625" font-size="25" fill="#FFFFFF"/><text text-anchor="middle" pointer-events="none" x="0" y="0" font-size="10px" fill="#FFFFFF" font-family="sans-serif"> Nancy</text><text text-anchor="middle" pointer-events="none" x="0" y="10" font-size="10px" fill="#FFFFFF" font-family="sans-serif"> Meyers</text></g><g class="node" transform="translate(-86.24601640707913,315.4996313525729)"><circle class="outline" cx="0" cy="0" r="25" fill="#57C7E3" stroke="#23b3d7" stroke-width="2px"/><text text-anchor="middle" pointer-events="none" font-family="sans-serif" dy="1.5625" font-size="25" fill="#2A2C34"/><text text-anchor="middle" pointer-events="none" x="0" y="5" font-size="10px" fill="#2A2C34" font-family="sans-serif"> Somethi…</text></g></g></svg>