<svg xmlns="http://www.w3.org/2000/svg" width="336.32891845703125" height="471.512451171875" viewBox="-30.954635620117188 -145.09112548828125 336.32891845703125 471.512451171875"><title>Neo4j Graph Visualization</title><desc>Created using Neo4j (http://www.neo4j.com/)</desc><g class="layer relationships"><g class="relationship" transform="translate(227.51542141657671 254.0947361216296) rotate(513.4286613218455)"><path class="outline" fill="#A5ABB6" stroke="none" d="M 25 0.5 L 27.262019090879548 0.5 L 27.262019090879548 -0.5 L 25 -0.5 Z M 62.59795659087955 0.5 L 64.8599756817591 0.5 L 64.8599756817591 3.5 L 71.8599756817591 0 L 64.8599756817591 -3.5 L 64.8599756817591 -0.5 L 62.59795659087955 -0.5 Z"/><text text-anchor="middle" pointer-events="none" font-size="8px" fill="#000000" x="44.92998784087955" y="3" transform="rotate(180 44.92998784087955 0)" font-family="sans-serif">ACTE…</text></g><g class="relationship" transform="translate(227.51542141657671 254.0947361216296) rotate(296.11932386557896)"><path class="outline" fill="#A5ABB6" stroke="none" d="M 25 0.5 L 29.209661316831827 0.5 L 29.209661316831827 -0.5 L 25 -0.5 Z M 74.77216131683183 0.5 L 78.98182263366365 0.5 L 78.98182263366365 3.5 L 85.98182263366365 0 L 78.98182263366365 -3.5 L 78.98182263366365 -0.5 L 74.77216131683183 -0.5 Z"/><text text-anchor="middle" pointer-events="none" font-size="8px" fill="#000000" x="51.99091131683183" y="3" font-family="sans-serif">ACTED_IN</text></g><g class="relationship" transform="translate(227.51542141657671 254.0947361216296) rotate(184.82245274251608)"><path class="outline" fill="#A5ABB6" stroke="none" d="M 25 0.5 L 39.27854002934893 0.5 L 39.27854002934893 -0.5 L 25 -0.5 Z M 84.84104002934893 0.5 L 99.11958005869786 0.5 L 99.11958005869786 3.5 L 106.11958005869786 0 L 99.11958005869786 -3.5 L 99.11958005869786 -0.5 L 84.84104002934893 -0.5 Z"/><text text-anchor="middle" pointer-events="none" font-size="8px" fill="#000000" x="62.05979002934893" y="3" transform="rotate(180 62.05979002934893 0)" font-family="sans-serif">ACTED_IN</text></g><g class="relationship" transform="translate(167.90112560902358 176.05582043699346) rotate(462.549064272917)"><path class="outline" fill="#A5ABB6" stroke="none" d="M 25 0.5 L 35.88668319532081 0.5 L 35.88668319532081 -0.5 L 25 -0.5 Z M 81.44918319532081 0.5 L 92.33586639064163 0.5 L 92.33586639064163 3.5 L 99.33586639064163 0 L 92.33586639064163 -3.5 L 92.33586639064163 -0.5 L 81.44918319532081 -0.5 Z"/><text text-anchor="middle" pointer-events="none" font-size="8px" fill="#000000" x="58.66793319532081" y="3" transform="rotate(180 58.66793319532081 0)" font-family="sans-serif">ACTED_IN</text></g><g class="relationship" transform="translate(167.90112560902358 176.05582043699346) rotate(348.73338805825347)"><path class="outline" fill="#A5ABB6" stroke="none" d="M 25 0.5 L 29.021077765925817 0.5 L 29.021077765925817 -0.5 L 25 -0.5 Z M 74.58357776592581 0.5 L 78.60465553185163 0.5 L 78.60465553185163 3.5 L 85.60465553185163 0 L 78.60465553185163 -3.5 L 78.60465553185163 -0.5 L 74.58357776592581 -0.5 Z"/><text text-anchor="middle" pointer-events="none" font-size="8px" fill="#000000" x="51.80232776592582" y="3" font-family="sans-serif">ACTED_IN</text></g><g class="relationship" transform="translate(167.90112560902358 176.05582043699346) rotate(496.67005025859805)"><path class="outline" fill="#A5ABB6" stroke="none" d="M 25 0.5 L 27.66330449954105 0.5 L 27.66330449954105 -0.5 L 25 -0.5 Z M 62.99924199954105 0.5 L 65.6625464990821 0.5 L 65.6625464990821 3.5 L 72.6625464990821 0 L 65.6625464990821 -3.5 L 65.6625464990821 -0.5 L 62.99924199954105 -0.5 Z"/><text text-anchor="middle" pointer-events="none" font-size="8px" fill="#000000" x="45.33127324954105" y="3" transform="rotate(180 45.33127324954105 0)" font-family="sans-serif">ACTE…</text></g><g class="relationship" transform="translate(109.23401487878813 -13.2982987557157) rotate(232.2007928831884)"><path class="outline" fill="#A5ABB6" stroke="none" d="M 25 0.5 L 38.76403987562 0.5 L 38.76403987562 -0.5 L 25 -0.5 Z M 84.32653987562 0.5 L 98.09057975124 0.5 L 98.09057975124 3.5 L 105.09057975124 0 L 98.09057975124 -3.5 L 98.09057975124 -0.5 L 84.32653987562 -0.5 Z"/><text text-anchor="middle" pointer-events="none" font-size="8px" fill="#000000" x="61.54528987562" y="3" transform="rotate(180 61.54528987562 0)" font-family="sans-serif">ACTED_IN</text></g><g class="relationship" transform="translate(109.23401487878813 -13.2982987557157) rotate(188.77423424765914)"><path class="outline" fill="#A5ABB6" stroke="none" d="M 25 0.5 L 29.971395820343147 0.5 L 29.971395820343147 -0.5 L 25 -0.5 Z M 75.53389582034315 0.5 L 80.5052916406863 0.5 L 80.5052916406863 3.5 L 87.5052916406863 0 L 80.5052916406863 -3.5 L 80.5052916406863 -0.5 L 75.53389582034315 -0.5 Z"/><text text-anchor="middle" pointer-events="none" font-size="8px" fill="#000000" x="52.75264582034315" y="3" transform="rotate(180 52.75264582034315 0)" font-family="sans-serif">ACTED_IN</text></g><g class="relationship" transform="translate(109.23401487878813 -13.2982987557157) rotate(503.3360767093019)"><path class="outline" fill="#A5ABB6" stroke="none" d="M 25 0.5 L 27.317172453134134 0.5 L 27.317172453134134 -0.5 L 25 -0.5 Z M 57.317172453134134 0.5 L 59.63434490626827 0.5 L 59.63434490626827 3.5 L 66.63434490626827 0 L 59.63434490626827 -3.5 L 59.63434490626827 -0.5 L 57.317172453134134 -0.5 Z"/><text text-anchor="middle" pointer-events="none" font-size="8px" fill="#000000" x="42.317172453134134" y="3" transform="rotate(180 42.317172453134134 0)" font-family="sans-serif">ACT…</text></g><g class="relationship" transform="translate(106.7312978256551 -73.18053105082151) rotate(518.542002615874)"><path class="outline" fill="#A5ABB6" stroke="none" d="M 25 0.5 L 32.10897759297112 0.5 L 32.10897759297112 -0.5 L 25 -0.5 Z M 77.67147759297112 0.5 L 84.78045518594224 0.5 L 84.78045518594224 3.5 L 91.78045518594224 0 L 84.78045518594224 -3.5 L 84.78045518594224 -0.5 L 77.67147759297112 -0.5 Z"/><text text-anchor="middle" pointer-events="none" font-size="8px" fill="#000000" x="54.89022759297112" y="3" transform="rotate(180 54.89022759297112 0)" font-family="sans-serif">ACTED_IN</text></g><g class="relationship" transform="translate(106.7312978256551 -73.18053105082151) rotate(209.05768303352664)"><path class="outline" fill="#A5ABB6" stroke="none" d="M 25 0.5 L 25.674888384162813 0.5 L 25.674888384162813 -0.5 L 25 -0.5 Z M 55.67488838416281 0.5 L 56.349776768325626 0.5 L 56.349776768325626 3.5 L 63.349776768325626 0 L 56.349776768325626 -3.5 L 56.349776768325626 -0.5 L 55.67488838416281 -0.5 Z"/><text text-anchor="middle" pointer-events="none" font-size="8px" fill="#000000" x="40.67488838416281" y="3" transform="rotate(180 40.67488838416281 0)" font-family="sans-serif">ACT…</text></g><g class="relationship" transform="translate(106.7312978256551 -73.18053105082151) rotate(481.78106441953946)"><path class="outline" fill="#A5ABB6" stroke="none" d="M 25 0.5 L 41.12459936496069 0.5 L 41.12459936496069 -0.5 L 25 -0.5 Z M 86.68709936496069 0.5 L 102.81169872992137 0.5 L 102.81169872992137 3.5 L 109.81169872992137 0 L 102.81169872992137 -3.5 L 102.81169872992137 -0.5 L 86.68709936496069 -0.5 Z"/><text text-anchor="middle" pointer-events="none" font-size="8px" fill="#000000" x="63.90584936496069" y="3" transform="rotate(180 63.90584936496069 0)" font-family="sans-serif">ACTED_IN</text></g></g><g class="layer nodes"><g class="node" transform="translate(227.51542141657671,254.0947361216296)"><circle class="outline" cx="0" cy="0" r="25" fill="#F79767" stroke="#f36924" stroke-width="2px"/><text text-anchor="middle" pointer-events="none" font-family="sans-serif" dy="1.5625" font-size="25" fill="#FFFFFF"/><text text-anchor="middle" pointer-events="none" font-family="sans-serif" dy="1.5625" font-size="25" fill="#FFFFFF"/><text text-anchor="middle" pointer-events="none" x="0" y="0" font-size="10px" fill="#FFFFFF" font-family="sans-serif"> Hugo</text><text text-anchor="middle" pointer-events="none" x="0" y="10" font-size="10px" fill="#FFFFFF" font-family="sans-serif"> Weaving</text></g><g class="node" transform="translate(167.90112560902358,176.05582043699346)"><circle class="outline" cx="0" cy="0" r="25" fill="#F79767" stroke="#f36924" stroke-width="2px"/><text text-anchor="middle" pointer-events="none" font-family="sans-serif" dy="1.5625" font-size="25" fill="#FFFFFF"/><text text-anchor="middle" pointer-events="none" font-family="sans-serif" dy="1.5625" font-size="25" fill="#FFFFFF"/><text text-anchor="middle" pointer-events="none" x="0" y="0" font-size="10px" fill="#FFFFFF" font-family="sans-serif"> Keanu</text><text text-anchor="middle" pointer-events="none" x="0" y="10" font-size="10px" fill="#FFFFFF" font-family="sans-serif"> Reeves</text></g><g class="node" transform="translate(140.88597948302765,297.42134087382334)"><circle class="outline" cx="0" cy="0" r="25" fill="#57C7E3" stroke="#23b3d7" stroke-width="2px"/><text text-anchor="middle" pointer-events="none" font-family="sans-serif" dy="1.5625" font-size="25" fill="#2A2C34"/><text text-anchor="middle" pointer-events="none" font-family="sans-serif" dy="1.5625" font-size="25" fill="#2A2C34"/><text text-anchor="middle" pointer-events="none" font-family="sans-serif" dy="1.5625" font-size="25" fill="#2A2C34"/><text text-anchor="middle" pointer-events="none" x="0" y="-5" font-size="10px" fill="#2A2C34" font-family="sans-serif"> The</text><text text-anchor="middle" pointer-events="none" x="0" y="5" font-size="10px" fill="#2A2C34" font-family="sans-serif"> Matrix</text><text text-anchor="middle" pointer-events="none" x="0" y="15" font-size="10px" fill="#2A2C34" font-family="sans-serif"> Revol…</text></g><g class="node" transform="translate(276.37428299300853,154.44647170851977)"><circle class="outline" cx="0" cy="0" r="25" fill="#57C7E3" stroke="#23b3d7" stroke-width="2px"/><text text-anchor="middle" pointer-events="none" font-family="sans-serif" dy="1.5625" font-size="25" fill="#2A2C34"/><text text-anchor="middle" pointer-events="none" font-family="sans-serif" dy="1.5625" font-size="25" fill="#2A2C34"/><text text-anchor="middle" pointer-events="none" font-family="sans-serif" dy="1.5625" font-size="25" fill="#2A2C34"/><text text-anchor="middle" pointer-events="none" x="0" y="-5" font-size="10px" fill="#2A2C34" font-family="sans-serif"> The</text><text text-anchor="middle" pointer-events="none" x="0" y="5" font-size="10px" fill="#2A2C34" font-family="sans-serif"> Matrix</text><text text-anchor="middle" pointer-events="none" x="0" y="15" font-size="10px" fill="#2A2C34" font-family="sans-serif"> Reloa…</text></g><g class="node" transform="translate(96.86000578029001,243.07173110128937)"><circle class="outline" cx="0" cy="0" r="25" fill="#57C7E3" stroke="#23b3d7" stroke-width="2px"/><text text-anchor="middle" pointer-events="none" font-family="sans-serif" dy="1.5625" font-size="25" fill="#2A2C34"/><text text-anchor="middle" pointer-events="none" font-family="sans-serif" dy="1.5625" font-size="25" fill="#2A2C34"/><text text-anchor="middle" pointer-events="none" x="0" y="0" font-size="10px" fill="#2A2C34" font-family="sans-serif"> The</text><text text-anchor="middle" pointer-events="none" x="0" y="10" font-size="10px" fill="#2A2C34" font-family="sans-serif"> Matrix</text></g><g class="node" transform="translate(109.23401487878813,-13.2982987557157)"><circle class="outline" cx="0" cy="0" r="25" fill="#F79767" stroke="#f36924" stroke-width="2px"/><text text-anchor="middle" pointer-events="none" font-family="sans-serif" dy="1.5625" font-size="25" fill="#FFFFFF"/><text text-anchor="middle" pointer-events="none" font-family="sans-serif" dy="1.5625" font-size="25" fill="#FFFFFF"/><text text-anchor="middle" pointer-events="none" x="0" y="0" font-size="10px" fill="#FFFFFF" font-family="sans-serif"> Hugo</text><text text-anchor="middle" pointer-events="none" x="0" y="10" font-size="10px" fill="#FFFFFF" font-family="sans-serif"> Weaving</text></g><g class="node" transform="translate(106.7312978256551,-73.18053105082151)"><circle class="outline" cx="0" cy="0" r="25" fill="#F79767" stroke="#f36924" stroke-width="2px"/><text text-anchor="middle" pointer-events="none" font-family="sans-serif" dy="1.5625" font-size="25" fill="#FFFFFF"/><text text-anchor="middle" pointer-events="none" font-family="sans-serif" dy="1.5625" font-size="25" fill="#FFFFFF"/><text text-anchor="middle" pointer-events="none" x="0" y="0" font-size="10px" fill="#FFFFFF" font-family="sans-serif"> Keanu</text><text text-anchor="middle" pointer-events="none" x="0" y="10" font-size="10px" fill="#FFFFFF" font-family="sans-serif"> Reeves</text></g><g class="node" transform="translate(-1.9546362020412593,-30.46001539425321)"><circle class="outline" cx="0" cy="0" r="25" fill="#57C7E3" stroke="#23b3d7" stroke-width="2px"/><text text-anchor="middle" pointer-events="none" font-family="sans-serif" dy="1.5625" font-size="25" fill="#2A2C34"/><text text-anchor="middle" pointer-events="none" font-family="sans-serif" dy="1.5625" font-size="25" fill="#2A2C34"/><text text-anchor="middle" pointer-events="none" font-family="sans-serif" dy="1.5625" font-size="25" fill="#2A2C34"/><text text-anchor="middle" pointer-events="none" x="0" y="-5" font-size="10px" fill="#2A2C34" font-family="sans-serif"> The</text><text text-anchor="middle" pointer-events="none" x="0" y="5" font-size="10px" fill="#2A2C34" font-family="sans-serif"> Matrix</text><text text-anchor="middle" pointer-events="none" x="0" y="15" font-size="10px" fill="#2A2C34" font-family="sans-serif"> Reloa…</text></g><g class="node" transform="translate(29.502003418355343,-116.09112578409909)"><circle class="outline" cx="0" cy="0" r="25" fill="#57C7E3" stroke="#23b3d7" stroke-width="2px"/><text text-anchor="middle" pointer-events="none" font-family="sans-serif" dy="1.5625" font-size="25" fill="#2A2C34"/><text text-anchor="middle" pointer-events="none" font-family="sans-serif" dy="1.5625" font-size="25" fill="#2A2C34"/><text text-anchor="middle" pointer-events="none" font-family="sans-serif" dy="1.5625" font-size="25" fill="#2A2C34"/><text text-anchor="middle" pointer-events="none" x="0" y="-5" font-size="10px" fill="#2A2C34" font-family="sans-serif"> The</text><text text-anchor="middle" pointer-events="none" x="0" y="5" font-size="10px" fill="#2A2C34" font-family="sans-serif"> Matrix</text><text text-anchor="middle" pointer-events="none" x="0" y="15" font-size="10px" fill="#2A2C34" font-family="sans-serif"> Revol…</text></g><g class="node" transform="translate(35.729361604278424,41.41841819070793)"><circle class="outline" cx="0" cy="0" r="25" fill="#57C7E3" stroke="#23b3d7" stroke-width="2px"/><text text-anchor="middle" pointer-events="none" font-family="sans-serif" dy="1.5625" font-size="25" fill="#2A2C34"/><text text-anchor="middle" pointer-events="none" font-family="sans-serif" dy="1.5625" font-size="25" fill="#2A2C34"/><text text-anchor="middle" pointer-events="none" x="0" y="0" font-size="10px" fill="#2A2C34" font-family="sans-serif"> The</text><text text-anchor="middle" pointer-events="none" x="0" y="10" font-size="10px" fill="#2A2C34" font-family="sans-serif"> Matrix</text></g></g></svg>